%TF.GenerationSoftware,KiCad,Pcbnew,(5.1.9)-1*%
%TF.CreationDate,2021-05-09T12:40:12+03:00*%
%TF.ProjectId,16ch_fet_board,31366368-5f66-4657-945f-626f6172642e,2.0*%
%TF.SameCoordinates,Original*%
%TF.FileFunction,Profile,NP*%
%FSLAX46Y46*%
G04 Gerber Fmt 4.6, Leading zero omitted, Abs format (unit mm)*
G04 Created by KiCad (PCBNEW (5.1.9)-1) date 2021-05-09 12:40:12*
%MOMM*%
%LPD*%
G01*
G04 APERTURE LIST*
%TA.AperFunction,Profile*%
%ADD10C,0.200000*%
%TD*%
G04 APERTURE END LIST*
D10*
X274350000Y-108500000D02*
X274106335Y-108481564D01*
X274106335Y-108481564D02*
X273874209Y-108428067D01*
X273874209Y-108428067D02*
X273656334Y-108342222D01*
X273656334Y-108342222D02*
X273455425Y-108226744D01*
X273455425Y-108226744D02*
X273274196Y-108084348D01*
X273274196Y-108084348D02*
X273115362Y-107917748D01*
X273115362Y-107917748D02*
X272981637Y-107729657D01*
X272981637Y-107729657D02*
X272875736Y-107522791D01*
X272875736Y-107522791D02*
X272800372Y-107299864D01*
X272800372Y-107299864D02*
X272758260Y-107063590D01*
X272758260Y-107063590D02*
X272750000Y-106900000D01*
X274350000Y-80300000D02*
X274593664Y-80318435D01*
X274593664Y-80318435D02*
X274825791Y-80371932D01*
X274825791Y-80371932D02*
X275043666Y-80457777D01*
X275043666Y-80457777D02*
X275244575Y-80573254D01*
X275244575Y-80573254D02*
X275425804Y-80715650D01*
X275425804Y-80715650D02*
X275584637Y-80882251D01*
X275584637Y-80882251D02*
X275718362Y-81070341D01*
X275718362Y-81070341D02*
X275824264Y-81277207D01*
X275824264Y-81277207D02*
X275899627Y-81500134D01*
X275899627Y-81500134D02*
X275941739Y-81736409D01*
X275941739Y-81736409D02*
X275950000Y-81900000D01*
X272750000Y-81900000D02*
X272768435Y-81656335D01*
X272768435Y-81656335D02*
X272821932Y-81424208D01*
X272821932Y-81424208D02*
X272907777Y-81206333D01*
X272907777Y-81206333D02*
X273023255Y-81005424D01*
X273023255Y-81005424D02*
X273165651Y-80824195D01*
X273165651Y-80824195D02*
X273332251Y-80665362D01*
X273332251Y-80665362D02*
X273520342Y-80531637D01*
X273520342Y-80531637D02*
X273727208Y-80425735D01*
X273727208Y-80425735D02*
X273950135Y-80350372D01*
X273950135Y-80350372D02*
X274186409Y-80308260D01*
X274186409Y-80308260D02*
X274350000Y-80300000D01*
X275950000Y-81900000D02*
X275931564Y-82143664D01*
X275931564Y-82143664D02*
X275878067Y-82375790D01*
X275878067Y-82375790D02*
X275792222Y-82593665D01*
X275792222Y-82593665D02*
X275676745Y-82794574D01*
X275676745Y-82794574D02*
X275534349Y-82975803D01*
X275534349Y-82975803D02*
X275367748Y-83134637D01*
X275367748Y-83134637D02*
X275179658Y-83268362D01*
X275179658Y-83268362D02*
X274972792Y-83374263D01*
X274972792Y-83374263D02*
X274749865Y-83449627D01*
X274749865Y-83449627D02*
X274513590Y-83491739D01*
X274513590Y-83491739D02*
X274350000Y-83500000D01*
X24350000Y-108500000D02*
X24106335Y-108481564D01*
X24106335Y-108481564D02*
X23874209Y-108428067D01*
X23874209Y-108428067D02*
X23656334Y-108342222D01*
X23656334Y-108342222D02*
X23455425Y-108226744D01*
X23455425Y-108226744D02*
X23274196Y-108084348D01*
X23274196Y-108084348D02*
X23115362Y-107917748D01*
X23115362Y-107917748D02*
X22981637Y-107729657D01*
X22981637Y-107729657D02*
X22875736Y-107522791D01*
X22875736Y-107522791D02*
X22800372Y-107299864D01*
X22800372Y-107299864D02*
X22758260Y-107063590D01*
X22758260Y-107063590D02*
X22750000Y-106900000D01*
X25950000Y-81900000D02*
X25931564Y-82143664D01*
X25931564Y-82143664D02*
X25878067Y-82375790D01*
X25878067Y-82375790D02*
X25792222Y-82593665D01*
X25792222Y-82593665D02*
X25676745Y-82794574D01*
X25676745Y-82794574D02*
X25534349Y-82975803D01*
X25534349Y-82975803D02*
X25367748Y-83134637D01*
X25367748Y-83134637D02*
X25179658Y-83268362D01*
X25179658Y-83268362D02*
X24972792Y-83374263D01*
X24972792Y-83374263D02*
X24749865Y-83449627D01*
X24749865Y-83449627D02*
X24513590Y-83491739D01*
X24513590Y-83491739D02*
X24350000Y-83500000D01*
X279702778Y-127990643D02*
X279694998Y-128295584D01*
X279694998Y-128295584D02*
X279671914Y-128596658D01*
X279671914Y-128596658D02*
X279633906Y-128893484D01*
X279633906Y-128893484D02*
X279581356Y-129185681D01*
X279581356Y-129185681D02*
X279514646Y-129472867D01*
X279514646Y-129472867D02*
X279434155Y-129754661D01*
X279434155Y-129754661D02*
X279340266Y-130030681D01*
X279340266Y-130030681D02*
X279233360Y-130300547D01*
X279233360Y-130300547D02*
X279113818Y-130563877D01*
X279113818Y-130563877D02*
X278982022Y-130820290D01*
X278982022Y-130820290D02*
X278838352Y-131069405D01*
X278838352Y-131069405D02*
X278683189Y-131310840D01*
X278683189Y-131310840D02*
X278516916Y-131544214D01*
X278516916Y-131544214D02*
X278339914Y-131769146D01*
X278339914Y-131769146D02*
X278152563Y-131985255D01*
X278152563Y-131985255D02*
X277955244Y-132192159D01*
X277955244Y-132192159D02*
X277748340Y-132389477D01*
X277748340Y-132389477D02*
X277532231Y-132576828D01*
X277532231Y-132576828D02*
X277307299Y-132753831D01*
X277307299Y-132753831D02*
X277073925Y-132920104D01*
X277073925Y-132920104D02*
X276832490Y-133075266D01*
X276832490Y-133075266D02*
X276583375Y-133218937D01*
X276583375Y-133218937D02*
X276326962Y-133350733D01*
X276326962Y-133350733D02*
X276063632Y-133470275D01*
X276063632Y-133470275D02*
X275793766Y-133577181D01*
X275793766Y-133577181D02*
X275517746Y-133671070D01*
X275517746Y-133671070D02*
X275235952Y-133751561D01*
X275235952Y-133751561D02*
X274948766Y-133818271D01*
X274948766Y-133818271D02*
X274656570Y-133870821D01*
X274656570Y-133870821D02*
X274359743Y-133908829D01*
X274359743Y-133908829D02*
X274058669Y-133931913D01*
X274058669Y-133931913D02*
X273753728Y-133939693D01*
X273753728Y-133939693D02*
X25651828Y-133939693D01*
X24350000Y-83500000D02*
X24106335Y-83481564D01*
X24106335Y-83481564D02*
X23874209Y-83428067D01*
X23874209Y-83428067D02*
X23656334Y-83342222D01*
X23656334Y-83342222D02*
X23455425Y-83226744D01*
X23455425Y-83226744D02*
X23274196Y-83084348D01*
X23274196Y-83084348D02*
X23115362Y-82917748D01*
X23115362Y-82917748D02*
X22981637Y-82729657D01*
X22981637Y-82729657D02*
X22875736Y-82522791D01*
X22875736Y-82522791D02*
X22800372Y-82299864D01*
X22800372Y-82299864D02*
X22758260Y-82063590D01*
X22758260Y-82063590D02*
X22750000Y-81900000D01*
X24350000Y-80300000D02*
X24593664Y-80318435D01*
X24593664Y-80318435D02*
X24825791Y-80371932D01*
X24825791Y-80371932D02*
X25043666Y-80457777D01*
X25043666Y-80457777D02*
X25244575Y-80573254D01*
X25244575Y-80573254D02*
X25425804Y-80715650D01*
X25425804Y-80715650D02*
X25584637Y-80882251D01*
X25584637Y-80882251D02*
X25718362Y-81070341D01*
X25718362Y-81070341D02*
X25824264Y-81277207D01*
X25824264Y-81277207D02*
X25899627Y-81500134D01*
X25899627Y-81500134D02*
X25941739Y-81736409D01*
X25941739Y-81736409D02*
X25950000Y-81900000D01*
X22750000Y-106900000D02*
X22768435Y-106656335D01*
X22768435Y-106656335D02*
X22821932Y-106424208D01*
X22821932Y-106424208D02*
X22907777Y-106206333D01*
X22907777Y-106206333D02*
X23023255Y-106005424D01*
X23023255Y-106005424D02*
X23165651Y-105824195D01*
X23165651Y-105824195D02*
X23332251Y-105665362D01*
X23332251Y-105665362D02*
X23520342Y-105531637D01*
X23520342Y-105531637D02*
X23727208Y-105425735D01*
X23727208Y-105425735D02*
X23950135Y-105350372D01*
X23950135Y-105350372D02*
X24186409Y-105308260D01*
X24186409Y-105308260D02*
X24350000Y-105300000D01*
X274350000Y-83500000D02*
X274106335Y-83481564D01*
X274106335Y-83481564D02*
X273874209Y-83428067D01*
X273874209Y-83428067D02*
X273656334Y-83342222D01*
X273656334Y-83342222D02*
X273455425Y-83226744D01*
X273455425Y-83226744D02*
X273274196Y-83084348D01*
X273274196Y-83084348D02*
X273115362Y-82917748D01*
X273115362Y-82917748D02*
X272981637Y-82729657D01*
X272981637Y-82729657D02*
X272875736Y-82522791D01*
X272875736Y-82522791D02*
X272800372Y-82299864D01*
X272800372Y-82299864D02*
X272758260Y-82063590D01*
X272758260Y-82063590D02*
X272750000Y-81900000D01*
X24350000Y-105300000D02*
X24593664Y-105318435D01*
X24593664Y-105318435D02*
X24825791Y-105371932D01*
X24825791Y-105371932D02*
X25043666Y-105457777D01*
X25043666Y-105457777D02*
X25244575Y-105573254D01*
X25244575Y-105573254D02*
X25425804Y-105715650D01*
X25425804Y-105715650D02*
X25584637Y-105882251D01*
X25584637Y-105882251D02*
X25718362Y-106070341D01*
X25718362Y-106070341D02*
X25824264Y-106277207D01*
X25824264Y-106277207D02*
X25899627Y-106500134D01*
X25899627Y-106500134D02*
X25941739Y-106736409D01*
X25941739Y-106736409D02*
X25950000Y-106900000D01*
X273753728Y-53939693D02*
X274058669Y-53947472D01*
X274058669Y-53947472D02*
X274359743Y-53970556D01*
X274359743Y-53970556D02*
X274656570Y-54008564D01*
X274656570Y-54008564D02*
X274948766Y-54061114D01*
X274948766Y-54061114D02*
X275235952Y-54127824D01*
X275235952Y-54127824D02*
X275517746Y-54208315D01*
X275517746Y-54208315D02*
X275793766Y-54302204D01*
X275793766Y-54302204D02*
X276063632Y-54409110D01*
X276063632Y-54409110D02*
X276326962Y-54528652D01*
X276326962Y-54528652D02*
X276583375Y-54660448D01*
X276583375Y-54660448D02*
X276832490Y-54804118D01*
X276832490Y-54804118D02*
X277073925Y-54959280D01*
X277073925Y-54959280D02*
X277307299Y-55125554D01*
X277307299Y-55125554D02*
X277532231Y-55302556D01*
X277532231Y-55302556D02*
X277748340Y-55489907D01*
X277748340Y-55489907D02*
X277955244Y-55687226D01*
X277955244Y-55687226D02*
X278152563Y-55894130D01*
X278152563Y-55894130D02*
X278339914Y-56110238D01*
X278339914Y-56110238D02*
X278516916Y-56335171D01*
X278516916Y-56335171D02*
X278683189Y-56568545D01*
X278683189Y-56568545D02*
X278838352Y-56809980D01*
X278838352Y-56809980D02*
X278982022Y-57059094D01*
X278982022Y-57059094D02*
X279113818Y-57315507D01*
X279113818Y-57315507D02*
X279233360Y-57578837D01*
X279233360Y-57578837D02*
X279340266Y-57848703D01*
X279340266Y-57848703D02*
X279434155Y-58124724D01*
X279434155Y-58124724D02*
X279514646Y-58406517D01*
X279514646Y-58406517D02*
X279581356Y-58693703D01*
X279581356Y-58693703D02*
X279633906Y-58985900D01*
X279633906Y-58985900D02*
X279671914Y-59282726D01*
X279671914Y-59282726D02*
X279694998Y-59583800D01*
X279694998Y-59583800D02*
X279702778Y-59888742D01*
X25651828Y-133939693D02*
X25346886Y-133931913D01*
X25346886Y-133931913D02*
X25045812Y-133908829D01*
X25045812Y-133908829D02*
X24748986Y-133870821D01*
X24748986Y-133870821D02*
X24456789Y-133818271D01*
X24456789Y-133818271D02*
X24169603Y-133751561D01*
X24169603Y-133751561D02*
X23887809Y-133671070D01*
X23887809Y-133671070D02*
X23611789Y-133577181D01*
X23611789Y-133577181D02*
X23341923Y-133470275D01*
X23341923Y-133470275D02*
X23078593Y-133350733D01*
X23078593Y-133350733D02*
X22822180Y-133218937D01*
X22822180Y-133218937D02*
X22573065Y-133075266D01*
X22573065Y-133075266D02*
X22331630Y-132920104D01*
X22331630Y-132920104D02*
X22098256Y-132753831D01*
X22098256Y-132753831D02*
X21873324Y-132576828D01*
X21873324Y-132576828D02*
X21657215Y-132389477D01*
X21657215Y-132389477D02*
X21450311Y-132192159D01*
X21450311Y-132192159D02*
X21252993Y-131985255D01*
X21252993Y-131985255D02*
X21065642Y-131769146D01*
X21065642Y-131769146D02*
X20888639Y-131544214D01*
X20888639Y-131544214D02*
X20722366Y-131310840D01*
X20722366Y-131310840D02*
X20567204Y-131069405D01*
X20567204Y-131069405D02*
X20423533Y-130820290D01*
X20423533Y-130820290D02*
X20291737Y-130563877D01*
X20291737Y-130563877D02*
X20172195Y-130300547D01*
X20172195Y-130300547D02*
X20065289Y-130030681D01*
X20065289Y-130030681D02*
X19971400Y-129754661D01*
X19971400Y-129754661D02*
X19890909Y-129472867D01*
X19890909Y-129472867D02*
X19824199Y-129185681D01*
X19824199Y-129185681D02*
X19771649Y-128893484D01*
X19771649Y-128893484D02*
X19733641Y-128596658D01*
X19733641Y-128596658D02*
X19710557Y-128295584D01*
X19710557Y-128295584D02*
X19702778Y-127990643D01*
X25950000Y-106900000D02*
X25931564Y-107143664D01*
X25931564Y-107143664D02*
X25878067Y-107375790D01*
X25878067Y-107375790D02*
X25792222Y-107593665D01*
X25792222Y-107593665D02*
X25676745Y-107794574D01*
X25676745Y-107794574D02*
X25534349Y-107975803D01*
X25534349Y-107975803D02*
X25367748Y-108134637D01*
X25367748Y-108134637D02*
X25179658Y-108268362D01*
X25179658Y-108268362D02*
X24972792Y-108374263D01*
X24972792Y-108374263D02*
X24749865Y-108449627D01*
X24749865Y-108449627D02*
X24513590Y-108491739D01*
X24513590Y-108491739D02*
X24350000Y-108500000D01*
X19702778Y-59888742D02*
X19710557Y-59583800D01*
X19710557Y-59583800D02*
X19733641Y-59282726D01*
X19733641Y-59282726D02*
X19771649Y-58985900D01*
X19771649Y-58985900D02*
X19824199Y-58693703D01*
X19824199Y-58693703D02*
X19890909Y-58406517D01*
X19890909Y-58406517D02*
X19971400Y-58124724D01*
X19971400Y-58124724D02*
X20065289Y-57848703D01*
X20065289Y-57848703D02*
X20172195Y-57578837D01*
X20172195Y-57578837D02*
X20291737Y-57315507D01*
X20291737Y-57315507D02*
X20423533Y-57059094D01*
X20423533Y-57059094D02*
X20567204Y-56809980D01*
X20567204Y-56809980D02*
X20722366Y-56568545D01*
X20722366Y-56568545D02*
X20888639Y-56335171D01*
X20888639Y-56335171D02*
X21065642Y-56110238D01*
X21065642Y-56110238D02*
X21252993Y-55894130D01*
X21252993Y-55894130D02*
X21450311Y-55687226D01*
X21450311Y-55687226D02*
X21657215Y-55489907D01*
X21657215Y-55489907D02*
X21873324Y-55302556D01*
X21873324Y-55302556D02*
X22098256Y-55125554D01*
X22098256Y-55125554D02*
X22331630Y-54959280D01*
X22331630Y-54959280D02*
X22573065Y-54804118D01*
X22573065Y-54804118D02*
X22822180Y-54660448D01*
X22822180Y-54660448D02*
X23078593Y-54528652D01*
X23078593Y-54528652D02*
X23341923Y-54409110D01*
X23341923Y-54409110D02*
X23611789Y-54302204D01*
X23611789Y-54302204D02*
X23887809Y-54208315D01*
X23887809Y-54208315D02*
X24169603Y-54127824D01*
X24169603Y-54127824D02*
X24456789Y-54061114D01*
X24456789Y-54061114D02*
X24748986Y-54008564D01*
X24748986Y-54008564D02*
X25045812Y-53970556D01*
X25045812Y-53970556D02*
X25346886Y-53947472D01*
X25346886Y-53947472D02*
X25651828Y-53939693D01*
X279702778Y-59888742D02*
X279702778Y-127990643D01*
X19702778Y-127990643D02*
X19702778Y-59888742D01*
X25651828Y-53939693D02*
X273753728Y-53939693D01*
X22750000Y-81900000D02*
X22768435Y-81656335D01*
X22768435Y-81656335D02*
X22821932Y-81424208D01*
X22821932Y-81424208D02*
X22907777Y-81206333D01*
X22907777Y-81206333D02*
X23023255Y-81005424D01*
X23023255Y-81005424D02*
X23165651Y-80824195D01*
X23165651Y-80824195D02*
X23332251Y-80665362D01*
X23332251Y-80665362D02*
X23520342Y-80531637D01*
X23520342Y-80531637D02*
X23727208Y-80425735D01*
X23727208Y-80425735D02*
X23950135Y-80350372D01*
X23950135Y-80350372D02*
X24186409Y-80308260D01*
X24186409Y-80308260D02*
X24350000Y-80300000D01*
X272750000Y-106900000D02*
X272768435Y-106656335D01*
X272768435Y-106656335D02*
X272821932Y-106424208D01*
X272821932Y-106424208D02*
X272907777Y-106206333D01*
X272907777Y-106206333D02*
X273023255Y-106005424D01*
X273023255Y-106005424D02*
X273165651Y-105824195D01*
X273165651Y-105824195D02*
X273332251Y-105665362D01*
X273332251Y-105665362D02*
X273520342Y-105531637D01*
X273520342Y-105531637D02*
X273727208Y-105425735D01*
X273727208Y-105425735D02*
X273950135Y-105350372D01*
X273950135Y-105350372D02*
X274186409Y-105308260D01*
X274186409Y-105308260D02*
X274350000Y-105300000D01*
X274350000Y-105300000D02*
X274593664Y-105318435D01*
X274593664Y-105318435D02*
X274825791Y-105371932D01*
X274825791Y-105371932D02*
X275043666Y-105457777D01*
X275043666Y-105457777D02*
X275244575Y-105573254D01*
X275244575Y-105573254D02*
X275425804Y-105715650D01*
X275425804Y-105715650D02*
X275584637Y-105882251D01*
X275584637Y-105882251D02*
X275718362Y-106070341D01*
X275718362Y-106070341D02*
X275824264Y-106277207D01*
X275824264Y-106277207D02*
X275899627Y-106500134D01*
X275899627Y-106500134D02*
X275941739Y-106736409D01*
X275941739Y-106736409D02*
X275950000Y-106900000D01*
X275950000Y-106900000D02*
X275931564Y-107143664D01*
X275931564Y-107143664D02*
X275878067Y-107375790D01*
X275878067Y-107375790D02*
X275792222Y-107593665D01*
X275792222Y-107593665D02*
X275676745Y-107794574D01*
X275676745Y-107794574D02*
X275534349Y-107975803D01*
X275534349Y-107975803D02*
X275367748Y-108134637D01*
X275367748Y-108134637D02*
X275179658Y-108268362D01*
X275179658Y-108268362D02*
X274972792Y-108374263D01*
X274972792Y-108374263D02*
X274749865Y-108449627D01*
X274749865Y-108449627D02*
X274513590Y-108491739D01*
X274513590Y-108491739D02*
X274350000Y-108500000D01*
M02*
