%TF.GenerationSoftware,KiCad,Pcbnew,(5.1.9)-1*%
%TF.CreationDate,2021-05-09T12:40:12+03:00*%
%TF.ProjectId,16ch_fet_board,31366368-5f66-4657-945f-626f6172642e,2.0*%
%TF.SameCoordinates,Original*%
%TF.FileFunction,Legend,Bot*%
%TF.FilePolarity,Positive*%
%FSLAX46Y46*%
G04 Gerber Fmt 4.6, Leading zero omitted, Abs format (unit mm)*
G04 Created by KiCad (PCBNEW (5.1.9)-1) date 2021-05-09 12:40:12*
%MOMM*%
%LPD*%
G01*
G04 APERTURE LIST*
%ADD10C,0.150000*%
G04 APERTURE END LIST*
D10*
X272304761Y-132552380D02*
X272304761Y-133266666D01*
X272352380Y-133409523D01*
X272447619Y-133504761D01*
X272590476Y-133552380D01*
X272685714Y-133552380D01*
X271352380Y-133552380D02*
X271828571Y-133552380D01*
X271828571Y-132552380D01*
X270447619Y-133457142D02*
X270495238Y-133504761D01*
X270638095Y-133552380D01*
X270733333Y-133552380D01*
X270876190Y-133504761D01*
X270971428Y-133409523D01*
X271019047Y-133314285D01*
X271066666Y-133123809D01*
X271066666Y-132980952D01*
X271019047Y-132790476D01*
X270971428Y-132695238D01*
X270876190Y-132600000D01*
X270733333Y-132552380D01*
X270638095Y-132552380D01*
X270495238Y-132600000D01*
X270447619Y-132647619D01*
X269733333Y-132552380D02*
X269733333Y-133266666D01*
X269780952Y-133409523D01*
X269876190Y-133504761D01*
X270019047Y-133552380D01*
X270114285Y-133552380D01*
X268780952Y-133552380D02*
X269257142Y-133552380D01*
X269257142Y-132552380D01*
X267876190Y-133457142D02*
X267923809Y-133504761D01*
X268066666Y-133552380D01*
X268161904Y-133552380D01*
X268304761Y-133504761D01*
X268400000Y-133409523D01*
X268447619Y-133314285D01*
X268495238Y-133123809D01*
X268495238Y-132980952D01*
X268447619Y-132790476D01*
X268400000Y-132695238D01*
X268304761Y-132600000D01*
X268161904Y-132552380D01*
X268066666Y-132552380D01*
X267923809Y-132600000D01*
X267876190Y-132647619D01*
X267161904Y-132552380D02*
X267161904Y-133266666D01*
X267209523Y-133409523D01*
X267304761Y-133504761D01*
X267447619Y-133552380D01*
X267542857Y-133552380D01*
X266209523Y-133552380D02*
X266685714Y-133552380D01*
X266685714Y-132552380D01*
X265304761Y-133457142D02*
X265352380Y-133504761D01*
X265495238Y-133552380D01*
X265590476Y-133552380D01*
X265733333Y-133504761D01*
X265828571Y-133409523D01*
X265876190Y-133314285D01*
X265923809Y-133123809D01*
X265923809Y-132980952D01*
X265876190Y-132790476D01*
X265828571Y-132695238D01*
X265733333Y-132600000D01*
X265590476Y-132552380D01*
X265495238Y-132552380D01*
X265352380Y-132600000D01*
X265304761Y-132647619D01*
X264590476Y-132552380D02*
X264590476Y-133266666D01*
X264638095Y-133409523D01*
X264733333Y-133504761D01*
X264876190Y-133552380D01*
X264971428Y-133552380D01*
X263638095Y-133552380D02*
X264114285Y-133552380D01*
X264114285Y-132552380D01*
X262733333Y-133457142D02*
X262780952Y-133504761D01*
X262923809Y-133552380D01*
X263019047Y-133552380D01*
X263161904Y-133504761D01*
X263257142Y-133409523D01*
X263304761Y-133314285D01*
X263352380Y-133123809D01*
X263352380Y-132980952D01*
X263304761Y-132790476D01*
X263257142Y-132695238D01*
X263161904Y-132600000D01*
X263019047Y-132552380D01*
X262923809Y-132552380D01*
X262780952Y-132600000D01*
X262733333Y-132647619D01*
X262019047Y-132552380D02*
X262019047Y-133266666D01*
X262066666Y-133409523D01*
X262161904Y-133504761D01*
X262304761Y-133552380D01*
X262400000Y-133552380D01*
X261066666Y-133552380D02*
X261542857Y-133552380D01*
X261542857Y-132552380D01*
X260161904Y-133457142D02*
X260209523Y-133504761D01*
X260352380Y-133552380D01*
X260447619Y-133552380D01*
X260590476Y-133504761D01*
X260685714Y-133409523D01*
X260733333Y-133314285D01*
X260780952Y-133123809D01*
X260780952Y-132980952D01*
X260733333Y-132790476D01*
X260685714Y-132695238D01*
X260590476Y-132600000D01*
X260447619Y-132552380D01*
X260352380Y-132552380D01*
X260209523Y-132600000D01*
X260161904Y-132647619D01*
M02*
