M48
; DRILL file {KiCad (5.1.9)-1} date 05/09/21 12:40:07
; FORMAT={-:-/ absolute / inch / decimal}
; #@! TF.CreationDate,2021-05-09T12:40:07+03:00
; #@! TF.GenerationSoftware,Kicad,Pcbnew,(5.1.9)-1
FMAT,2
INCH
T1C0.0157
T2C0.0374
T3C0.0394
T4C0.0630
%
G90
G05
T1
X1.122Y-3.3819
X1.1969Y-3.0472
X1.1969Y-4.1929
X1.248Y-4.2126
X1.2992Y-3.0512
X1.2992Y-4.3031
X1.3268Y-2.5197
X1.3583Y-4.4528
X1.378Y-2.6181
X1.4213Y-2.6024
X1.4409Y-3.0512
X1.4646Y-2.4094
X1.5Y-2.3425
X1.5039Y-2.4094
X1.5394Y-3.0472
X1.6102Y-2.6969
X1.6102Y-2.8396
X1.6102Y-2.9055
X1.622Y-2.626
X1.6772Y-3.0472
X1.7264Y-3.372
X1.7795Y-3.0472
X1.7992Y-4.1929
X1.8504Y-4.2165
X1.8976Y-4.3071
X2.0551Y-2.378
X2.1063Y-2.4094
X2.1535Y-2.4409
X2.323Y-3.3817
X2.3976Y-4.1969
X2.4567Y-4.2165
X2.5Y-4.3031
X2.9274Y-3.3876
X2.9961Y-3.0472
X3.0Y-4.1929
X3.0591Y-4.2244
X3.0945Y-3.0472
X3.0984Y-4.3071
X3.1193Y-2.5201
X3.1705Y-2.6185
X3.2126Y-2.6063
X3.2323Y-3.0472
X3.2618Y-2.4154
X3.2835Y-2.3543
X3.2959Y-2.3146
X3.3386Y-3.0472
X3.4094Y-2.6969
X3.4134Y-2.622
X3.4685Y-3.0472
X3.5317Y-3.3778
X3.5709Y-3.0472
X3.6102Y-4.185
X3.6732Y-4.2244
X3.6811Y-2.4134
X3.7087Y-4.3071
X3.748Y-2.6969
X3.8031Y-2.4567
X4.136Y-3.3801
X4.2087Y-4.189
X4.2126Y-3.0315
X4.2148Y-2.9821
X4.2165Y-2.7835
X4.2165Y-2.8819
X4.2165Y-2.9291
X4.2179Y-2.8321
X4.2677Y-4.2244
X4.3071Y-4.3071
X4.3825Y-3.0821
X4.4567Y-3.0551
X4.7274Y-3.3789
X4.7362Y-2.7795
X4.7362Y-2.8268
X4.7362Y-2.878
X4.7362Y-2.9291
X4.7362Y-2.9803
X4.7362Y-3.0315
X4.7362Y-3.0827
X4.7362Y-3.1299
X4.8031Y-4.1772
X4.8819Y-4.2205
X4.9016Y-4.315
X4.9094Y-2.4764
X4.9921Y-2.5827
X5.0Y-2.4764
X5.0591Y-2.5118
X5.1024Y-2.8228
X5.2362Y-2.437
X5.3317Y-3.375
X5.3425Y-2.5472
X5.4055Y-4.185
X5.4843Y-4.2126
X5.5039Y-4.315
X5.5157Y-3.0512
X5.622Y-3.0512
X5.6402Y-2.5197
X5.6913Y-2.6181
X5.7323Y-2.6063
X5.7559Y-3.0512
X5.7756Y-2.4094
X5.8155Y-2.4099
X5.857Y-2.4111
X5.8583Y-3.0512
X5.8661Y-2.2717
X5.9254Y-3.3817
X5.9291Y-2.6969
X5.9921Y-3.0512
X6.0Y-4.189
X6.0551Y-4.2244
X6.1024Y-3.0512
X6.1024Y-4.315
X6.2087Y-2.4134
X6.5297Y-3.3915
X6.6024Y-4.185
X6.6654Y-4.2165
X6.7008Y-4.311
X6.9646Y-3.0472
X7.0669Y-3.0472
X7.0917Y-2.5177
X7.1305Y-3.3813
X7.1429Y-2.6161
X7.185Y-2.6024
X7.2087Y-3.0472
X7.2087Y-4.1772
X7.2283Y-2.4094
X7.2559Y-4.2205
X7.2835Y-2.4094
X7.3071Y-3.0472
X7.3071Y-4.311
X7.3189Y-2.2717
X7.3819Y-2.6969
X7.3858Y-2.626
X7.4409Y-3.0472
X7.5472Y-3.0472
X7.7348Y-3.3844
X7.8071Y-4.1772
X7.8661Y-4.2244
X7.9055Y-4.315
X8.4252Y-3.378
X8.4803Y-4.1339
X8.5394Y-4.3583
X9.0252Y-3.3803
X9.0866Y-4.1339
X9.1457Y-4.3583
X9.6256Y-3.3736
X9.6807Y-4.1331
X9.7398Y-4.3575
X10.2256Y-3.3752
X10.287Y-4.1331
X10.3461Y-4.3575
T2
X1.8583Y-2.2677
X1.9567Y-2.2677
X2.0551Y-2.2677
X2.1535Y-2.2677
T3
X3.7291Y-2.2047
X3.7291Y-2.3047
X3.8291Y-2.2047
X3.8291Y-2.3047
X3.9291Y-2.2047
X3.9291Y-2.3047
X4.0291Y-2.2047
X4.0291Y-2.3047
X4.1291Y-2.2047
X4.1291Y-2.3047
X4.2291Y-2.2047
X4.2291Y-2.3047
X4.3291Y-2.2047
X4.3291Y-2.3047
X4.4291Y-2.2047
X4.4291Y-2.3047
X4.5362Y-2.2047
X4.5362Y-2.3047
X4.6362Y-2.2047
X4.6362Y-2.3047
X4.7362Y-2.2047
X4.7362Y-2.3047
X4.8362Y-2.2047
X4.8362Y-2.3047
X4.9362Y-2.2047
X4.9362Y-2.3047
X5.0362Y-2.2047
X5.0362Y-2.3047
X5.1362Y-2.2047
X5.1362Y-2.3047
X5.2362Y-2.2047
X5.2362Y-2.3047
T4
X1.2224Y-4.6339
X1.5224Y-4.6339
X1.8224Y-4.6339
X2.1224Y-4.6339
X2.4213Y-4.6339
X2.7213Y-4.6339
X3.0213Y-4.6339
X3.3213Y-4.6339
X3.622Y-4.6339
X3.922Y-4.6339
X4.222Y-4.6339
X4.522Y-4.6339
X4.8228Y-4.6339
X5.1228Y-4.6339
X5.4228Y-4.6339
X5.7228Y-4.6339
X6.0236Y-4.6339
X6.3236Y-4.6339
X6.6236Y-4.6339
X6.9236Y-4.6339
X7.2244Y-4.6339
X7.5244Y-4.6339
X7.8244Y-4.6339
X8.1244Y-4.6339
X8.4252Y-4.6339
X8.7252Y-4.6339
X9.0252Y-4.6339
X9.3252Y-4.6339
X9.626Y-4.6339
X9.926Y-4.6339
X10.226Y-4.6339
X10.526Y-4.6339
T0
M30
