%TF.GenerationSoftware,KiCad,Pcbnew,(5.1.9)-1*%
%TF.CreationDate,2021-05-09T12:40:11+03:00*%
%TF.ProjectId,16ch_fet_board,31366368-5f66-4657-945f-626f6172642e,2.0*%
%TF.SameCoordinates,Original*%
%TF.FileFunction,Paste,Top*%
%TF.FilePolarity,Positive*%
%FSLAX46Y46*%
G04 Gerber Fmt 4.6, Leading zero omitted, Abs format (unit mm)*
G04 Created by KiCad (PCBNEW (5.1.9)-1) date 2021-05-09 12:40:11*
%MOMM*%
%LPD*%
G01*
G04 APERTURE LIST*
%ADD10C,0.010000*%
%ADD11R,0.950000X0.950000*%
%ADD12C,0.100000*%
%ADD13R,0.990000X0.405000*%
%ADD14R,0.990000X0.340000*%
%ADD15R,0.340000X0.990000*%
%ADD16R,2.100000X1.450000*%
G04 APERTURE END LIST*
D10*
%TO.C,U5*%
G36*
X38580000Y-64980000D02*
G01*
X37220000Y-64980000D01*
X37220000Y-63620000D01*
X38580000Y-63620000D01*
X38580000Y-64980000D01*
G37*
X38580000Y-64980000D02*
X37220000Y-64980000D01*
X37220000Y-63620000D01*
X38580000Y-63620000D01*
X38580000Y-64980000D01*
%TO.C,U4*%
G36*
X84110000Y-64990000D02*
G01*
X82750000Y-64990000D01*
X82750000Y-63630000D01*
X84110000Y-63630000D01*
X84110000Y-64990000D01*
G37*
X84110000Y-64990000D02*
X82750000Y-64990000D01*
X82750000Y-63630000D01*
X84110000Y-63630000D01*
X84110000Y-64990000D01*
%TO.C,U3*%
G36*
X185010000Y-64930000D02*
G01*
X183650000Y-64930000D01*
X183650000Y-63570000D01*
X185010000Y-63570000D01*
X185010000Y-64930000D01*
G37*
X185010000Y-64930000D02*
X183650000Y-64930000D01*
X183650000Y-63570000D01*
X185010000Y-63570000D01*
X185010000Y-64930000D01*
%TO.C,U2*%
G36*
X148140000Y-64980000D02*
G01*
X146780000Y-64980000D01*
X146780000Y-63620000D01*
X148140000Y-63620000D01*
X148140000Y-64980000D01*
G37*
X148140000Y-64980000D02*
X146780000Y-64980000D01*
X146780000Y-63620000D01*
X148140000Y-63620000D01*
X148140000Y-64980000D01*
%TD*%
%TO.C,R98*%
G36*
G01*
X48005000Y-110580000D02*
X48385000Y-110580000D01*
G75*
G02*
X48575000Y-110770000I0J-190000D01*
G01*
X48575000Y-111790000D01*
G75*
G02*
X48385000Y-111980000I-190000J0D01*
G01*
X48005000Y-111980000D01*
G75*
G02*
X47815000Y-111790000I0J190000D01*
G01*
X47815000Y-110770000D01*
G75*
G02*
X48005000Y-110580000I190000J0D01*
G01*
G37*
G36*
G01*
X45366200Y-103720000D02*
X45943800Y-103720000D01*
G75*
G02*
X46035000Y-103811200I0J-91200D01*
G01*
X46035000Y-105028800D01*
G75*
G02*
X45943800Y-105120000I-91200J0D01*
G01*
X45366200Y-105120000D01*
G75*
G02*
X45275000Y-105028800I0J91200D01*
G01*
X45275000Y-103811200D01*
G75*
G02*
X45366200Y-103720000I91200J0D01*
G01*
G37*
G36*
G01*
X45518600Y-109690000D02*
X47061400Y-109690000D01*
G75*
G02*
X47305000Y-109933600I0J-243600D01*
G01*
X47305000Y-111736400D01*
G75*
G02*
X47061400Y-111980000I-243600J0D01*
G01*
X45518600Y-111980000D01*
G75*
G02*
X45275000Y-111736400I0J243600D01*
G01*
X45275000Y-109933600D01*
G75*
G02*
X45518600Y-109690000I243600J0D01*
G01*
G37*
G36*
G01*
X46788600Y-103720000D02*
X48331400Y-103720000D01*
G75*
G02*
X48575000Y-103963600I0J-243600D01*
G01*
X48575000Y-105766400D01*
G75*
G02*
X48331400Y-106010000I-243600J0D01*
G01*
X46788600Y-106010000D01*
G75*
G02*
X46545000Y-105766400I0J243600D01*
G01*
X46545000Y-103963600D01*
G75*
G02*
X46788600Y-103720000I243600J0D01*
G01*
G37*
%TD*%
%TO.C,R97*%
G36*
G01*
X32765000Y-110580000D02*
X33145000Y-110580000D01*
G75*
G02*
X33335000Y-110770000I0J-190000D01*
G01*
X33335000Y-111790000D01*
G75*
G02*
X33145000Y-111980000I-190000J0D01*
G01*
X32765000Y-111980000D01*
G75*
G02*
X32575000Y-111790000I0J190000D01*
G01*
X32575000Y-110770000D01*
G75*
G02*
X32765000Y-110580000I190000J0D01*
G01*
G37*
G36*
G01*
X30126200Y-103720000D02*
X30703800Y-103720000D01*
G75*
G02*
X30795000Y-103811200I0J-91200D01*
G01*
X30795000Y-105028800D01*
G75*
G02*
X30703800Y-105120000I-91200J0D01*
G01*
X30126200Y-105120000D01*
G75*
G02*
X30035000Y-105028800I0J91200D01*
G01*
X30035000Y-103811200D01*
G75*
G02*
X30126200Y-103720000I91200J0D01*
G01*
G37*
G36*
G01*
X30278600Y-109690000D02*
X31821400Y-109690000D01*
G75*
G02*
X32065000Y-109933600I0J-243600D01*
G01*
X32065000Y-111736400D01*
G75*
G02*
X31821400Y-111980000I-243600J0D01*
G01*
X30278600Y-111980000D01*
G75*
G02*
X30035000Y-111736400I0J243600D01*
G01*
X30035000Y-109933600D01*
G75*
G02*
X30278600Y-109690000I243600J0D01*
G01*
G37*
G36*
G01*
X31548600Y-103720000D02*
X33091400Y-103720000D01*
G75*
G02*
X33335000Y-103963600I0J-243600D01*
G01*
X33335000Y-105766400D01*
G75*
G02*
X33091400Y-106010000I-243600J0D01*
G01*
X31548600Y-106010000D01*
G75*
G02*
X31305000Y-105766400I0J243600D01*
G01*
X31305000Y-103963600D01*
G75*
G02*
X31548600Y-103720000I243600J0D01*
G01*
G37*
%TD*%
%TO.C,R50*%
G36*
G01*
X200620000Y-110605000D02*
X201000000Y-110605000D01*
G75*
G02*
X201190000Y-110795000I0J-190000D01*
G01*
X201190000Y-111815000D01*
G75*
G02*
X201000000Y-112005000I-190000J0D01*
G01*
X200620000Y-112005000D01*
G75*
G02*
X200430000Y-111815000I0J190000D01*
G01*
X200430000Y-110795000D01*
G75*
G02*
X200620000Y-110605000I190000J0D01*
G01*
G37*
G36*
G01*
X197981200Y-103745000D02*
X198558800Y-103745000D01*
G75*
G02*
X198650000Y-103836200I0J-91200D01*
G01*
X198650000Y-105053800D01*
G75*
G02*
X198558800Y-105145000I-91200J0D01*
G01*
X197981200Y-105145000D01*
G75*
G02*
X197890000Y-105053800I0J91200D01*
G01*
X197890000Y-103836200D01*
G75*
G02*
X197981200Y-103745000I91200J0D01*
G01*
G37*
G36*
G01*
X198133600Y-109715000D02*
X199676400Y-109715000D01*
G75*
G02*
X199920000Y-109958600I0J-243600D01*
G01*
X199920000Y-111761400D01*
G75*
G02*
X199676400Y-112005000I-243600J0D01*
G01*
X198133600Y-112005000D01*
G75*
G02*
X197890000Y-111761400I0J243600D01*
G01*
X197890000Y-109958600D01*
G75*
G02*
X198133600Y-109715000I243600J0D01*
G01*
G37*
G36*
G01*
X199403600Y-103745000D02*
X200946400Y-103745000D01*
G75*
G02*
X201190000Y-103988600I0J-243600D01*
G01*
X201190000Y-105791400D01*
G75*
G02*
X200946400Y-106035000I-243600J0D01*
G01*
X199403600Y-106035000D01*
G75*
G02*
X199160000Y-105791400I0J243600D01*
G01*
X199160000Y-103988600D01*
G75*
G02*
X199403600Y-103745000I243600J0D01*
G01*
G37*
%TD*%
%TO.C,R49*%
G36*
G01*
X185380000Y-110605000D02*
X185760000Y-110605000D01*
G75*
G02*
X185950000Y-110795000I0J-190000D01*
G01*
X185950000Y-111815000D01*
G75*
G02*
X185760000Y-112005000I-190000J0D01*
G01*
X185380000Y-112005000D01*
G75*
G02*
X185190000Y-111815000I0J190000D01*
G01*
X185190000Y-110795000D01*
G75*
G02*
X185380000Y-110605000I190000J0D01*
G01*
G37*
G36*
G01*
X182741200Y-103745000D02*
X183318800Y-103745000D01*
G75*
G02*
X183410000Y-103836200I0J-91200D01*
G01*
X183410000Y-105053800D01*
G75*
G02*
X183318800Y-105145000I-91200J0D01*
G01*
X182741200Y-105145000D01*
G75*
G02*
X182650000Y-105053800I0J91200D01*
G01*
X182650000Y-103836200D01*
G75*
G02*
X182741200Y-103745000I91200J0D01*
G01*
G37*
G36*
G01*
X182893600Y-109715000D02*
X184436400Y-109715000D01*
G75*
G02*
X184680000Y-109958600I0J-243600D01*
G01*
X184680000Y-111761400D01*
G75*
G02*
X184436400Y-112005000I-243600J0D01*
G01*
X182893600Y-112005000D01*
G75*
G02*
X182650000Y-111761400I0J243600D01*
G01*
X182650000Y-109958600D01*
G75*
G02*
X182893600Y-109715000I243600J0D01*
G01*
G37*
G36*
G01*
X184163600Y-103745000D02*
X185706400Y-103745000D01*
G75*
G02*
X185950000Y-103988600I0J-243600D01*
G01*
X185950000Y-105791400D01*
G75*
G02*
X185706400Y-106035000I-243600J0D01*
G01*
X184163600Y-106035000D01*
G75*
G02*
X183920000Y-105791400I0J243600D01*
G01*
X183920000Y-103988600D01*
G75*
G02*
X184163600Y-103745000I243600J0D01*
G01*
G37*
%TD*%
%TO.C,R40*%
G36*
G01*
X170010000Y-110615000D02*
X170390000Y-110615000D01*
G75*
G02*
X170580000Y-110805000I0J-190000D01*
G01*
X170580000Y-111825000D01*
G75*
G02*
X170390000Y-112015000I-190000J0D01*
G01*
X170010000Y-112015000D01*
G75*
G02*
X169820000Y-111825000I0J190000D01*
G01*
X169820000Y-110805000D01*
G75*
G02*
X170010000Y-110615000I190000J0D01*
G01*
G37*
G36*
G01*
X167371200Y-103755000D02*
X167948800Y-103755000D01*
G75*
G02*
X168040000Y-103846200I0J-91200D01*
G01*
X168040000Y-105063800D01*
G75*
G02*
X167948800Y-105155000I-91200J0D01*
G01*
X167371200Y-105155000D01*
G75*
G02*
X167280000Y-105063800I0J91200D01*
G01*
X167280000Y-103846200D01*
G75*
G02*
X167371200Y-103755000I91200J0D01*
G01*
G37*
G36*
G01*
X167523600Y-109725000D02*
X169066400Y-109725000D01*
G75*
G02*
X169310000Y-109968600I0J-243600D01*
G01*
X169310000Y-111771400D01*
G75*
G02*
X169066400Y-112015000I-243600J0D01*
G01*
X167523600Y-112015000D01*
G75*
G02*
X167280000Y-111771400I0J243600D01*
G01*
X167280000Y-109968600D01*
G75*
G02*
X167523600Y-109725000I243600J0D01*
G01*
G37*
G36*
G01*
X168793600Y-103755000D02*
X170336400Y-103755000D01*
G75*
G02*
X170580000Y-103998600I0J-243600D01*
G01*
X170580000Y-105801400D01*
G75*
G02*
X170336400Y-106045000I-243600J0D01*
G01*
X168793600Y-106045000D01*
G75*
G02*
X168550000Y-105801400I0J243600D01*
G01*
X168550000Y-103998600D01*
G75*
G02*
X168793600Y-103755000I243600J0D01*
G01*
G37*
%TD*%
%TO.C,R39*%
G36*
G01*
X154770000Y-110615000D02*
X155150000Y-110615000D01*
G75*
G02*
X155340000Y-110805000I0J-190000D01*
G01*
X155340000Y-111825000D01*
G75*
G02*
X155150000Y-112015000I-190000J0D01*
G01*
X154770000Y-112015000D01*
G75*
G02*
X154580000Y-111825000I0J190000D01*
G01*
X154580000Y-110805000D01*
G75*
G02*
X154770000Y-110615000I190000J0D01*
G01*
G37*
G36*
G01*
X152131200Y-103755000D02*
X152708800Y-103755000D01*
G75*
G02*
X152800000Y-103846200I0J-91200D01*
G01*
X152800000Y-105063800D01*
G75*
G02*
X152708800Y-105155000I-91200J0D01*
G01*
X152131200Y-105155000D01*
G75*
G02*
X152040000Y-105063800I0J91200D01*
G01*
X152040000Y-103846200D01*
G75*
G02*
X152131200Y-103755000I91200J0D01*
G01*
G37*
G36*
G01*
X152283600Y-109725000D02*
X153826400Y-109725000D01*
G75*
G02*
X154070000Y-109968600I0J-243600D01*
G01*
X154070000Y-111771400D01*
G75*
G02*
X153826400Y-112015000I-243600J0D01*
G01*
X152283600Y-112015000D01*
G75*
G02*
X152040000Y-111771400I0J243600D01*
G01*
X152040000Y-109968600D01*
G75*
G02*
X152283600Y-109725000I243600J0D01*
G01*
G37*
G36*
G01*
X153553600Y-103755000D02*
X155096400Y-103755000D01*
G75*
G02*
X155340000Y-103998600I0J-243600D01*
G01*
X155340000Y-105801400D01*
G75*
G02*
X155096400Y-106045000I-243600J0D01*
G01*
X153553600Y-106045000D01*
G75*
G02*
X153310000Y-105801400I0J243600D01*
G01*
X153310000Y-103998600D01*
G75*
G02*
X153553600Y-103755000I243600J0D01*
G01*
G37*
%TD*%
%TO.C,R30*%
G36*
G01*
X139580000Y-110605000D02*
X139960000Y-110605000D01*
G75*
G02*
X140150000Y-110795000I0J-190000D01*
G01*
X140150000Y-111815000D01*
G75*
G02*
X139960000Y-112005000I-190000J0D01*
G01*
X139580000Y-112005000D01*
G75*
G02*
X139390000Y-111815000I0J190000D01*
G01*
X139390000Y-110795000D01*
G75*
G02*
X139580000Y-110605000I190000J0D01*
G01*
G37*
G36*
G01*
X136941200Y-103745000D02*
X137518800Y-103745000D01*
G75*
G02*
X137610000Y-103836200I0J-91200D01*
G01*
X137610000Y-105053800D01*
G75*
G02*
X137518800Y-105145000I-91200J0D01*
G01*
X136941200Y-105145000D01*
G75*
G02*
X136850000Y-105053800I0J91200D01*
G01*
X136850000Y-103836200D01*
G75*
G02*
X136941200Y-103745000I91200J0D01*
G01*
G37*
G36*
G01*
X137093600Y-109715000D02*
X138636400Y-109715000D01*
G75*
G02*
X138880000Y-109958600I0J-243600D01*
G01*
X138880000Y-111761400D01*
G75*
G02*
X138636400Y-112005000I-243600J0D01*
G01*
X137093600Y-112005000D01*
G75*
G02*
X136850000Y-111761400I0J243600D01*
G01*
X136850000Y-109958600D01*
G75*
G02*
X137093600Y-109715000I243600J0D01*
G01*
G37*
G36*
G01*
X138363600Y-103745000D02*
X139906400Y-103745000D01*
G75*
G02*
X140150000Y-103988600I0J-243600D01*
G01*
X140150000Y-105791400D01*
G75*
G02*
X139906400Y-106035000I-243600J0D01*
G01*
X138363600Y-106035000D01*
G75*
G02*
X138120000Y-105791400I0J243600D01*
G01*
X138120000Y-103988600D01*
G75*
G02*
X138363600Y-103745000I243600J0D01*
G01*
G37*
%TD*%
%TO.C,R29*%
G36*
G01*
X124340000Y-110605000D02*
X124720000Y-110605000D01*
G75*
G02*
X124910000Y-110795000I0J-190000D01*
G01*
X124910000Y-111815000D01*
G75*
G02*
X124720000Y-112005000I-190000J0D01*
G01*
X124340000Y-112005000D01*
G75*
G02*
X124150000Y-111815000I0J190000D01*
G01*
X124150000Y-110795000D01*
G75*
G02*
X124340000Y-110605000I190000J0D01*
G01*
G37*
G36*
G01*
X121701200Y-103745000D02*
X122278800Y-103745000D01*
G75*
G02*
X122370000Y-103836200I0J-91200D01*
G01*
X122370000Y-105053800D01*
G75*
G02*
X122278800Y-105145000I-91200J0D01*
G01*
X121701200Y-105145000D01*
G75*
G02*
X121610000Y-105053800I0J91200D01*
G01*
X121610000Y-103836200D01*
G75*
G02*
X121701200Y-103745000I91200J0D01*
G01*
G37*
G36*
G01*
X121853600Y-109715000D02*
X123396400Y-109715000D01*
G75*
G02*
X123640000Y-109958600I0J-243600D01*
G01*
X123640000Y-111761400D01*
G75*
G02*
X123396400Y-112005000I-243600J0D01*
G01*
X121853600Y-112005000D01*
G75*
G02*
X121610000Y-111761400I0J243600D01*
G01*
X121610000Y-109958600D01*
G75*
G02*
X121853600Y-109715000I243600J0D01*
G01*
G37*
G36*
G01*
X123123600Y-103745000D02*
X124666400Y-103745000D01*
G75*
G02*
X124910000Y-103988600I0J-243600D01*
G01*
X124910000Y-105791400D01*
G75*
G02*
X124666400Y-106035000I-243600J0D01*
G01*
X123123600Y-106035000D01*
G75*
G02*
X122880000Y-105791400I0J243600D01*
G01*
X122880000Y-103988600D01*
G75*
G02*
X123123600Y-103745000I243600J0D01*
G01*
G37*
%TD*%
%TO.C,R20*%
G36*
G01*
X109210000Y-110615000D02*
X109590000Y-110615000D01*
G75*
G02*
X109780000Y-110805000I0J-190000D01*
G01*
X109780000Y-111825000D01*
G75*
G02*
X109590000Y-112015000I-190000J0D01*
G01*
X109210000Y-112015000D01*
G75*
G02*
X109020000Y-111825000I0J190000D01*
G01*
X109020000Y-110805000D01*
G75*
G02*
X109210000Y-110615000I190000J0D01*
G01*
G37*
G36*
G01*
X106571200Y-103755000D02*
X107148800Y-103755000D01*
G75*
G02*
X107240000Y-103846200I0J-91200D01*
G01*
X107240000Y-105063800D01*
G75*
G02*
X107148800Y-105155000I-91200J0D01*
G01*
X106571200Y-105155000D01*
G75*
G02*
X106480000Y-105063800I0J91200D01*
G01*
X106480000Y-103846200D01*
G75*
G02*
X106571200Y-103755000I91200J0D01*
G01*
G37*
G36*
G01*
X106723600Y-109725000D02*
X108266400Y-109725000D01*
G75*
G02*
X108510000Y-109968600I0J-243600D01*
G01*
X108510000Y-111771400D01*
G75*
G02*
X108266400Y-112015000I-243600J0D01*
G01*
X106723600Y-112015000D01*
G75*
G02*
X106480000Y-111771400I0J243600D01*
G01*
X106480000Y-109968600D01*
G75*
G02*
X106723600Y-109725000I243600J0D01*
G01*
G37*
G36*
G01*
X107993600Y-103755000D02*
X109536400Y-103755000D01*
G75*
G02*
X109780000Y-103998600I0J-243600D01*
G01*
X109780000Y-105801400D01*
G75*
G02*
X109536400Y-106045000I-243600J0D01*
G01*
X107993600Y-106045000D01*
G75*
G02*
X107750000Y-105801400I0J243600D01*
G01*
X107750000Y-103998600D01*
G75*
G02*
X107993600Y-103755000I243600J0D01*
G01*
G37*
%TD*%
%TO.C,R19*%
G36*
G01*
X93970000Y-110615000D02*
X94350000Y-110615000D01*
G75*
G02*
X94540000Y-110805000I0J-190000D01*
G01*
X94540000Y-111825000D01*
G75*
G02*
X94350000Y-112015000I-190000J0D01*
G01*
X93970000Y-112015000D01*
G75*
G02*
X93780000Y-111825000I0J190000D01*
G01*
X93780000Y-110805000D01*
G75*
G02*
X93970000Y-110615000I190000J0D01*
G01*
G37*
G36*
G01*
X91331200Y-103755000D02*
X91908800Y-103755000D01*
G75*
G02*
X92000000Y-103846200I0J-91200D01*
G01*
X92000000Y-105063800D01*
G75*
G02*
X91908800Y-105155000I-91200J0D01*
G01*
X91331200Y-105155000D01*
G75*
G02*
X91240000Y-105063800I0J91200D01*
G01*
X91240000Y-103846200D01*
G75*
G02*
X91331200Y-103755000I91200J0D01*
G01*
G37*
G36*
G01*
X91483600Y-109725000D02*
X93026400Y-109725000D01*
G75*
G02*
X93270000Y-109968600I0J-243600D01*
G01*
X93270000Y-111771400D01*
G75*
G02*
X93026400Y-112015000I-243600J0D01*
G01*
X91483600Y-112015000D01*
G75*
G02*
X91240000Y-111771400I0J243600D01*
G01*
X91240000Y-109968600D01*
G75*
G02*
X91483600Y-109725000I243600J0D01*
G01*
G37*
G36*
G01*
X92753600Y-103755000D02*
X94296400Y-103755000D01*
G75*
G02*
X94540000Y-103998600I0J-243600D01*
G01*
X94540000Y-105801400D01*
G75*
G02*
X94296400Y-106045000I-243600J0D01*
G01*
X92753600Y-106045000D01*
G75*
G02*
X92510000Y-105801400I0J243600D01*
G01*
X92510000Y-103998600D01*
G75*
G02*
X92753600Y-103755000I243600J0D01*
G01*
G37*
%TD*%
%TO.C,R10*%
G36*
G01*
X78510000Y-110605000D02*
X78890000Y-110605000D01*
G75*
G02*
X79080000Y-110795000I0J-190000D01*
G01*
X79080000Y-111815000D01*
G75*
G02*
X78890000Y-112005000I-190000J0D01*
G01*
X78510000Y-112005000D01*
G75*
G02*
X78320000Y-111815000I0J190000D01*
G01*
X78320000Y-110795000D01*
G75*
G02*
X78510000Y-110605000I190000J0D01*
G01*
G37*
G36*
G01*
X75871200Y-103745000D02*
X76448800Y-103745000D01*
G75*
G02*
X76540000Y-103836200I0J-91200D01*
G01*
X76540000Y-105053800D01*
G75*
G02*
X76448800Y-105145000I-91200J0D01*
G01*
X75871200Y-105145000D01*
G75*
G02*
X75780000Y-105053800I0J91200D01*
G01*
X75780000Y-103836200D01*
G75*
G02*
X75871200Y-103745000I91200J0D01*
G01*
G37*
G36*
G01*
X76023600Y-109715000D02*
X77566400Y-109715000D01*
G75*
G02*
X77810000Y-109958600I0J-243600D01*
G01*
X77810000Y-111761400D01*
G75*
G02*
X77566400Y-112005000I-243600J0D01*
G01*
X76023600Y-112005000D01*
G75*
G02*
X75780000Y-111761400I0J243600D01*
G01*
X75780000Y-109958600D01*
G75*
G02*
X76023600Y-109715000I243600J0D01*
G01*
G37*
G36*
G01*
X77293600Y-103745000D02*
X78836400Y-103745000D01*
G75*
G02*
X79080000Y-103988600I0J-243600D01*
G01*
X79080000Y-105791400D01*
G75*
G02*
X78836400Y-106035000I-243600J0D01*
G01*
X77293600Y-106035000D01*
G75*
G02*
X77050000Y-105791400I0J243600D01*
G01*
X77050000Y-103988600D01*
G75*
G02*
X77293600Y-103745000I243600J0D01*
G01*
G37*
%TD*%
%TO.C,R9*%
G36*
G01*
X63270000Y-110605000D02*
X63650000Y-110605000D01*
G75*
G02*
X63840000Y-110795000I0J-190000D01*
G01*
X63840000Y-111815000D01*
G75*
G02*
X63650000Y-112005000I-190000J0D01*
G01*
X63270000Y-112005000D01*
G75*
G02*
X63080000Y-111815000I0J190000D01*
G01*
X63080000Y-110795000D01*
G75*
G02*
X63270000Y-110605000I190000J0D01*
G01*
G37*
G36*
G01*
X60631200Y-103745000D02*
X61208800Y-103745000D01*
G75*
G02*
X61300000Y-103836200I0J-91200D01*
G01*
X61300000Y-105053800D01*
G75*
G02*
X61208800Y-105145000I-91200J0D01*
G01*
X60631200Y-105145000D01*
G75*
G02*
X60540000Y-105053800I0J91200D01*
G01*
X60540000Y-103836200D01*
G75*
G02*
X60631200Y-103745000I91200J0D01*
G01*
G37*
G36*
G01*
X60783600Y-109715000D02*
X62326400Y-109715000D01*
G75*
G02*
X62570000Y-109958600I0J-243600D01*
G01*
X62570000Y-111761400D01*
G75*
G02*
X62326400Y-112005000I-243600J0D01*
G01*
X60783600Y-112005000D01*
G75*
G02*
X60540000Y-111761400I0J243600D01*
G01*
X60540000Y-109958600D01*
G75*
G02*
X60783600Y-109715000I243600J0D01*
G01*
G37*
G36*
G01*
X62053600Y-103745000D02*
X63596400Y-103745000D01*
G75*
G02*
X63840000Y-103988600I0J-243600D01*
G01*
X63840000Y-105791400D01*
G75*
G02*
X63596400Y-106035000I-243600J0D01*
G01*
X62053600Y-106035000D01*
G75*
G02*
X61810000Y-105791400I0J243600D01*
G01*
X61810000Y-103988600D01*
G75*
G02*
X62053600Y-103745000I243600J0D01*
G01*
G37*
%TD*%
D11*
%TO.C,D3*%
X89655000Y-84285000D03*
X89655000Y-82785000D03*
%TD*%
D12*
%TO.C,Q16*%
G36*
X176385000Y-104397500D02*
G01*
X175875000Y-104397500D01*
X175875000Y-104652500D01*
X176385000Y-104652500D01*
X176385000Y-105057500D01*
X175875000Y-105057500D01*
X175875000Y-105312500D01*
X176385000Y-105312500D01*
X176385000Y-105717500D01*
X175875000Y-105717500D01*
X175875000Y-105972500D01*
X176385000Y-105972500D01*
X176385000Y-106380000D01*
X175625000Y-106380000D01*
X175625000Y-106302500D01*
X174150000Y-106302500D01*
X174150000Y-104067500D01*
X175625000Y-104067500D01*
X175625000Y-103990000D01*
X176385000Y-103990000D01*
X176385000Y-104397500D01*
G37*
D13*
X173020000Y-106175000D03*
X173020000Y-105515000D03*
X173020000Y-104855000D03*
X173020000Y-104195000D03*
%TD*%
D12*
%TO.C,Q15*%
G36*
X160985000Y-104397500D02*
G01*
X160475000Y-104397500D01*
X160475000Y-104652500D01*
X160985000Y-104652500D01*
X160985000Y-105057500D01*
X160475000Y-105057500D01*
X160475000Y-105312500D01*
X160985000Y-105312500D01*
X160985000Y-105717500D01*
X160475000Y-105717500D01*
X160475000Y-105972500D01*
X160985000Y-105972500D01*
X160985000Y-106380000D01*
X160225000Y-106380000D01*
X160225000Y-106302500D01*
X158750000Y-106302500D01*
X158750000Y-104067500D01*
X160225000Y-104067500D01*
X160225000Y-103990000D01*
X160985000Y-103990000D01*
X160985000Y-104397500D01*
G37*
D13*
X157620000Y-106175000D03*
X157620000Y-105515000D03*
X157620000Y-104855000D03*
X157620000Y-104195000D03*
%TD*%
D12*
%TO.C,Q14*%
G36*
X54380000Y-104362500D02*
G01*
X53870000Y-104362500D01*
X53870000Y-104617500D01*
X54380000Y-104617500D01*
X54380000Y-105022500D01*
X53870000Y-105022500D01*
X53870000Y-105277500D01*
X54380000Y-105277500D01*
X54380000Y-105682500D01*
X53870000Y-105682500D01*
X53870000Y-105937500D01*
X54380000Y-105937500D01*
X54380000Y-106345000D01*
X53620000Y-106345000D01*
X53620000Y-106267500D01*
X52145000Y-106267500D01*
X52145000Y-104032500D01*
X53620000Y-104032500D01*
X53620000Y-103955000D01*
X54380000Y-103955000D01*
X54380000Y-104362500D01*
G37*
D13*
X51015000Y-106140000D03*
X51015000Y-105480000D03*
X51015000Y-104820000D03*
X51015000Y-104160000D03*
%TD*%
D12*
%TO.C,Q13*%
G36*
X38980000Y-104362500D02*
G01*
X38470000Y-104362500D01*
X38470000Y-104617500D01*
X38980000Y-104617500D01*
X38980000Y-105022500D01*
X38470000Y-105022500D01*
X38470000Y-105277500D01*
X38980000Y-105277500D01*
X38980000Y-105682500D01*
X38470000Y-105682500D01*
X38470000Y-105937500D01*
X38980000Y-105937500D01*
X38980000Y-106345000D01*
X38220000Y-106345000D01*
X38220000Y-106267500D01*
X36745000Y-106267500D01*
X36745000Y-104032500D01*
X38220000Y-104032500D01*
X38220000Y-103955000D01*
X38980000Y-103955000D01*
X38980000Y-104362500D01*
G37*
D13*
X35615000Y-106140000D03*
X35615000Y-105480000D03*
X35615000Y-104820000D03*
X35615000Y-104160000D03*
%TD*%
D12*
%TO.C,Q12*%
G36*
X84885000Y-104387500D02*
G01*
X84375000Y-104387500D01*
X84375000Y-104642500D01*
X84885000Y-104642500D01*
X84885000Y-105047500D01*
X84375000Y-105047500D01*
X84375000Y-105302500D01*
X84885000Y-105302500D01*
X84885000Y-105707500D01*
X84375000Y-105707500D01*
X84375000Y-105962500D01*
X84885000Y-105962500D01*
X84885000Y-106370000D01*
X84125000Y-106370000D01*
X84125000Y-106292500D01*
X82650000Y-106292500D01*
X82650000Y-104057500D01*
X84125000Y-104057500D01*
X84125000Y-103980000D01*
X84885000Y-103980000D01*
X84885000Y-104387500D01*
G37*
D13*
X81520000Y-106165000D03*
X81520000Y-105505000D03*
X81520000Y-104845000D03*
X81520000Y-104185000D03*
%TD*%
D12*
%TO.C,Q11*%
G36*
X69485000Y-104387500D02*
G01*
X68975000Y-104387500D01*
X68975000Y-104642500D01*
X69485000Y-104642500D01*
X69485000Y-105047500D01*
X68975000Y-105047500D01*
X68975000Y-105302500D01*
X69485000Y-105302500D01*
X69485000Y-105707500D01*
X68975000Y-105707500D01*
X68975000Y-105962500D01*
X69485000Y-105962500D01*
X69485000Y-106370000D01*
X68725000Y-106370000D01*
X68725000Y-106292500D01*
X67250000Y-106292500D01*
X67250000Y-104057500D01*
X68725000Y-104057500D01*
X68725000Y-103980000D01*
X69485000Y-103980000D01*
X69485000Y-104387500D01*
G37*
D13*
X66120000Y-106165000D03*
X66120000Y-105505000D03*
X66120000Y-104845000D03*
X66120000Y-104185000D03*
%TD*%
D12*
%TO.C,Q10*%
G36*
X115585000Y-104397500D02*
G01*
X115075000Y-104397500D01*
X115075000Y-104652500D01*
X115585000Y-104652500D01*
X115585000Y-105057500D01*
X115075000Y-105057500D01*
X115075000Y-105312500D01*
X115585000Y-105312500D01*
X115585000Y-105717500D01*
X115075000Y-105717500D01*
X115075000Y-105972500D01*
X115585000Y-105972500D01*
X115585000Y-106380000D01*
X114825000Y-106380000D01*
X114825000Y-106302500D01*
X113350000Y-106302500D01*
X113350000Y-104067500D01*
X114825000Y-104067500D01*
X114825000Y-103990000D01*
X115585000Y-103990000D01*
X115585000Y-104397500D01*
G37*
D13*
X112220000Y-106175000D03*
X112220000Y-105515000D03*
X112220000Y-104855000D03*
X112220000Y-104195000D03*
%TD*%
D12*
%TO.C,Q9*%
G36*
X100185000Y-104397500D02*
G01*
X99675000Y-104397500D01*
X99675000Y-104652500D01*
X100185000Y-104652500D01*
X100185000Y-105057500D01*
X99675000Y-105057500D01*
X99675000Y-105312500D01*
X100185000Y-105312500D01*
X100185000Y-105717500D01*
X99675000Y-105717500D01*
X99675000Y-105972500D01*
X100185000Y-105972500D01*
X100185000Y-106380000D01*
X99425000Y-106380000D01*
X99425000Y-106302500D01*
X97950000Y-106302500D01*
X97950000Y-104067500D01*
X99425000Y-104067500D01*
X99425000Y-103990000D01*
X100185000Y-103990000D01*
X100185000Y-104397500D01*
G37*
D13*
X96820000Y-106175000D03*
X96820000Y-105515000D03*
X96820000Y-104855000D03*
X96820000Y-104195000D03*
%TD*%
D12*
%TO.C,Q8*%
G36*
X266120000Y-107492500D02*
G01*
X265610000Y-107492500D01*
X265610000Y-107747500D01*
X266120000Y-107747500D01*
X266120000Y-108152500D01*
X265610000Y-108152500D01*
X265610000Y-108407500D01*
X266120000Y-108407500D01*
X266120000Y-108812500D01*
X265610000Y-108812500D01*
X265610000Y-109067500D01*
X266120000Y-109067500D01*
X266120000Y-109475000D01*
X265360000Y-109475000D01*
X265360000Y-109397500D01*
X263885000Y-109397500D01*
X263885000Y-107162500D01*
X265360000Y-107162500D01*
X265360000Y-107085000D01*
X266120000Y-107085000D01*
X266120000Y-107492500D01*
G37*
D13*
X262755000Y-109270000D03*
X262755000Y-108610000D03*
X262755000Y-107950000D03*
X262755000Y-107290000D03*
%TD*%
D12*
%TO.C,Q7*%
G36*
X250720000Y-107492500D02*
G01*
X250210000Y-107492500D01*
X250210000Y-107747500D01*
X250720000Y-107747500D01*
X250720000Y-108152500D01*
X250210000Y-108152500D01*
X250210000Y-108407500D01*
X250720000Y-108407500D01*
X250720000Y-108812500D01*
X250210000Y-108812500D01*
X250210000Y-109067500D01*
X250720000Y-109067500D01*
X250720000Y-109475000D01*
X249960000Y-109475000D01*
X249960000Y-109397500D01*
X248485000Y-109397500D01*
X248485000Y-107162500D01*
X249960000Y-107162500D01*
X249960000Y-107085000D01*
X250720000Y-107085000D01*
X250720000Y-107492500D01*
G37*
D13*
X247355000Y-109270000D03*
X247355000Y-108610000D03*
X247355000Y-107950000D03*
X247355000Y-107290000D03*
%TD*%
D12*
%TO.C,Q6*%
G36*
X235630000Y-107512500D02*
G01*
X235120000Y-107512500D01*
X235120000Y-107767500D01*
X235630000Y-107767500D01*
X235630000Y-108172500D01*
X235120000Y-108172500D01*
X235120000Y-108427500D01*
X235630000Y-108427500D01*
X235630000Y-108832500D01*
X235120000Y-108832500D01*
X235120000Y-109087500D01*
X235630000Y-109087500D01*
X235630000Y-109495000D01*
X234870000Y-109495000D01*
X234870000Y-109417500D01*
X233395000Y-109417500D01*
X233395000Y-107182500D01*
X234870000Y-107182500D01*
X234870000Y-107105000D01*
X235630000Y-107105000D01*
X235630000Y-107512500D01*
G37*
D13*
X232265000Y-109290000D03*
X232265000Y-108630000D03*
X232265000Y-107970000D03*
X232265000Y-107310000D03*
%TD*%
D12*
%TO.C,Q5*%
G36*
X220230000Y-107512500D02*
G01*
X219720000Y-107512500D01*
X219720000Y-107767500D01*
X220230000Y-107767500D01*
X220230000Y-108172500D01*
X219720000Y-108172500D01*
X219720000Y-108427500D01*
X220230000Y-108427500D01*
X220230000Y-108832500D01*
X219720000Y-108832500D01*
X219720000Y-109087500D01*
X220230000Y-109087500D01*
X220230000Y-109495000D01*
X219470000Y-109495000D01*
X219470000Y-109417500D01*
X217995000Y-109417500D01*
X217995000Y-107182500D01*
X219470000Y-107182500D01*
X219470000Y-107105000D01*
X220230000Y-107105000D01*
X220230000Y-107512500D01*
G37*
D13*
X216865000Y-109290000D03*
X216865000Y-108630000D03*
X216865000Y-107970000D03*
X216865000Y-107310000D03*
%TD*%
D12*
%TO.C,Q4*%
G36*
X206995000Y-104387500D02*
G01*
X206485000Y-104387500D01*
X206485000Y-104642500D01*
X206995000Y-104642500D01*
X206995000Y-105047500D01*
X206485000Y-105047500D01*
X206485000Y-105302500D01*
X206995000Y-105302500D01*
X206995000Y-105707500D01*
X206485000Y-105707500D01*
X206485000Y-105962500D01*
X206995000Y-105962500D01*
X206995000Y-106370000D01*
X206235000Y-106370000D01*
X206235000Y-106292500D01*
X204760000Y-106292500D01*
X204760000Y-104057500D01*
X206235000Y-104057500D01*
X206235000Y-103980000D01*
X206995000Y-103980000D01*
X206995000Y-104387500D01*
G37*
D13*
X203630000Y-106165000D03*
X203630000Y-105505000D03*
X203630000Y-104845000D03*
X203630000Y-104185000D03*
%TD*%
D12*
%TO.C,Q3*%
G36*
X191595000Y-104387500D02*
G01*
X191085000Y-104387500D01*
X191085000Y-104642500D01*
X191595000Y-104642500D01*
X191595000Y-105047500D01*
X191085000Y-105047500D01*
X191085000Y-105302500D01*
X191595000Y-105302500D01*
X191595000Y-105707500D01*
X191085000Y-105707500D01*
X191085000Y-105962500D01*
X191595000Y-105962500D01*
X191595000Y-106370000D01*
X190835000Y-106370000D01*
X190835000Y-106292500D01*
X189360000Y-106292500D01*
X189360000Y-104057500D01*
X190835000Y-104057500D01*
X190835000Y-103980000D01*
X191595000Y-103980000D01*
X191595000Y-104387500D01*
G37*
D13*
X188230000Y-106165000D03*
X188230000Y-105505000D03*
X188230000Y-104845000D03*
X188230000Y-104185000D03*
%TD*%
D12*
%TO.C,Q2*%
G36*
X145955000Y-104387500D02*
G01*
X145445000Y-104387500D01*
X145445000Y-104642500D01*
X145955000Y-104642500D01*
X145955000Y-105047500D01*
X145445000Y-105047500D01*
X145445000Y-105302500D01*
X145955000Y-105302500D01*
X145955000Y-105707500D01*
X145445000Y-105707500D01*
X145445000Y-105962500D01*
X145955000Y-105962500D01*
X145955000Y-106370000D01*
X145195000Y-106370000D01*
X145195000Y-106292500D01*
X143720000Y-106292500D01*
X143720000Y-104057500D01*
X145195000Y-104057500D01*
X145195000Y-103980000D01*
X145955000Y-103980000D01*
X145955000Y-104387500D01*
G37*
D13*
X142590000Y-106165000D03*
X142590000Y-105505000D03*
X142590000Y-104845000D03*
X142590000Y-104185000D03*
%TD*%
D12*
%TO.C,Q1*%
G36*
X130555000Y-104387500D02*
G01*
X130045000Y-104387500D01*
X130045000Y-104642500D01*
X130555000Y-104642500D01*
X130555000Y-105047500D01*
X130045000Y-105047500D01*
X130045000Y-105302500D01*
X130555000Y-105302500D01*
X130555000Y-105707500D01*
X130045000Y-105707500D01*
X130045000Y-105962500D01*
X130555000Y-105962500D01*
X130555000Y-106370000D01*
X129795000Y-106370000D01*
X129795000Y-106292500D01*
X128320000Y-106292500D01*
X128320000Y-104057500D01*
X129795000Y-104057500D01*
X129795000Y-103980000D01*
X130555000Y-103980000D01*
X130555000Y-104387500D01*
G37*
D13*
X127190000Y-106165000D03*
X127190000Y-105505000D03*
X127190000Y-104845000D03*
X127190000Y-104185000D03*
%TD*%
D14*
%TO.C,U5*%
X36040000Y-65275000D03*
X36040000Y-64625000D03*
X36040000Y-63975000D03*
X36040000Y-63325000D03*
X39760000Y-63325000D03*
X39760000Y-63975000D03*
X39760000Y-64625000D03*
X39760000Y-65275000D03*
D15*
X38875000Y-66160000D03*
X38225000Y-66160000D03*
X37575000Y-66160000D03*
X36925000Y-66160000D03*
X36925000Y-62440000D03*
X37575000Y-62440000D03*
X38225000Y-62440000D03*
X38875000Y-62440000D03*
%TD*%
D14*
%TO.C,U4*%
X81570000Y-65285000D03*
X81570000Y-64635000D03*
X81570000Y-63985000D03*
X81570000Y-63335000D03*
X85290000Y-63335000D03*
X85290000Y-63985000D03*
X85290000Y-64635000D03*
X85290000Y-65285000D03*
D15*
X84405000Y-66170000D03*
X83755000Y-66170000D03*
X83105000Y-66170000D03*
X82455000Y-66170000D03*
X82455000Y-62450000D03*
X83105000Y-62450000D03*
X83755000Y-62450000D03*
X84405000Y-62450000D03*
%TD*%
D14*
%TO.C,U3*%
X182470000Y-65225000D03*
X182470000Y-64575000D03*
X182470000Y-63925000D03*
X182470000Y-63275000D03*
X186190000Y-63275000D03*
X186190000Y-63925000D03*
X186190000Y-64575000D03*
X186190000Y-65225000D03*
D15*
X185305000Y-66110000D03*
X184655000Y-66110000D03*
X184005000Y-66110000D03*
X183355000Y-66110000D03*
X183355000Y-62390000D03*
X184005000Y-62390000D03*
X184655000Y-62390000D03*
X185305000Y-62390000D03*
%TD*%
D14*
%TO.C,U2*%
X145600000Y-65275000D03*
X145600000Y-64625000D03*
X145600000Y-63975000D03*
X145600000Y-63325000D03*
X149320000Y-63325000D03*
X149320000Y-63975000D03*
X149320000Y-64625000D03*
X149320000Y-65275000D03*
D15*
X148435000Y-66160000D03*
X147785000Y-66160000D03*
X147135000Y-66160000D03*
X146485000Y-66160000D03*
X146485000Y-62440000D03*
X147135000Y-62440000D03*
X147785000Y-62440000D03*
X148435000Y-62440000D03*
%TD*%
%TO.C,U1*%
G36*
G01*
X110175000Y-79405000D02*
X110175000Y-79705000D01*
G75*
G02*
X110025000Y-79855000I-150000J0D01*
G01*
X108275000Y-79855000D01*
G75*
G02*
X108125000Y-79705000I0J150000D01*
G01*
X108125000Y-79405000D01*
G75*
G02*
X108275000Y-79255000I150000J0D01*
G01*
X110025000Y-79255000D01*
G75*
G02*
X110175000Y-79405000I0J-150000D01*
G01*
G37*
G36*
G01*
X110175000Y-78135000D02*
X110175000Y-78435000D01*
G75*
G02*
X110025000Y-78585000I-150000J0D01*
G01*
X108275000Y-78585000D01*
G75*
G02*
X108125000Y-78435000I0J150000D01*
G01*
X108125000Y-78135000D01*
G75*
G02*
X108275000Y-77985000I150000J0D01*
G01*
X110025000Y-77985000D01*
G75*
G02*
X110175000Y-78135000I0J-150000D01*
G01*
G37*
G36*
G01*
X110175000Y-76865000D02*
X110175000Y-77165000D01*
G75*
G02*
X110025000Y-77315000I-150000J0D01*
G01*
X108275000Y-77315000D01*
G75*
G02*
X108125000Y-77165000I0J150000D01*
G01*
X108125000Y-76865000D01*
G75*
G02*
X108275000Y-76715000I150000J0D01*
G01*
X110025000Y-76715000D01*
G75*
G02*
X110175000Y-76865000I0J-150000D01*
G01*
G37*
G36*
G01*
X110175000Y-75595000D02*
X110175000Y-75895000D01*
G75*
G02*
X110025000Y-76045000I-150000J0D01*
G01*
X108275000Y-76045000D01*
G75*
G02*
X108125000Y-75895000I0J150000D01*
G01*
X108125000Y-75595000D01*
G75*
G02*
X108275000Y-75445000I150000J0D01*
G01*
X110025000Y-75445000D01*
G75*
G02*
X110175000Y-75595000I0J-150000D01*
G01*
G37*
G36*
G01*
X110175000Y-74325000D02*
X110175000Y-74625000D01*
G75*
G02*
X110025000Y-74775000I-150000J0D01*
G01*
X108275000Y-74775000D01*
G75*
G02*
X108125000Y-74625000I0J150000D01*
G01*
X108125000Y-74325000D01*
G75*
G02*
X108275000Y-74175000I150000J0D01*
G01*
X110025000Y-74175000D01*
G75*
G02*
X110175000Y-74325000I0J-150000D01*
G01*
G37*
G36*
G01*
X110175000Y-73055000D02*
X110175000Y-73355000D01*
G75*
G02*
X110025000Y-73505000I-150000J0D01*
G01*
X108275000Y-73505000D01*
G75*
G02*
X108125000Y-73355000I0J150000D01*
G01*
X108125000Y-73055000D01*
G75*
G02*
X108275000Y-72905000I150000J0D01*
G01*
X110025000Y-72905000D01*
G75*
G02*
X110175000Y-73055000I0J-150000D01*
G01*
G37*
G36*
G01*
X110175000Y-71785000D02*
X110175000Y-72085000D01*
G75*
G02*
X110025000Y-72235000I-150000J0D01*
G01*
X108275000Y-72235000D01*
G75*
G02*
X108125000Y-72085000I0J150000D01*
G01*
X108125000Y-71785000D01*
G75*
G02*
X108275000Y-71635000I150000J0D01*
G01*
X110025000Y-71635000D01*
G75*
G02*
X110175000Y-71785000I0J-150000D01*
G01*
G37*
G36*
G01*
X110175000Y-70515000D02*
X110175000Y-70815000D01*
G75*
G02*
X110025000Y-70965000I-150000J0D01*
G01*
X108275000Y-70965000D01*
G75*
G02*
X108125000Y-70815000I0J150000D01*
G01*
X108125000Y-70515000D01*
G75*
G02*
X108275000Y-70365000I150000J0D01*
G01*
X110025000Y-70365000D01*
G75*
G02*
X110175000Y-70515000I0J-150000D01*
G01*
G37*
G36*
G01*
X110175000Y-69245000D02*
X110175000Y-69545000D01*
G75*
G02*
X110025000Y-69695000I-150000J0D01*
G01*
X108275000Y-69695000D01*
G75*
G02*
X108125000Y-69545000I0J150000D01*
G01*
X108125000Y-69245000D01*
G75*
G02*
X108275000Y-69095000I150000J0D01*
G01*
X110025000Y-69095000D01*
G75*
G02*
X110175000Y-69245000I0J-150000D01*
G01*
G37*
G36*
G01*
X110175000Y-67975000D02*
X110175000Y-68275000D01*
G75*
G02*
X110025000Y-68425000I-150000J0D01*
G01*
X108275000Y-68425000D01*
G75*
G02*
X108125000Y-68275000I0J150000D01*
G01*
X108125000Y-67975000D01*
G75*
G02*
X108275000Y-67825000I150000J0D01*
G01*
X110025000Y-67825000D01*
G75*
G02*
X110175000Y-67975000I0J-150000D01*
G01*
G37*
G36*
G01*
X110175000Y-66705000D02*
X110175000Y-67005000D01*
G75*
G02*
X110025000Y-67155000I-150000J0D01*
G01*
X108275000Y-67155000D01*
G75*
G02*
X108125000Y-67005000I0J150000D01*
G01*
X108125000Y-66705000D01*
G75*
G02*
X108275000Y-66555000I150000J0D01*
G01*
X110025000Y-66555000D01*
G75*
G02*
X110175000Y-66705000I0J-150000D01*
G01*
G37*
G36*
G01*
X110175000Y-65435000D02*
X110175000Y-65735000D01*
G75*
G02*
X110025000Y-65885000I-150000J0D01*
G01*
X108275000Y-65885000D01*
G75*
G02*
X108125000Y-65735000I0J150000D01*
G01*
X108125000Y-65435000D01*
G75*
G02*
X108275000Y-65285000I150000J0D01*
G01*
X110025000Y-65285000D01*
G75*
G02*
X110175000Y-65435000I0J-150000D01*
G01*
G37*
G36*
G01*
X110175000Y-64165000D02*
X110175000Y-64465000D01*
G75*
G02*
X110025000Y-64615000I-150000J0D01*
G01*
X108275000Y-64615000D01*
G75*
G02*
X108125000Y-64465000I0J150000D01*
G01*
X108125000Y-64165000D01*
G75*
G02*
X108275000Y-64015000I150000J0D01*
G01*
X110025000Y-64015000D01*
G75*
G02*
X110175000Y-64165000I0J-150000D01*
G01*
G37*
G36*
G01*
X110175000Y-62895000D02*
X110175000Y-63195000D01*
G75*
G02*
X110025000Y-63345000I-150000J0D01*
G01*
X108275000Y-63345000D01*
G75*
G02*
X108125000Y-63195000I0J150000D01*
G01*
X108125000Y-62895000D01*
G75*
G02*
X108275000Y-62745000I150000J0D01*
G01*
X110025000Y-62745000D01*
G75*
G02*
X110175000Y-62895000I0J-150000D01*
G01*
G37*
G36*
G01*
X119475000Y-62895000D02*
X119475000Y-63195000D01*
G75*
G02*
X119325000Y-63345000I-150000J0D01*
G01*
X117575000Y-63345000D01*
G75*
G02*
X117425000Y-63195000I0J150000D01*
G01*
X117425000Y-62895000D01*
G75*
G02*
X117575000Y-62745000I150000J0D01*
G01*
X119325000Y-62745000D01*
G75*
G02*
X119475000Y-62895000I0J-150000D01*
G01*
G37*
G36*
G01*
X119475000Y-64165000D02*
X119475000Y-64465000D01*
G75*
G02*
X119325000Y-64615000I-150000J0D01*
G01*
X117575000Y-64615000D01*
G75*
G02*
X117425000Y-64465000I0J150000D01*
G01*
X117425000Y-64165000D01*
G75*
G02*
X117575000Y-64015000I150000J0D01*
G01*
X119325000Y-64015000D01*
G75*
G02*
X119475000Y-64165000I0J-150000D01*
G01*
G37*
G36*
G01*
X119475000Y-65435000D02*
X119475000Y-65735000D01*
G75*
G02*
X119325000Y-65885000I-150000J0D01*
G01*
X117575000Y-65885000D01*
G75*
G02*
X117425000Y-65735000I0J150000D01*
G01*
X117425000Y-65435000D01*
G75*
G02*
X117575000Y-65285000I150000J0D01*
G01*
X119325000Y-65285000D01*
G75*
G02*
X119475000Y-65435000I0J-150000D01*
G01*
G37*
G36*
G01*
X119475000Y-66705000D02*
X119475000Y-67005000D01*
G75*
G02*
X119325000Y-67155000I-150000J0D01*
G01*
X117575000Y-67155000D01*
G75*
G02*
X117425000Y-67005000I0J150000D01*
G01*
X117425000Y-66705000D01*
G75*
G02*
X117575000Y-66555000I150000J0D01*
G01*
X119325000Y-66555000D01*
G75*
G02*
X119475000Y-66705000I0J-150000D01*
G01*
G37*
G36*
G01*
X119475000Y-67975000D02*
X119475000Y-68275000D01*
G75*
G02*
X119325000Y-68425000I-150000J0D01*
G01*
X117575000Y-68425000D01*
G75*
G02*
X117425000Y-68275000I0J150000D01*
G01*
X117425000Y-67975000D01*
G75*
G02*
X117575000Y-67825000I150000J0D01*
G01*
X119325000Y-67825000D01*
G75*
G02*
X119475000Y-67975000I0J-150000D01*
G01*
G37*
G36*
G01*
X119475000Y-69245000D02*
X119475000Y-69545000D01*
G75*
G02*
X119325000Y-69695000I-150000J0D01*
G01*
X117575000Y-69695000D01*
G75*
G02*
X117425000Y-69545000I0J150000D01*
G01*
X117425000Y-69245000D01*
G75*
G02*
X117575000Y-69095000I150000J0D01*
G01*
X119325000Y-69095000D01*
G75*
G02*
X119475000Y-69245000I0J-150000D01*
G01*
G37*
G36*
G01*
X119475000Y-70515000D02*
X119475000Y-70815000D01*
G75*
G02*
X119325000Y-70965000I-150000J0D01*
G01*
X117575000Y-70965000D01*
G75*
G02*
X117425000Y-70815000I0J150000D01*
G01*
X117425000Y-70515000D01*
G75*
G02*
X117575000Y-70365000I150000J0D01*
G01*
X119325000Y-70365000D01*
G75*
G02*
X119475000Y-70515000I0J-150000D01*
G01*
G37*
G36*
G01*
X119475000Y-71785000D02*
X119475000Y-72085000D01*
G75*
G02*
X119325000Y-72235000I-150000J0D01*
G01*
X117575000Y-72235000D01*
G75*
G02*
X117425000Y-72085000I0J150000D01*
G01*
X117425000Y-71785000D01*
G75*
G02*
X117575000Y-71635000I150000J0D01*
G01*
X119325000Y-71635000D01*
G75*
G02*
X119475000Y-71785000I0J-150000D01*
G01*
G37*
G36*
G01*
X119475000Y-73055000D02*
X119475000Y-73355000D01*
G75*
G02*
X119325000Y-73505000I-150000J0D01*
G01*
X117575000Y-73505000D01*
G75*
G02*
X117425000Y-73355000I0J150000D01*
G01*
X117425000Y-73055000D01*
G75*
G02*
X117575000Y-72905000I150000J0D01*
G01*
X119325000Y-72905000D01*
G75*
G02*
X119475000Y-73055000I0J-150000D01*
G01*
G37*
G36*
G01*
X119475000Y-74325000D02*
X119475000Y-74625000D01*
G75*
G02*
X119325000Y-74775000I-150000J0D01*
G01*
X117575000Y-74775000D01*
G75*
G02*
X117425000Y-74625000I0J150000D01*
G01*
X117425000Y-74325000D01*
G75*
G02*
X117575000Y-74175000I150000J0D01*
G01*
X119325000Y-74175000D01*
G75*
G02*
X119475000Y-74325000I0J-150000D01*
G01*
G37*
G36*
G01*
X119475000Y-75595000D02*
X119475000Y-75895000D01*
G75*
G02*
X119325000Y-76045000I-150000J0D01*
G01*
X117575000Y-76045000D01*
G75*
G02*
X117425000Y-75895000I0J150000D01*
G01*
X117425000Y-75595000D01*
G75*
G02*
X117575000Y-75445000I150000J0D01*
G01*
X119325000Y-75445000D01*
G75*
G02*
X119475000Y-75595000I0J-150000D01*
G01*
G37*
G36*
G01*
X119475000Y-76865000D02*
X119475000Y-77165000D01*
G75*
G02*
X119325000Y-77315000I-150000J0D01*
G01*
X117575000Y-77315000D01*
G75*
G02*
X117425000Y-77165000I0J150000D01*
G01*
X117425000Y-76865000D01*
G75*
G02*
X117575000Y-76715000I150000J0D01*
G01*
X119325000Y-76715000D01*
G75*
G02*
X119475000Y-76865000I0J-150000D01*
G01*
G37*
G36*
G01*
X119475000Y-78135000D02*
X119475000Y-78435000D01*
G75*
G02*
X119325000Y-78585000I-150000J0D01*
G01*
X117575000Y-78585000D01*
G75*
G02*
X117425000Y-78435000I0J150000D01*
G01*
X117425000Y-78135000D01*
G75*
G02*
X117575000Y-77985000I150000J0D01*
G01*
X119325000Y-77985000D01*
G75*
G02*
X119475000Y-78135000I0J-150000D01*
G01*
G37*
G36*
G01*
X119475000Y-79405000D02*
X119475000Y-79705000D01*
G75*
G02*
X119325000Y-79855000I-150000J0D01*
G01*
X117575000Y-79855000D01*
G75*
G02*
X117425000Y-79705000I0J150000D01*
G01*
X117425000Y-79405000D01*
G75*
G02*
X117575000Y-79255000I150000J0D01*
G01*
X119325000Y-79255000D01*
G75*
G02*
X119475000Y-79405000I0J-150000D01*
G01*
G37*
%TD*%
%TO.C,Rpu*%
G36*
G01*
X37000000Y-67874999D02*
X37000000Y-69125001D01*
G75*
G02*
X36750001Y-69375000I-249999J0D01*
G01*
X35949999Y-69375000D01*
G75*
G02*
X35700000Y-69125001I0J249999D01*
G01*
X35700000Y-67874999D01*
G75*
G02*
X35949999Y-67625000I249999J0D01*
G01*
X36750001Y-67625000D01*
G75*
G02*
X37000000Y-67874999I0J-249999D01*
G01*
G37*
G36*
G01*
X40100000Y-67874999D02*
X40100000Y-69125001D01*
G75*
G02*
X39850001Y-69375000I-249999J0D01*
G01*
X39049999Y-69375000D01*
G75*
G02*
X38800000Y-69125001I0J249999D01*
G01*
X38800000Y-67874999D01*
G75*
G02*
X39049999Y-67625000I249999J0D01*
G01*
X39850001Y-67625000D01*
G75*
G02*
X40100000Y-67874999I0J-249999D01*
G01*
G37*
%TD*%
%TO.C,Rpu*%
G36*
G01*
X82530000Y-67884999D02*
X82530000Y-69135001D01*
G75*
G02*
X82280001Y-69385000I-249999J0D01*
G01*
X81479999Y-69385000D01*
G75*
G02*
X81230000Y-69135001I0J249999D01*
G01*
X81230000Y-67884999D01*
G75*
G02*
X81479999Y-67635000I249999J0D01*
G01*
X82280001Y-67635000D01*
G75*
G02*
X82530000Y-67884999I0J-249999D01*
G01*
G37*
G36*
G01*
X85630000Y-67884999D02*
X85630000Y-69135001D01*
G75*
G02*
X85380001Y-69385000I-249999J0D01*
G01*
X84579999Y-69385000D01*
G75*
G02*
X84330000Y-69135001I0J249999D01*
G01*
X84330000Y-67884999D01*
G75*
G02*
X84579999Y-67635000I249999J0D01*
G01*
X85380001Y-67635000D01*
G75*
G02*
X85630000Y-67884999I0J-249999D01*
G01*
G37*
%TD*%
%TO.C,Rpu*%
G36*
G01*
X183430000Y-67824999D02*
X183430000Y-69075001D01*
G75*
G02*
X183180001Y-69325000I-249999J0D01*
G01*
X182379999Y-69325000D01*
G75*
G02*
X182130000Y-69075001I0J249999D01*
G01*
X182130000Y-67824999D01*
G75*
G02*
X182379999Y-67575000I249999J0D01*
G01*
X183180001Y-67575000D01*
G75*
G02*
X183430000Y-67824999I0J-249999D01*
G01*
G37*
G36*
G01*
X186530000Y-67824999D02*
X186530000Y-69075001D01*
G75*
G02*
X186280001Y-69325000I-249999J0D01*
G01*
X185479999Y-69325000D01*
G75*
G02*
X185230000Y-69075001I0J249999D01*
G01*
X185230000Y-67824999D01*
G75*
G02*
X185479999Y-67575000I249999J0D01*
G01*
X186280001Y-67575000D01*
G75*
G02*
X186530000Y-67824999I0J-249999D01*
G01*
G37*
%TD*%
%TO.C,Rpu*%
G36*
G01*
X146560000Y-67874999D02*
X146560000Y-69125001D01*
G75*
G02*
X146310001Y-69375000I-249999J0D01*
G01*
X145509999Y-69375000D01*
G75*
G02*
X145260000Y-69125001I0J249999D01*
G01*
X145260000Y-67874999D01*
G75*
G02*
X145509999Y-67625000I249999J0D01*
G01*
X146310001Y-67625000D01*
G75*
G02*
X146560000Y-67874999I0J-249999D01*
G01*
G37*
G36*
G01*
X149660000Y-67874999D02*
X149660000Y-69125001D01*
G75*
G02*
X149410001Y-69375000I-249999J0D01*
G01*
X148609999Y-69375000D01*
G75*
G02*
X148360000Y-69125001I0J249999D01*
G01*
X148360000Y-67874999D01*
G75*
G02*
X148609999Y-67625000I249999J0D01*
G01*
X149410001Y-67625000D01*
G75*
G02*
X149660000Y-67874999I0J-249999D01*
G01*
G37*
%TD*%
%TO.C,Rdiv*%
G36*
G01*
X38800000Y-71625001D02*
X38800000Y-70374999D01*
G75*
G02*
X39049999Y-70125000I249999J0D01*
G01*
X39850001Y-70125000D01*
G75*
G02*
X40100000Y-70374999I0J-249999D01*
G01*
X40100000Y-71625001D01*
G75*
G02*
X39850001Y-71875000I-249999J0D01*
G01*
X39049999Y-71875000D01*
G75*
G02*
X38800000Y-71625001I0J249999D01*
G01*
G37*
G36*
G01*
X35700000Y-71625001D02*
X35700000Y-70374999D01*
G75*
G02*
X35949999Y-70125000I249999J0D01*
G01*
X36750001Y-70125000D01*
G75*
G02*
X37000000Y-70374999I0J-249999D01*
G01*
X37000000Y-71625001D01*
G75*
G02*
X36750001Y-71875000I-249999J0D01*
G01*
X35949999Y-71875000D01*
G75*
G02*
X35700000Y-71625001I0J249999D01*
G01*
G37*
%TD*%
%TO.C,Rdiv*%
G36*
G01*
X84330000Y-71635001D02*
X84330000Y-70384999D01*
G75*
G02*
X84579999Y-70135000I249999J0D01*
G01*
X85380001Y-70135000D01*
G75*
G02*
X85630000Y-70384999I0J-249999D01*
G01*
X85630000Y-71635001D01*
G75*
G02*
X85380001Y-71885000I-249999J0D01*
G01*
X84579999Y-71885000D01*
G75*
G02*
X84330000Y-71635001I0J249999D01*
G01*
G37*
G36*
G01*
X81230000Y-71635001D02*
X81230000Y-70384999D01*
G75*
G02*
X81479999Y-70135000I249999J0D01*
G01*
X82280001Y-70135000D01*
G75*
G02*
X82530000Y-70384999I0J-249999D01*
G01*
X82530000Y-71635001D01*
G75*
G02*
X82280001Y-71885000I-249999J0D01*
G01*
X81479999Y-71885000D01*
G75*
G02*
X81230000Y-71635001I0J249999D01*
G01*
G37*
%TD*%
%TO.C,Rdiv*%
G36*
G01*
X185230000Y-71575001D02*
X185230000Y-70324999D01*
G75*
G02*
X185479999Y-70075000I249999J0D01*
G01*
X186280001Y-70075000D01*
G75*
G02*
X186530000Y-70324999I0J-249999D01*
G01*
X186530000Y-71575001D01*
G75*
G02*
X186280001Y-71825000I-249999J0D01*
G01*
X185479999Y-71825000D01*
G75*
G02*
X185230000Y-71575001I0J249999D01*
G01*
G37*
G36*
G01*
X182130000Y-71575001D02*
X182130000Y-70324999D01*
G75*
G02*
X182379999Y-70075000I249999J0D01*
G01*
X183180001Y-70075000D01*
G75*
G02*
X183430000Y-70324999I0J-249999D01*
G01*
X183430000Y-71575001D01*
G75*
G02*
X183180001Y-71825000I-249999J0D01*
G01*
X182379999Y-71825000D01*
G75*
G02*
X182130000Y-71575001I0J249999D01*
G01*
G37*
%TD*%
%TO.C,Rdiv*%
G36*
G01*
X148360000Y-71625001D02*
X148360000Y-70374999D01*
G75*
G02*
X148609999Y-70125000I249999J0D01*
G01*
X149410001Y-70125000D01*
G75*
G02*
X149660000Y-70374999I0J-249999D01*
G01*
X149660000Y-71625001D01*
G75*
G02*
X149410001Y-71875000I-249999J0D01*
G01*
X148609999Y-71875000D01*
G75*
G02*
X148360000Y-71625001I0J249999D01*
G01*
G37*
G36*
G01*
X145260000Y-71625001D02*
X145260000Y-70374999D01*
G75*
G02*
X145509999Y-70125000I249999J0D01*
G01*
X146310001Y-70125000D01*
G75*
G02*
X146560000Y-70374999I0J-249999D01*
G01*
X146560000Y-71625001D01*
G75*
G02*
X146310001Y-71875000I-249999J0D01*
G01*
X145509999Y-71875000D01*
G75*
G02*
X145260000Y-71625001I0J249999D01*
G01*
G37*
%TD*%
%TO.C,R112*%
G36*
G01*
X44350000Y-92874999D02*
X44350000Y-94125001D01*
G75*
G02*
X44100001Y-94375000I-249999J0D01*
G01*
X43299999Y-94375000D01*
G75*
G02*
X43050000Y-94125001I0J249999D01*
G01*
X43050000Y-92874999D01*
G75*
G02*
X43299999Y-92625000I249999J0D01*
G01*
X44100001Y-92625000D01*
G75*
G02*
X44350000Y-92874999I0J-249999D01*
G01*
G37*
G36*
G01*
X47450000Y-92874999D02*
X47450000Y-94125001D01*
G75*
G02*
X47200001Y-94375000I-249999J0D01*
G01*
X46399999Y-94375000D01*
G75*
G02*
X46150000Y-94125001I0J249999D01*
G01*
X46150000Y-92874999D01*
G75*
G02*
X46399999Y-92625000I249999J0D01*
G01*
X47200001Y-92625000D01*
G75*
G02*
X47450000Y-92874999I0J-249999D01*
G01*
G37*
%TD*%
%TO.C,R111*%
G36*
G01*
X29100000Y-92874999D02*
X29100000Y-94125001D01*
G75*
G02*
X28850001Y-94375000I-249999J0D01*
G01*
X28049999Y-94375000D01*
G75*
G02*
X27800000Y-94125001I0J249999D01*
G01*
X27800000Y-92874999D01*
G75*
G02*
X28049999Y-92625000I249999J0D01*
G01*
X28850001Y-92625000D01*
G75*
G02*
X29100000Y-92874999I0J-249999D01*
G01*
G37*
G36*
G01*
X32200000Y-92874999D02*
X32200000Y-94125001D01*
G75*
G02*
X31950001Y-94375000I-249999J0D01*
G01*
X31149999Y-94375000D01*
G75*
G02*
X30900000Y-94125001I0J249999D01*
G01*
X30900000Y-92874999D01*
G75*
G02*
X31149999Y-92625000I249999J0D01*
G01*
X31950001Y-92625000D01*
G75*
G02*
X32200000Y-92874999I0J-249999D01*
G01*
G37*
%TD*%
%TO.C,R110*%
G36*
G01*
X74855000Y-92899999D02*
X74855000Y-94150001D01*
G75*
G02*
X74605001Y-94400000I-249999J0D01*
G01*
X73804999Y-94400000D01*
G75*
G02*
X73555000Y-94150001I0J249999D01*
G01*
X73555000Y-92899999D01*
G75*
G02*
X73804999Y-92650000I249999J0D01*
G01*
X74605001Y-92650000D01*
G75*
G02*
X74855000Y-92899999I0J-249999D01*
G01*
G37*
G36*
G01*
X77955000Y-92899999D02*
X77955000Y-94150001D01*
G75*
G02*
X77705001Y-94400000I-249999J0D01*
G01*
X76904999Y-94400000D01*
G75*
G02*
X76655000Y-94150001I0J249999D01*
G01*
X76655000Y-92899999D01*
G75*
G02*
X76904999Y-92650000I249999J0D01*
G01*
X77705001Y-92650000D01*
G75*
G02*
X77955000Y-92899999I0J-249999D01*
G01*
G37*
%TD*%
%TO.C,R109*%
G36*
G01*
X59605000Y-92899999D02*
X59605000Y-94150001D01*
G75*
G02*
X59355001Y-94400000I-249999J0D01*
G01*
X58554999Y-94400000D01*
G75*
G02*
X58305000Y-94150001I0J249999D01*
G01*
X58305000Y-92899999D01*
G75*
G02*
X58554999Y-92650000I249999J0D01*
G01*
X59355001Y-92650000D01*
G75*
G02*
X59605000Y-92899999I0J-249999D01*
G01*
G37*
G36*
G01*
X62705000Y-92899999D02*
X62705000Y-94150001D01*
G75*
G02*
X62455001Y-94400000I-249999J0D01*
G01*
X61654999Y-94400000D01*
G75*
G02*
X61405000Y-94150001I0J249999D01*
G01*
X61405000Y-92899999D01*
G75*
G02*
X61654999Y-92650000I249999J0D01*
G01*
X62455001Y-92650000D01*
G75*
G02*
X62705000Y-92899999I0J-249999D01*
G01*
G37*
%TD*%
%TO.C,R108*%
G36*
G01*
X105555000Y-92909999D02*
X105555000Y-94160001D01*
G75*
G02*
X105305001Y-94410000I-249999J0D01*
G01*
X104504999Y-94410000D01*
G75*
G02*
X104255000Y-94160001I0J249999D01*
G01*
X104255000Y-92909999D01*
G75*
G02*
X104504999Y-92660000I249999J0D01*
G01*
X105305001Y-92660000D01*
G75*
G02*
X105555000Y-92909999I0J-249999D01*
G01*
G37*
G36*
G01*
X108655000Y-92909999D02*
X108655000Y-94160001D01*
G75*
G02*
X108405001Y-94410000I-249999J0D01*
G01*
X107604999Y-94410000D01*
G75*
G02*
X107355000Y-94160001I0J249999D01*
G01*
X107355000Y-92909999D01*
G75*
G02*
X107604999Y-92660000I249999J0D01*
G01*
X108405001Y-92660000D01*
G75*
G02*
X108655000Y-92909999I0J-249999D01*
G01*
G37*
%TD*%
%TO.C,R107*%
G36*
G01*
X90305000Y-92909999D02*
X90305000Y-94160001D01*
G75*
G02*
X90055001Y-94410000I-249999J0D01*
G01*
X89254999Y-94410000D01*
G75*
G02*
X89005000Y-94160001I0J249999D01*
G01*
X89005000Y-92909999D01*
G75*
G02*
X89254999Y-92660000I249999J0D01*
G01*
X90055001Y-92660000D01*
G75*
G02*
X90305000Y-92909999I0J-249999D01*
G01*
G37*
G36*
G01*
X93405000Y-92909999D02*
X93405000Y-94160001D01*
G75*
G02*
X93155001Y-94410000I-249999J0D01*
G01*
X92354999Y-94410000D01*
G75*
G02*
X92105000Y-94160001I0J249999D01*
G01*
X92105000Y-92909999D01*
G75*
G02*
X92354999Y-92660000I249999J0D01*
G01*
X93155001Y-92660000D01*
G75*
G02*
X93405000Y-92909999I0J-249999D01*
G01*
G37*
%TD*%
%TO.C,R106*%
G36*
G01*
X196965000Y-92899999D02*
X196965000Y-94150001D01*
G75*
G02*
X196715001Y-94400000I-249999J0D01*
G01*
X195914999Y-94400000D01*
G75*
G02*
X195665000Y-94150001I0J249999D01*
G01*
X195665000Y-92899999D01*
G75*
G02*
X195914999Y-92650000I249999J0D01*
G01*
X196715001Y-92650000D01*
G75*
G02*
X196965000Y-92899999I0J-249999D01*
G01*
G37*
G36*
G01*
X200065000Y-92899999D02*
X200065000Y-94150001D01*
G75*
G02*
X199815001Y-94400000I-249999J0D01*
G01*
X199014999Y-94400000D01*
G75*
G02*
X198765000Y-94150001I0J249999D01*
G01*
X198765000Y-92899999D01*
G75*
G02*
X199014999Y-92650000I249999J0D01*
G01*
X199815001Y-92650000D01*
G75*
G02*
X200065000Y-92899999I0J-249999D01*
G01*
G37*
%TD*%
%TO.C,R105*%
G36*
G01*
X181715000Y-92899999D02*
X181715000Y-94150001D01*
G75*
G02*
X181465001Y-94400000I-249999J0D01*
G01*
X180664999Y-94400000D01*
G75*
G02*
X180415000Y-94150001I0J249999D01*
G01*
X180415000Y-92899999D01*
G75*
G02*
X180664999Y-92650000I249999J0D01*
G01*
X181465001Y-92650000D01*
G75*
G02*
X181715000Y-92899999I0J-249999D01*
G01*
G37*
G36*
G01*
X184815000Y-92899999D02*
X184815000Y-94150001D01*
G75*
G02*
X184565001Y-94400000I-249999J0D01*
G01*
X183764999Y-94400000D01*
G75*
G02*
X183515000Y-94150001I0J249999D01*
G01*
X183515000Y-92899999D01*
G75*
G02*
X183764999Y-92650000I249999J0D01*
G01*
X184565001Y-92650000D01*
G75*
G02*
X184815000Y-92899999I0J-249999D01*
G01*
G37*
%TD*%
%TO.C,R104*%
G36*
G01*
X166355000Y-92909999D02*
X166355000Y-94160001D01*
G75*
G02*
X166105001Y-94410000I-249999J0D01*
G01*
X165304999Y-94410000D01*
G75*
G02*
X165055000Y-94160001I0J249999D01*
G01*
X165055000Y-92909999D01*
G75*
G02*
X165304999Y-92660000I249999J0D01*
G01*
X166105001Y-92660000D01*
G75*
G02*
X166355000Y-92909999I0J-249999D01*
G01*
G37*
G36*
G01*
X169455000Y-92909999D02*
X169455000Y-94160001D01*
G75*
G02*
X169205001Y-94410000I-249999J0D01*
G01*
X168404999Y-94410000D01*
G75*
G02*
X168155000Y-94160001I0J249999D01*
G01*
X168155000Y-92909999D01*
G75*
G02*
X168404999Y-92660000I249999J0D01*
G01*
X169205001Y-92660000D01*
G75*
G02*
X169455000Y-92909999I0J-249999D01*
G01*
G37*
%TD*%
%TO.C,R103*%
G36*
G01*
X151105000Y-92909999D02*
X151105000Y-94160001D01*
G75*
G02*
X150855001Y-94410000I-249999J0D01*
G01*
X150054999Y-94410000D01*
G75*
G02*
X149805000Y-94160001I0J249999D01*
G01*
X149805000Y-92909999D01*
G75*
G02*
X150054999Y-92660000I249999J0D01*
G01*
X150855001Y-92660000D01*
G75*
G02*
X151105000Y-92909999I0J-249999D01*
G01*
G37*
G36*
G01*
X154205000Y-92909999D02*
X154205000Y-94160001D01*
G75*
G02*
X153955001Y-94410000I-249999J0D01*
G01*
X153154999Y-94410000D01*
G75*
G02*
X152905000Y-94160001I0J249999D01*
G01*
X152905000Y-92909999D01*
G75*
G02*
X153154999Y-92660000I249999J0D01*
G01*
X153955001Y-92660000D01*
G75*
G02*
X154205000Y-92909999I0J-249999D01*
G01*
G37*
%TD*%
%TO.C,R102*%
G36*
G01*
X135925000Y-92899999D02*
X135925000Y-94150001D01*
G75*
G02*
X135675001Y-94400000I-249999J0D01*
G01*
X134874999Y-94400000D01*
G75*
G02*
X134625000Y-94150001I0J249999D01*
G01*
X134625000Y-92899999D01*
G75*
G02*
X134874999Y-92650000I249999J0D01*
G01*
X135675001Y-92650000D01*
G75*
G02*
X135925000Y-92899999I0J-249999D01*
G01*
G37*
G36*
G01*
X139025000Y-92899999D02*
X139025000Y-94150001D01*
G75*
G02*
X138775001Y-94400000I-249999J0D01*
G01*
X137974999Y-94400000D01*
G75*
G02*
X137725000Y-94150001I0J249999D01*
G01*
X137725000Y-92899999D01*
G75*
G02*
X137974999Y-92650000I249999J0D01*
G01*
X138775001Y-92650000D01*
G75*
G02*
X139025000Y-92899999I0J-249999D01*
G01*
G37*
%TD*%
%TO.C,R101*%
G36*
G01*
X120675000Y-92899999D02*
X120675000Y-94150001D01*
G75*
G02*
X120425001Y-94400000I-249999J0D01*
G01*
X119624999Y-94400000D01*
G75*
G02*
X119375000Y-94150001I0J249999D01*
G01*
X119375000Y-92899999D01*
G75*
G02*
X119624999Y-92650000I249999J0D01*
G01*
X120425001Y-92650000D01*
G75*
G02*
X120675000Y-92899999I0J-249999D01*
G01*
G37*
G36*
G01*
X123775000Y-92899999D02*
X123775000Y-94150001D01*
G75*
G02*
X123525001Y-94400000I-249999J0D01*
G01*
X122724999Y-94400000D01*
G75*
G02*
X122475000Y-94150001I0J249999D01*
G01*
X122475000Y-92899999D01*
G75*
G02*
X122724999Y-92650000I249999J0D01*
G01*
X123525001Y-92650000D01*
G75*
G02*
X123775000Y-92899999I0J-249999D01*
G01*
G37*
%TD*%
%TO.C,R100*%
G36*
G01*
X31125001Y-76600000D02*
X29874999Y-76600000D01*
G75*
G02*
X29625000Y-76350001I0J249999D01*
G01*
X29625000Y-75549999D01*
G75*
G02*
X29874999Y-75300000I249999J0D01*
G01*
X31125001Y-75300000D01*
G75*
G02*
X31375000Y-75549999I0J-249999D01*
G01*
X31375000Y-76350001D01*
G75*
G02*
X31125001Y-76600000I-249999J0D01*
G01*
G37*
G36*
G01*
X31125001Y-79700000D02*
X29874999Y-79700000D01*
G75*
G02*
X29625000Y-79450001I0J249999D01*
G01*
X29625000Y-78649999D01*
G75*
G02*
X29874999Y-78400000I249999J0D01*
G01*
X31125001Y-78400000D01*
G75*
G02*
X31375000Y-78649999I0J-249999D01*
G01*
X31375000Y-79450001D01*
G75*
G02*
X31125001Y-79700000I-249999J0D01*
G01*
G37*
%TD*%
%TO.C,R99*%
G36*
G01*
X33825001Y-76600000D02*
X32574999Y-76600000D01*
G75*
G02*
X32325000Y-76350001I0J249999D01*
G01*
X32325000Y-75549999D01*
G75*
G02*
X32574999Y-75300000I249999J0D01*
G01*
X33825001Y-75300000D01*
G75*
G02*
X34075000Y-75549999I0J-249999D01*
G01*
X34075000Y-76350001D01*
G75*
G02*
X33825001Y-76600000I-249999J0D01*
G01*
G37*
G36*
G01*
X33825001Y-79700000D02*
X32574999Y-79700000D01*
G75*
G02*
X32325000Y-79450001I0J249999D01*
G01*
X32325000Y-78649999D01*
G75*
G02*
X32574999Y-78400000I249999J0D01*
G01*
X33825001Y-78400000D01*
G75*
G02*
X34075000Y-78649999I0J-249999D01*
G01*
X34075000Y-79450001D01*
G75*
G02*
X33825001Y-79700000I-249999J0D01*
G01*
G37*
%TD*%
%TO.C,R96*%
G36*
G01*
X44325001Y-102800000D02*
X43074999Y-102800000D01*
G75*
G02*
X42825000Y-102550001I0J249999D01*
G01*
X42825000Y-101749999D01*
G75*
G02*
X43074999Y-101500000I249999J0D01*
G01*
X44325001Y-101500000D01*
G75*
G02*
X44575000Y-101749999I0J-249999D01*
G01*
X44575000Y-102550001D01*
G75*
G02*
X44325001Y-102800000I-249999J0D01*
G01*
G37*
G36*
G01*
X44325001Y-105900000D02*
X43074999Y-105900000D01*
G75*
G02*
X42825000Y-105650001I0J249999D01*
G01*
X42825000Y-104849999D01*
G75*
G02*
X43074999Y-104600000I249999J0D01*
G01*
X44325001Y-104600000D01*
G75*
G02*
X44575000Y-104849999I0J-249999D01*
G01*
X44575000Y-105650001D01*
G75*
G02*
X44325001Y-105900000I-249999J0D01*
G01*
G37*
%TD*%
%TO.C,R95*%
G36*
G01*
X29075001Y-102800000D02*
X27824999Y-102800000D01*
G75*
G02*
X27575000Y-102550001I0J249999D01*
G01*
X27575000Y-101749999D01*
G75*
G02*
X27824999Y-101500000I249999J0D01*
G01*
X29075001Y-101500000D01*
G75*
G02*
X29325000Y-101749999I0J-249999D01*
G01*
X29325000Y-102550001D01*
G75*
G02*
X29075001Y-102800000I-249999J0D01*
G01*
G37*
G36*
G01*
X29075001Y-105900000D02*
X27824999Y-105900000D01*
G75*
G02*
X27575000Y-105650001I0J249999D01*
G01*
X27575000Y-104849999D01*
G75*
G02*
X27824999Y-104600000I249999J0D01*
G01*
X29075001Y-104600000D01*
G75*
G02*
X29325000Y-104849999I0J-249999D01*
G01*
X29325000Y-105650001D01*
G75*
G02*
X29075001Y-105900000I-249999J0D01*
G01*
G37*
%TD*%
%TO.C,R94*%
G36*
G01*
X168605000Y-101559999D02*
X168605000Y-102810001D01*
G75*
G02*
X168355001Y-103060000I-249999J0D01*
G01*
X167554999Y-103060000D01*
G75*
G02*
X167305000Y-102810001I0J249999D01*
G01*
X167305000Y-101559999D01*
G75*
G02*
X167554999Y-101310000I249999J0D01*
G01*
X168355001Y-101310000D01*
G75*
G02*
X168605000Y-101559999I0J-249999D01*
G01*
G37*
G36*
G01*
X171705000Y-101559999D02*
X171705000Y-102810001D01*
G75*
G02*
X171455001Y-103060000I-249999J0D01*
G01*
X170654999Y-103060000D01*
G75*
G02*
X170405000Y-102810001I0J249999D01*
G01*
X170405000Y-101559999D01*
G75*
G02*
X170654999Y-101310000I249999J0D01*
G01*
X171455001Y-101310000D01*
G75*
G02*
X171705000Y-101559999I0J-249999D01*
G01*
G37*
%TD*%
%TO.C,R93*%
G36*
G01*
X31350000Y-101524999D02*
X31350000Y-102775001D01*
G75*
G02*
X31100001Y-103025000I-249999J0D01*
G01*
X30299999Y-103025000D01*
G75*
G02*
X30050000Y-102775001I0J249999D01*
G01*
X30050000Y-101524999D01*
G75*
G02*
X30299999Y-101275000I249999J0D01*
G01*
X31100001Y-101275000D01*
G75*
G02*
X31350000Y-101524999I0J-249999D01*
G01*
G37*
G36*
G01*
X34450000Y-101524999D02*
X34450000Y-102775001D01*
G75*
G02*
X34200001Y-103025000I-249999J0D01*
G01*
X33399999Y-103025000D01*
G75*
G02*
X33150000Y-102775001I0J249999D01*
G01*
X33150000Y-101524999D01*
G75*
G02*
X33399999Y-101275000I249999J0D01*
G01*
X34200001Y-101275000D01*
G75*
G02*
X34450000Y-101524999I0J-249999D01*
G01*
G37*
%TD*%
%TO.C,R92*%
G36*
G01*
X41625001Y-94050000D02*
X40374999Y-94050000D01*
G75*
G02*
X40125000Y-93800001I0J249999D01*
G01*
X40125000Y-92999999D01*
G75*
G02*
X40374999Y-92750000I249999J0D01*
G01*
X41625001Y-92750000D01*
G75*
G02*
X41875000Y-92999999I0J-249999D01*
G01*
X41875000Y-93800001D01*
G75*
G02*
X41625001Y-94050000I-249999J0D01*
G01*
G37*
G36*
G01*
X41625001Y-97150000D02*
X40374999Y-97150000D01*
G75*
G02*
X40125000Y-96900001I0J249999D01*
G01*
X40125000Y-96099999D01*
G75*
G02*
X40374999Y-95850000I249999J0D01*
G01*
X41625001Y-95850000D01*
G75*
G02*
X41875000Y-96099999I0J-249999D01*
G01*
X41875000Y-96900001D01*
G75*
G02*
X41625001Y-97150000I-249999J0D01*
G01*
G37*
%TD*%
%TO.C,R91*%
G36*
G01*
X50600000Y-92874999D02*
X50600000Y-94125001D01*
G75*
G02*
X50350001Y-94375000I-249999J0D01*
G01*
X49549999Y-94375000D01*
G75*
G02*
X49300000Y-94125001I0J249999D01*
G01*
X49300000Y-92874999D01*
G75*
G02*
X49549999Y-92625000I249999J0D01*
G01*
X50350001Y-92625000D01*
G75*
G02*
X50600000Y-92874999I0J-249999D01*
G01*
G37*
G36*
G01*
X53700000Y-92874999D02*
X53700000Y-94125001D01*
G75*
G02*
X53450001Y-94375000I-249999J0D01*
G01*
X52649999Y-94375000D01*
G75*
G02*
X52400000Y-94125001I0J249999D01*
G01*
X52400000Y-92874999D01*
G75*
G02*
X52649999Y-92625000I249999J0D01*
G01*
X53450001Y-92625000D01*
G75*
G02*
X53700000Y-92874999I0J-249999D01*
G01*
G37*
%TD*%
%TO.C,R90*%
G36*
G01*
X26425001Y-94100000D02*
X25174999Y-94100000D01*
G75*
G02*
X24925000Y-93850001I0J249999D01*
G01*
X24925000Y-93049999D01*
G75*
G02*
X25174999Y-92800000I249999J0D01*
G01*
X26425001Y-92800000D01*
G75*
G02*
X26675000Y-93049999I0J-249999D01*
G01*
X26675000Y-93850001D01*
G75*
G02*
X26425001Y-94100000I-249999J0D01*
G01*
G37*
G36*
G01*
X26425001Y-97200000D02*
X25174999Y-97200000D01*
G75*
G02*
X24925000Y-96950001I0J249999D01*
G01*
X24925000Y-96149999D01*
G75*
G02*
X25174999Y-95900000I249999J0D01*
G01*
X26425001Y-95900000D01*
G75*
G02*
X26675000Y-96149999I0J-249999D01*
G01*
X26675000Y-96950001D01*
G75*
G02*
X26425001Y-97200000I-249999J0D01*
G01*
G37*
%TD*%
%TO.C,R89*%
G36*
G01*
X35350000Y-92874999D02*
X35350000Y-94125001D01*
G75*
G02*
X35100001Y-94375000I-249999J0D01*
G01*
X34299999Y-94375000D01*
G75*
G02*
X34050000Y-94125001I0J249999D01*
G01*
X34050000Y-92874999D01*
G75*
G02*
X34299999Y-92625000I249999J0D01*
G01*
X35100001Y-92625000D01*
G75*
G02*
X35350000Y-92874999I0J-249999D01*
G01*
G37*
G36*
G01*
X38450000Y-92874999D02*
X38450000Y-94125001D01*
G75*
G02*
X38200001Y-94375000I-249999J0D01*
G01*
X37399999Y-94375000D01*
G75*
G02*
X37150000Y-94125001I0J249999D01*
G01*
X37150000Y-92874999D01*
G75*
G02*
X37399999Y-92625000I249999J0D01*
G01*
X38200001Y-92625000D01*
G75*
G02*
X38450000Y-92874999I0J-249999D01*
G01*
G37*
%TD*%
%TO.C,R88*%
G36*
G01*
X37225001Y-76600000D02*
X35974999Y-76600000D01*
G75*
G02*
X35725000Y-76350001I0J249999D01*
G01*
X35725000Y-75549999D01*
G75*
G02*
X35974999Y-75300000I249999J0D01*
G01*
X37225001Y-75300000D01*
G75*
G02*
X37475000Y-75549999I0J-249999D01*
G01*
X37475000Y-76350001D01*
G75*
G02*
X37225001Y-76600000I-249999J0D01*
G01*
G37*
G36*
G01*
X37225001Y-79700000D02*
X35974999Y-79700000D01*
G75*
G02*
X35725000Y-79450001I0J249999D01*
G01*
X35725000Y-78649999D01*
G75*
G02*
X35974999Y-78400000I249999J0D01*
G01*
X37225001Y-78400000D01*
G75*
G02*
X37475000Y-78649999I0J-249999D01*
G01*
X37475000Y-79450001D01*
G75*
G02*
X37225001Y-79700000I-249999J0D01*
G01*
G37*
%TD*%
%TO.C,R87*%
G36*
G01*
X39825001Y-76600000D02*
X38574999Y-76600000D01*
G75*
G02*
X38325000Y-76350001I0J249999D01*
G01*
X38325000Y-75549999D01*
G75*
G02*
X38574999Y-75300000I249999J0D01*
G01*
X39825001Y-75300000D01*
G75*
G02*
X40075000Y-75549999I0J-249999D01*
G01*
X40075000Y-76350001D01*
G75*
G02*
X39825001Y-76600000I-249999J0D01*
G01*
G37*
G36*
G01*
X39825001Y-79700000D02*
X38574999Y-79700000D01*
G75*
G02*
X38325000Y-79450001I0J249999D01*
G01*
X38325000Y-78649999D01*
G75*
G02*
X38574999Y-78400000I249999J0D01*
G01*
X39825001Y-78400000D01*
G75*
G02*
X40075000Y-78649999I0J-249999D01*
G01*
X40075000Y-79450001D01*
G75*
G02*
X39825001Y-79700000I-249999J0D01*
G01*
G37*
%TD*%
%TO.C,R86*%
G36*
G01*
X43225001Y-76600000D02*
X41974999Y-76600000D01*
G75*
G02*
X41725000Y-76350001I0J249999D01*
G01*
X41725000Y-75549999D01*
G75*
G02*
X41974999Y-75300000I249999J0D01*
G01*
X43225001Y-75300000D01*
G75*
G02*
X43475000Y-75549999I0J-249999D01*
G01*
X43475000Y-76350001D01*
G75*
G02*
X43225001Y-76600000I-249999J0D01*
G01*
G37*
G36*
G01*
X43225001Y-79700000D02*
X41974999Y-79700000D01*
G75*
G02*
X41725000Y-79450001I0J249999D01*
G01*
X41725000Y-78649999D01*
G75*
G02*
X41974999Y-78400000I249999J0D01*
G01*
X43225001Y-78400000D01*
G75*
G02*
X43475000Y-78649999I0J-249999D01*
G01*
X43475000Y-79450001D01*
G75*
G02*
X43225001Y-79700000I-249999J0D01*
G01*
G37*
%TD*%
%TO.C,R85*%
G36*
G01*
X45825001Y-76600000D02*
X44574999Y-76600000D01*
G75*
G02*
X44325000Y-76350001I0J249999D01*
G01*
X44325000Y-75549999D01*
G75*
G02*
X44574999Y-75300000I249999J0D01*
G01*
X45825001Y-75300000D01*
G75*
G02*
X46075000Y-75549999I0J-249999D01*
G01*
X46075000Y-76350001D01*
G75*
G02*
X45825001Y-76600000I-249999J0D01*
G01*
G37*
G36*
G01*
X45825001Y-79700000D02*
X44574999Y-79700000D01*
G75*
G02*
X44325000Y-79450001I0J249999D01*
G01*
X44325000Y-78649999D01*
G75*
G02*
X44574999Y-78400000I249999J0D01*
G01*
X45825001Y-78400000D01*
G75*
G02*
X46075000Y-78649999I0J-249999D01*
G01*
X46075000Y-79450001D01*
G75*
G02*
X45825001Y-79700000I-249999J0D01*
G01*
G37*
%TD*%
%TO.C,R84*%
G36*
G01*
X76655001Y-76610000D02*
X75404999Y-76610000D01*
G75*
G02*
X75155000Y-76360001I0J249999D01*
G01*
X75155000Y-75559999D01*
G75*
G02*
X75404999Y-75310000I249999J0D01*
G01*
X76655001Y-75310000D01*
G75*
G02*
X76905000Y-75559999I0J-249999D01*
G01*
X76905000Y-76360001D01*
G75*
G02*
X76655001Y-76610000I-249999J0D01*
G01*
G37*
G36*
G01*
X76655001Y-79710000D02*
X75404999Y-79710000D01*
G75*
G02*
X75155000Y-79460001I0J249999D01*
G01*
X75155000Y-78659999D01*
G75*
G02*
X75404999Y-78410000I249999J0D01*
G01*
X76655001Y-78410000D01*
G75*
G02*
X76905000Y-78659999I0J-249999D01*
G01*
X76905000Y-79460001D01*
G75*
G02*
X76655001Y-79710000I-249999J0D01*
G01*
G37*
%TD*%
%TO.C,R83*%
G36*
G01*
X79355001Y-76610000D02*
X78104999Y-76610000D01*
G75*
G02*
X77855000Y-76360001I0J249999D01*
G01*
X77855000Y-75559999D01*
G75*
G02*
X78104999Y-75310000I249999J0D01*
G01*
X79355001Y-75310000D01*
G75*
G02*
X79605000Y-75559999I0J-249999D01*
G01*
X79605000Y-76360001D01*
G75*
G02*
X79355001Y-76610000I-249999J0D01*
G01*
G37*
G36*
G01*
X79355001Y-79710000D02*
X78104999Y-79710000D01*
G75*
G02*
X77855000Y-79460001I0J249999D01*
G01*
X77855000Y-78659999D01*
G75*
G02*
X78104999Y-78410000I249999J0D01*
G01*
X79355001Y-78410000D01*
G75*
G02*
X79605000Y-78659999I0J-249999D01*
G01*
X79605000Y-79460001D01*
G75*
G02*
X79355001Y-79710000I-249999J0D01*
G01*
G37*
%TD*%
%TO.C,R82*%
G36*
G01*
X82755001Y-76610000D02*
X81504999Y-76610000D01*
G75*
G02*
X81255000Y-76360001I0J249999D01*
G01*
X81255000Y-75559999D01*
G75*
G02*
X81504999Y-75310000I249999J0D01*
G01*
X82755001Y-75310000D01*
G75*
G02*
X83005000Y-75559999I0J-249999D01*
G01*
X83005000Y-76360001D01*
G75*
G02*
X82755001Y-76610000I-249999J0D01*
G01*
G37*
G36*
G01*
X82755001Y-79710000D02*
X81504999Y-79710000D01*
G75*
G02*
X81255000Y-79460001I0J249999D01*
G01*
X81255000Y-78659999D01*
G75*
G02*
X81504999Y-78410000I249999J0D01*
G01*
X82755001Y-78410000D01*
G75*
G02*
X83005000Y-78659999I0J-249999D01*
G01*
X83005000Y-79460001D01*
G75*
G02*
X82755001Y-79710000I-249999J0D01*
G01*
G37*
%TD*%
%TO.C,R81*%
G36*
G01*
X85355001Y-76610000D02*
X84104999Y-76610000D01*
G75*
G02*
X83855000Y-76360001I0J249999D01*
G01*
X83855000Y-75559999D01*
G75*
G02*
X84104999Y-75310000I249999J0D01*
G01*
X85355001Y-75310000D01*
G75*
G02*
X85605000Y-75559999I0J-249999D01*
G01*
X85605000Y-76360001D01*
G75*
G02*
X85355001Y-76610000I-249999J0D01*
G01*
G37*
G36*
G01*
X85355001Y-79710000D02*
X84104999Y-79710000D01*
G75*
G02*
X83855000Y-79460001I0J249999D01*
G01*
X83855000Y-78659999D01*
G75*
G02*
X84104999Y-78410000I249999J0D01*
G01*
X85355001Y-78410000D01*
G75*
G02*
X85605000Y-78659999I0J-249999D01*
G01*
X85605000Y-79460001D01*
G75*
G02*
X85355001Y-79710000I-249999J0D01*
G01*
G37*
%TD*%
%TO.C,R80*%
G36*
G01*
X88755001Y-76610000D02*
X87504999Y-76610000D01*
G75*
G02*
X87255000Y-76360001I0J249999D01*
G01*
X87255000Y-75559999D01*
G75*
G02*
X87504999Y-75310000I249999J0D01*
G01*
X88755001Y-75310000D01*
G75*
G02*
X89005000Y-75559999I0J-249999D01*
G01*
X89005000Y-76360001D01*
G75*
G02*
X88755001Y-76610000I-249999J0D01*
G01*
G37*
G36*
G01*
X88755001Y-79710000D02*
X87504999Y-79710000D01*
G75*
G02*
X87255000Y-79460001I0J249999D01*
G01*
X87255000Y-78659999D01*
G75*
G02*
X87504999Y-78410000I249999J0D01*
G01*
X88755001Y-78410000D01*
G75*
G02*
X89005000Y-78659999I0J-249999D01*
G01*
X89005000Y-79460001D01*
G75*
G02*
X88755001Y-79710000I-249999J0D01*
G01*
G37*
%TD*%
%TO.C,R79*%
G36*
G01*
X91355001Y-76610000D02*
X90104999Y-76610000D01*
G75*
G02*
X89855000Y-76360001I0J249999D01*
G01*
X89855000Y-75559999D01*
G75*
G02*
X90104999Y-75310000I249999J0D01*
G01*
X91355001Y-75310000D01*
G75*
G02*
X91605000Y-75559999I0J-249999D01*
G01*
X91605000Y-76360001D01*
G75*
G02*
X91355001Y-76610000I-249999J0D01*
G01*
G37*
G36*
G01*
X91355001Y-79710000D02*
X90104999Y-79710000D01*
G75*
G02*
X89855000Y-79460001I0J249999D01*
G01*
X89855000Y-78659999D01*
G75*
G02*
X90104999Y-78410000I249999J0D01*
G01*
X91355001Y-78410000D01*
G75*
G02*
X91605000Y-78659999I0J-249999D01*
G01*
X91605000Y-79460001D01*
G75*
G02*
X91355001Y-79710000I-249999J0D01*
G01*
G37*
%TD*%
%TO.C,R78*%
G36*
G01*
X177555001Y-76550000D02*
X176304999Y-76550000D01*
G75*
G02*
X176055000Y-76300001I0J249999D01*
G01*
X176055000Y-75499999D01*
G75*
G02*
X176304999Y-75250000I249999J0D01*
G01*
X177555001Y-75250000D01*
G75*
G02*
X177805000Y-75499999I0J-249999D01*
G01*
X177805000Y-76300001D01*
G75*
G02*
X177555001Y-76550000I-249999J0D01*
G01*
G37*
G36*
G01*
X177555001Y-79650000D02*
X176304999Y-79650000D01*
G75*
G02*
X176055000Y-79400001I0J249999D01*
G01*
X176055000Y-78599999D01*
G75*
G02*
X176304999Y-78350000I249999J0D01*
G01*
X177555001Y-78350000D01*
G75*
G02*
X177805000Y-78599999I0J-249999D01*
G01*
X177805000Y-79400001D01*
G75*
G02*
X177555001Y-79650000I-249999J0D01*
G01*
G37*
%TD*%
%TO.C,R77*%
G36*
G01*
X180255001Y-76550000D02*
X179004999Y-76550000D01*
G75*
G02*
X178755000Y-76300001I0J249999D01*
G01*
X178755000Y-75499999D01*
G75*
G02*
X179004999Y-75250000I249999J0D01*
G01*
X180255001Y-75250000D01*
G75*
G02*
X180505000Y-75499999I0J-249999D01*
G01*
X180505000Y-76300001D01*
G75*
G02*
X180255001Y-76550000I-249999J0D01*
G01*
G37*
G36*
G01*
X180255001Y-79650000D02*
X179004999Y-79650000D01*
G75*
G02*
X178755000Y-79400001I0J249999D01*
G01*
X178755000Y-78599999D01*
G75*
G02*
X179004999Y-78350000I249999J0D01*
G01*
X180255001Y-78350000D01*
G75*
G02*
X180505000Y-78599999I0J-249999D01*
G01*
X180505000Y-79400001D01*
G75*
G02*
X180255001Y-79650000I-249999J0D01*
G01*
G37*
%TD*%
%TO.C,R76*%
G36*
G01*
X183655001Y-76550000D02*
X182404999Y-76550000D01*
G75*
G02*
X182155000Y-76300001I0J249999D01*
G01*
X182155000Y-75499999D01*
G75*
G02*
X182404999Y-75250000I249999J0D01*
G01*
X183655001Y-75250000D01*
G75*
G02*
X183905000Y-75499999I0J-249999D01*
G01*
X183905000Y-76300001D01*
G75*
G02*
X183655001Y-76550000I-249999J0D01*
G01*
G37*
G36*
G01*
X183655001Y-79650000D02*
X182404999Y-79650000D01*
G75*
G02*
X182155000Y-79400001I0J249999D01*
G01*
X182155000Y-78599999D01*
G75*
G02*
X182404999Y-78350000I249999J0D01*
G01*
X183655001Y-78350000D01*
G75*
G02*
X183905000Y-78599999I0J-249999D01*
G01*
X183905000Y-79400001D01*
G75*
G02*
X183655001Y-79650000I-249999J0D01*
G01*
G37*
%TD*%
%TO.C,R75*%
G36*
G01*
X186255001Y-76550000D02*
X185004999Y-76550000D01*
G75*
G02*
X184755000Y-76300001I0J249999D01*
G01*
X184755000Y-75499999D01*
G75*
G02*
X185004999Y-75250000I249999J0D01*
G01*
X186255001Y-75250000D01*
G75*
G02*
X186505000Y-75499999I0J-249999D01*
G01*
X186505000Y-76300001D01*
G75*
G02*
X186255001Y-76550000I-249999J0D01*
G01*
G37*
G36*
G01*
X186255001Y-79650000D02*
X185004999Y-79650000D01*
G75*
G02*
X184755000Y-79400001I0J249999D01*
G01*
X184755000Y-78599999D01*
G75*
G02*
X185004999Y-78350000I249999J0D01*
G01*
X186255001Y-78350000D01*
G75*
G02*
X186505000Y-78599999I0J-249999D01*
G01*
X186505000Y-79400001D01*
G75*
G02*
X186255001Y-79650000I-249999J0D01*
G01*
G37*
%TD*%
%TO.C,R74*%
G36*
G01*
X189655001Y-76550000D02*
X188404999Y-76550000D01*
G75*
G02*
X188155000Y-76300001I0J249999D01*
G01*
X188155000Y-75499999D01*
G75*
G02*
X188404999Y-75250000I249999J0D01*
G01*
X189655001Y-75250000D01*
G75*
G02*
X189905000Y-75499999I0J-249999D01*
G01*
X189905000Y-76300001D01*
G75*
G02*
X189655001Y-76550000I-249999J0D01*
G01*
G37*
G36*
G01*
X189655001Y-79650000D02*
X188404999Y-79650000D01*
G75*
G02*
X188155000Y-79400001I0J249999D01*
G01*
X188155000Y-78599999D01*
G75*
G02*
X188404999Y-78350000I249999J0D01*
G01*
X189655001Y-78350000D01*
G75*
G02*
X189905000Y-78599999I0J-249999D01*
G01*
X189905000Y-79400001D01*
G75*
G02*
X189655001Y-79650000I-249999J0D01*
G01*
G37*
%TD*%
%TO.C,R73*%
G36*
G01*
X192255001Y-76550000D02*
X191004999Y-76550000D01*
G75*
G02*
X190755000Y-76300001I0J249999D01*
G01*
X190755000Y-75499999D01*
G75*
G02*
X191004999Y-75250000I249999J0D01*
G01*
X192255001Y-75250000D01*
G75*
G02*
X192505000Y-75499999I0J-249999D01*
G01*
X192505000Y-76300001D01*
G75*
G02*
X192255001Y-76550000I-249999J0D01*
G01*
G37*
G36*
G01*
X192255001Y-79650000D02*
X191004999Y-79650000D01*
G75*
G02*
X190755000Y-79400001I0J249999D01*
G01*
X190755000Y-78599999D01*
G75*
G02*
X191004999Y-78350000I249999J0D01*
G01*
X192255001Y-78350000D01*
G75*
G02*
X192505000Y-78599999I0J-249999D01*
G01*
X192505000Y-79400001D01*
G75*
G02*
X192255001Y-79650000I-249999J0D01*
G01*
G37*
%TD*%
%TO.C,R72*%
G36*
G01*
X140685001Y-76600000D02*
X139434999Y-76600000D01*
G75*
G02*
X139185000Y-76350001I0J249999D01*
G01*
X139185000Y-75549999D01*
G75*
G02*
X139434999Y-75300000I249999J0D01*
G01*
X140685001Y-75300000D01*
G75*
G02*
X140935000Y-75549999I0J-249999D01*
G01*
X140935000Y-76350001D01*
G75*
G02*
X140685001Y-76600000I-249999J0D01*
G01*
G37*
G36*
G01*
X140685001Y-79700000D02*
X139434999Y-79700000D01*
G75*
G02*
X139185000Y-79450001I0J249999D01*
G01*
X139185000Y-78649999D01*
G75*
G02*
X139434999Y-78400000I249999J0D01*
G01*
X140685001Y-78400000D01*
G75*
G02*
X140935000Y-78649999I0J-249999D01*
G01*
X140935000Y-79450001D01*
G75*
G02*
X140685001Y-79700000I-249999J0D01*
G01*
G37*
%TD*%
%TO.C,R71*%
G36*
G01*
X143385001Y-76600000D02*
X142134999Y-76600000D01*
G75*
G02*
X141885000Y-76350001I0J249999D01*
G01*
X141885000Y-75549999D01*
G75*
G02*
X142134999Y-75300000I249999J0D01*
G01*
X143385001Y-75300000D01*
G75*
G02*
X143635000Y-75549999I0J-249999D01*
G01*
X143635000Y-76350001D01*
G75*
G02*
X143385001Y-76600000I-249999J0D01*
G01*
G37*
G36*
G01*
X143385001Y-79700000D02*
X142134999Y-79700000D01*
G75*
G02*
X141885000Y-79450001I0J249999D01*
G01*
X141885000Y-78649999D01*
G75*
G02*
X142134999Y-78400000I249999J0D01*
G01*
X143385001Y-78400000D01*
G75*
G02*
X143635000Y-78649999I0J-249999D01*
G01*
X143635000Y-79450001D01*
G75*
G02*
X143385001Y-79700000I-249999J0D01*
G01*
G37*
%TD*%
%TO.C,R70*%
G36*
G01*
X146785001Y-76600000D02*
X145534999Y-76600000D01*
G75*
G02*
X145285000Y-76350001I0J249999D01*
G01*
X145285000Y-75549999D01*
G75*
G02*
X145534999Y-75300000I249999J0D01*
G01*
X146785001Y-75300000D01*
G75*
G02*
X147035000Y-75549999I0J-249999D01*
G01*
X147035000Y-76350001D01*
G75*
G02*
X146785001Y-76600000I-249999J0D01*
G01*
G37*
G36*
G01*
X146785001Y-79700000D02*
X145534999Y-79700000D01*
G75*
G02*
X145285000Y-79450001I0J249999D01*
G01*
X145285000Y-78649999D01*
G75*
G02*
X145534999Y-78400000I249999J0D01*
G01*
X146785001Y-78400000D01*
G75*
G02*
X147035000Y-78649999I0J-249999D01*
G01*
X147035000Y-79450001D01*
G75*
G02*
X146785001Y-79700000I-249999J0D01*
G01*
G37*
%TD*%
%TO.C,R69*%
G36*
G01*
X149385001Y-76600000D02*
X148134999Y-76600000D01*
G75*
G02*
X147885000Y-76350001I0J249999D01*
G01*
X147885000Y-75549999D01*
G75*
G02*
X148134999Y-75300000I249999J0D01*
G01*
X149385001Y-75300000D01*
G75*
G02*
X149635000Y-75549999I0J-249999D01*
G01*
X149635000Y-76350001D01*
G75*
G02*
X149385001Y-76600000I-249999J0D01*
G01*
G37*
G36*
G01*
X149385001Y-79700000D02*
X148134999Y-79700000D01*
G75*
G02*
X147885000Y-79450001I0J249999D01*
G01*
X147885000Y-78649999D01*
G75*
G02*
X148134999Y-78400000I249999J0D01*
G01*
X149385001Y-78400000D01*
G75*
G02*
X149635000Y-78649999I0J-249999D01*
G01*
X149635000Y-79450001D01*
G75*
G02*
X149385001Y-79700000I-249999J0D01*
G01*
G37*
%TD*%
%TO.C,R68*%
G36*
G01*
X152785001Y-76600000D02*
X151534999Y-76600000D01*
G75*
G02*
X151285000Y-76350001I0J249999D01*
G01*
X151285000Y-75549999D01*
G75*
G02*
X151534999Y-75300000I249999J0D01*
G01*
X152785001Y-75300000D01*
G75*
G02*
X153035000Y-75549999I0J-249999D01*
G01*
X153035000Y-76350001D01*
G75*
G02*
X152785001Y-76600000I-249999J0D01*
G01*
G37*
G36*
G01*
X152785001Y-79700000D02*
X151534999Y-79700000D01*
G75*
G02*
X151285000Y-79450001I0J249999D01*
G01*
X151285000Y-78649999D01*
G75*
G02*
X151534999Y-78400000I249999J0D01*
G01*
X152785001Y-78400000D01*
G75*
G02*
X153035000Y-78649999I0J-249999D01*
G01*
X153035000Y-79450001D01*
G75*
G02*
X152785001Y-79700000I-249999J0D01*
G01*
G37*
%TD*%
%TO.C,R67*%
G36*
G01*
X155385001Y-76600000D02*
X154134999Y-76600000D01*
G75*
G02*
X153885000Y-76350001I0J249999D01*
G01*
X153885000Y-75549999D01*
G75*
G02*
X154134999Y-75300000I249999J0D01*
G01*
X155385001Y-75300000D01*
G75*
G02*
X155635000Y-75549999I0J-249999D01*
G01*
X155635000Y-76350001D01*
G75*
G02*
X155385001Y-76600000I-249999J0D01*
G01*
G37*
G36*
G01*
X155385001Y-79700000D02*
X154134999Y-79700000D01*
G75*
G02*
X153885000Y-79450001I0J249999D01*
G01*
X153885000Y-78649999D01*
G75*
G02*
X154134999Y-78400000I249999J0D01*
G01*
X155385001Y-78400000D01*
G75*
G02*
X155635000Y-78649999I0J-249999D01*
G01*
X155635000Y-79450001D01*
G75*
G02*
X155385001Y-79700000I-249999J0D01*
G01*
G37*
%TD*%
%TO.C,R66*%
G36*
G01*
X260265001Y-102580000D02*
X259014999Y-102580000D01*
G75*
G02*
X258765000Y-102330001I0J249999D01*
G01*
X258765000Y-101529999D01*
G75*
G02*
X259014999Y-101280000I249999J0D01*
G01*
X260265001Y-101280000D01*
G75*
G02*
X260515000Y-101529999I0J-249999D01*
G01*
X260515000Y-102330001D01*
G75*
G02*
X260265001Y-102580000I-249999J0D01*
G01*
G37*
G36*
G01*
X260265001Y-105680000D02*
X259014999Y-105680000D01*
G75*
G02*
X258765000Y-105430001I0J249999D01*
G01*
X258765000Y-104629999D01*
G75*
G02*
X259014999Y-104380000I249999J0D01*
G01*
X260265001Y-104380000D01*
G75*
G02*
X260515000Y-104629999I0J-249999D01*
G01*
X260515000Y-105430001D01*
G75*
G02*
X260265001Y-105680000I-249999J0D01*
G01*
G37*
%TD*%
%TO.C,R65*%
G36*
G01*
X244865001Y-102580000D02*
X243614999Y-102580000D01*
G75*
G02*
X243365000Y-102330001I0J249999D01*
G01*
X243365000Y-101529999D01*
G75*
G02*
X243614999Y-101280000I249999J0D01*
G01*
X244865001Y-101280000D01*
G75*
G02*
X245115000Y-101529999I0J-249999D01*
G01*
X245115000Y-102330001D01*
G75*
G02*
X244865001Y-102580000I-249999J0D01*
G01*
G37*
G36*
G01*
X244865001Y-105680000D02*
X243614999Y-105680000D01*
G75*
G02*
X243365000Y-105430001I0J249999D01*
G01*
X243365000Y-104629999D01*
G75*
G02*
X243614999Y-104380000I249999J0D01*
G01*
X244865001Y-104380000D01*
G75*
G02*
X245115000Y-104629999I0J-249999D01*
G01*
X245115000Y-105430001D01*
G75*
G02*
X244865001Y-105680000I-249999J0D01*
G01*
G37*
%TD*%
%TO.C,R64*%
G36*
G01*
X265090000Y-102705001D02*
X265090000Y-101454999D01*
G75*
G02*
X265339999Y-101205000I249999J0D01*
G01*
X266140001Y-101205000D01*
G75*
G02*
X266390000Y-101454999I0J-249999D01*
G01*
X266390000Y-102705001D01*
G75*
G02*
X266140001Y-102955000I-249999J0D01*
G01*
X265339999Y-102955000D01*
G75*
G02*
X265090000Y-102705001I0J249999D01*
G01*
G37*
G36*
G01*
X261990000Y-102705001D02*
X261990000Y-101454999D01*
G75*
G02*
X262239999Y-101205000I249999J0D01*
G01*
X263040001Y-101205000D01*
G75*
G02*
X263290000Y-101454999I0J-249999D01*
G01*
X263290000Y-102705001D01*
G75*
G02*
X263040001Y-102955000I-249999J0D01*
G01*
X262239999Y-102955000D01*
G75*
G02*
X261990000Y-102705001I0J249999D01*
G01*
G37*
%TD*%
%TO.C,R63*%
G36*
G01*
X249690000Y-102705001D02*
X249690000Y-101454999D01*
G75*
G02*
X249939999Y-101205000I249999J0D01*
G01*
X250740001Y-101205000D01*
G75*
G02*
X250990000Y-101454999I0J-249999D01*
G01*
X250990000Y-102705001D01*
G75*
G02*
X250740001Y-102955000I-249999J0D01*
G01*
X249939999Y-102955000D01*
G75*
G02*
X249690000Y-102705001I0J249999D01*
G01*
G37*
G36*
G01*
X246590000Y-102705001D02*
X246590000Y-101454999D01*
G75*
G02*
X246839999Y-101205000I249999J0D01*
G01*
X247640001Y-101205000D01*
G75*
G02*
X247890000Y-101454999I0J-249999D01*
G01*
X247890000Y-102705001D01*
G75*
G02*
X247640001Y-102955000I-249999J0D01*
G01*
X246839999Y-102955000D01*
G75*
G02*
X246590000Y-102705001I0J249999D01*
G01*
G37*
%TD*%
%TO.C,R62*%
G36*
G01*
X260290000Y-92754999D02*
X260290000Y-94005001D01*
G75*
G02*
X260040001Y-94255000I-249999J0D01*
G01*
X259239999Y-94255000D01*
G75*
G02*
X258990000Y-94005001I0J249999D01*
G01*
X258990000Y-92754999D01*
G75*
G02*
X259239999Y-92505000I249999J0D01*
G01*
X260040001Y-92505000D01*
G75*
G02*
X260290000Y-92754999I0J-249999D01*
G01*
G37*
G36*
G01*
X263390000Y-92754999D02*
X263390000Y-94005001D01*
G75*
G02*
X263140001Y-94255000I-249999J0D01*
G01*
X262339999Y-94255000D01*
G75*
G02*
X262090000Y-94005001I0J249999D01*
G01*
X262090000Y-92754999D01*
G75*
G02*
X262339999Y-92505000I249999J0D01*
G01*
X263140001Y-92505000D01*
G75*
G02*
X263390000Y-92754999I0J-249999D01*
G01*
G37*
%TD*%
%TO.C,R61*%
G36*
G01*
X266290000Y-92754999D02*
X266290000Y-94005001D01*
G75*
G02*
X266040001Y-94255000I-249999J0D01*
G01*
X265239999Y-94255000D01*
G75*
G02*
X264990000Y-94005001I0J249999D01*
G01*
X264990000Y-92754999D01*
G75*
G02*
X265239999Y-92505000I249999J0D01*
G01*
X266040001Y-92505000D01*
G75*
G02*
X266290000Y-92754999I0J-249999D01*
G01*
G37*
G36*
G01*
X269390000Y-92754999D02*
X269390000Y-94005001D01*
G75*
G02*
X269140001Y-94255000I-249999J0D01*
G01*
X268339999Y-94255000D01*
G75*
G02*
X268090000Y-94005001I0J249999D01*
G01*
X268090000Y-92754999D01*
G75*
G02*
X268339999Y-92505000I249999J0D01*
G01*
X269140001Y-92505000D01*
G75*
G02*
X269390000Y-92754999I0J-249999D01*
G01*
G37*
%TD*%
%TO.C,R60*%
G36*
G01*
X244890000Y-92854999D02*
X244890000Y-94105001D01*
G75*
G02*
X244640001Y-94355000I-249999J0D01*
G01*
X243839999Y-94355000D01*
G75*
G02*
X243590000Y-94105001I0J249999D01*
G01*
X243590000Y-92854999D01*
G75*
G02*
X243839999Y-92605000I249999J0D01*
G01*
X244640001Y-92605000D01*
G75*
G02*
X244890000Y-92854999I0J-249999D01*
G01*
G37*
G36*
G01*
X247990000Y-92854999D02*
X247990000Y-94105001D01*
G75*
G02*
X247740001Y-94355000I-249999J0D01*
G01*
X246939999Y-94355000D01*
G75*
G02*
X246690000Y-94105001I0J249999D01*
G01*
X246690000Y-92854999D01*
G75*
G02*
X246939999Y-92605000I249999J0D01*
G01*
X247740001Y-92605000D01*
G75*
G02*
X247990000Y-92854999I0J-249999D01*
G01*
G37*
%TD*%
%TO.C,R59*%
G36*
G01*
X250890000Y-92854999D02*
X250890000Y-94105001D01*
G75*
G02*
X250640001Y-94355000I-249999J0D01*
G01*
X249839999Y-94355000D01*
G75*
G02*
X249590000Y-94105001I0J249999D01*
G01*
X249590000Y-92854999D01*
G75*
G02*
X249839999Y-92605000I249999J0D01*
G01*
X250640001Y-92605000D01*
G75*
G02*
X250890000Y-92854999I0J-249999D01*
G01*
G37*
G36*
G01*
X253990000Y-92854999D02*
X253990000Y-94105001D01*
G75*
G02*
X253740001Y-94355000I-249999J0D01*
G01*
X252939999Y-94355000D01*
G75*
G02*
X252690000Y-94105001I0J249999D01*
G01*
X252690000Y-92854999D01*
G75*
G02*
X252939999Y-92605000I249999J0D01*
G01*
X253740001Y-92605000D01*
G75*
G02*
X253990000Y-92854999I0J-249999D01*
G01*
G37*
%TD*%
%TO.C,R58*%
G36*
G01*
X229775001Y-102600000D02*
X228524999Y-102600000D01*
G75*
G02*
X228275000Y-102350001I0J249999D01*
G01*
X228275000Y-101549999D01*
G75*
G02*
X228524999Y-101300000I249999J0D01*
G01*
X229775001Y-101300000D01*
G75*
G02*
X230025000Y-101549999I0J-249999D01*
G01*
X230025000Y-102350001D01*
G75*
G02*
X229775001Y-102600000I-249999J0D01*
G01*
G37*
G36*
G01*
X229775001Y-105700000D02*
X228524999Y-105700000D01*
G75*
G02*
X228275000Y-105450001I0J249999D01*
G01*
X228275000Y-104649999D01*
G75*
G02*
X228524999Y-104400000I249999J0D01*
G01*
X229775001Y-104400000D01*
G75*
G02*
X230025000Y-104649999I0J-249999D01*
G01*
X230025000Y-105450001D01*
G75*
G02*
X229775001Y-105700000I-249999J0D01*
G01*
G37*
%TD*%
%TO.C,R57*%
G36*
G01*
X214375001Y-102600000D02*
X213124999Y-102600000D01*
G75*
G02*
X212875000Y-102350001I0J249999D01*
G01*
X212875000Y-101549999D01*
G75*
G02*
X213124999Y-101300000I249999J0D01*
G01*
X214375001Y-101300000D01*
G75*
G02*
X214625000Y-101549999I0J-249999D01*
G01*
X214625000Y-102350001D01*
G75*
G02*
X214375001Y-102600000I-249999J0D01*
G01*
G37*
G36*
G01*
X214375001Y-105700000D02*
X213124999Y-105700000D01*
G75*
G02*
X212875000Y-105450001I0J249999D01*
G01*
X212875000Y-104649999D01*
G75*
G02*
X213124999Y-104400000I249999J0D01*
G01*
X214375001Y-104400000D01*
G75*
G02*
X214625000Y-104649999I0J-249999D01*
G01*
X214625000Y-105450001D01*
G75*
G02*
X214375001Y-105700000I-249999J0D01*
G01*
G37*
%TD*%
%TO.C,R56*%
G36*
G01*
X234600000Y-102725001D02*
X234600000Y-101474999D01*
G75*
G02*
X234849999Y-101225000I249999J0D01*
G01*
X235650001Y-101225000D01*
G75*
G02*
X235900000Y-101474999I0J-249999D01*
G01*
X235900000Y-102725001D01*
G75*
G02*
X235650001Y-102975000I-249999J0D01*
G01*
X234849999Y-102975000D01*
G75*
G02*
X234600000Y-102725001I0J249999D01*
G01*
G37*
G36*
G01*
X231500000Y-102725001D02*
X231500000Y-101474999D01*
G75*
G02*
X231749999Y-101225000I249999J0D01*
G01*
X232550001Y-101225000D01*
G75*
G02*
X232800000Y-101474999I0J-249999D01*
G01*
X232800000Y-102725001D01*
G75*
G02*
X232550001Y-102975000I-249999J0D01*
G01*
X231749999Y-102975000D01*
G75*
G02*
X231500000Y-102725001I0J249999D01*
G01*
G37*
%TD*%
%TO.C,R55*%
G36*
G01*
X219200000Y-102725001D02*
X219200000Y-101474999D01*
G75*
G02*
X219449999Y-101225000I249999J0D01*
G01*
X220250001Y-101225000D01*
G75*
G02*
X220500000Y-101474999I0J-249999D01*
G01*
X220500000Y-102725001D01*
G75*
G02*
X220250001Y-102975000I-249999J0D01*
G01*
X219449999Y-102975000D01*
G75*
G02*
X219200000Y-102725001I0J249999D01*
G01*
G37*
G36*
G01*
X216100000Y-102725001D02*
X216100000Y-101474999D01*
G75*
G02*
X216349999Y-101225000I249999J0D01*
G01*
X217150001Y-101225000D01*
G75*
G02*
X217400000Y-101474999I0J-249999D01*
G01*
X217400000Y-102725001D01*
G75*
G02*
X217150001Y-102975000I-249999J0D01*
G01*
X216349999Y-102975000D01*
G75*
G02*
X216100000Y-102725001I0J249999D01*
G01*
G37*
%TD*%
%TO.C,R54*%
G36*
G01*
X229800000Y-92774999D02*
X229800000Y-94025001D01*
G75*
G02*
X229550001Y-94275000I-249999J0D01*
G01*
X228749999Y-94275000D01*
G75*
G02*
X228500000Y-94025001I0J249999D01*
G01*
X228500000Y-92774999D01*
G75*
G02*
X228749999Y-92525000I249999J0D01*
G01*
X229550001Y-92525000D01*
G75*
G02*
X229800000Y-92774999I0J-249999D01*
G01*
G37*
G36*
G01*
X232900000Y-92774999D02*
X232900000Y-94025001D01*
G75*
G02*
X232650001Y-94275000I-249999J0D01*
G01*
X231849999Y-94275000D01*
G75*
G02*
X231600000Y-94025001I0J249999D01*
G01*
X231600000Y-92774999D01*
G75*
G02*
X231849999Y-92525000I249999J0D01*
G01*
X232650001Y-92525000D01*
G75*
G02*
X232900000Y-92774999I0J-249999D01*
G01*
G37*
%TD*%
%TO.C,R53*%
G36*
G01*
X235800000Y-92774999D02*
X235800000Y-94025001D01*
G75*
G02*
X235550001Y-94275000I-249999J0D01*
G01*
X234749999Y-94275000D01*
G75*
G02*
X234500000Y-94025001I0J249999D01*
G01*
X234500000Y-92774999D01*
G75*
G02*
X234749999Y-92525000I249999J0D01*
G01*
X235550001Y-92525000D01*
G75*
G02*
X235800000Y-92774999I0J-249999D01*
G01*
G37*
G36*
G01*
X238900000Y-92774999D02*
X238900000Y-94025001D01*
G75*
G02*
X238650001Y-94275000I-249999J0D01*
G01*
X237849999Y-94275000D01*
G75*
G02*
X237600000Y-94025001I0J249999D01*
G01*
X237600000Y-92774999D01*
G75*
G02*
X237849999Y-92525000I249999J0D01*
G01*
X238650001Y-92525000D01*
G75*
G02*
X238900000Y-92774999I0J-249999D01*
G01*
G37*
%TD*%
%TO.C,R52*%
G36*
G01*
X214400000Y-92874999D02*
X214400000Y-94125001D01*
G75*
G02*
X214150001Y-94375000I-249999J0D01*
G01*
X213349999Y-94375000D01*
G75*
G02*
X213100000Y-94125001I0J249999D01*
G01*
X213100000Y-92874999D01*
G75*
G02*
X213349999Y-92625000I249999J0D01*
G01*
X214150001Y-92625000D01*
G75*
G02*
X214400000Y-92874999I0J-249999D01*
G01*
G37*
G36*
G01*
X217500000Y-92874999D02*
X217500000Y-94125001D01*
G75*
G02*
X217250001Y-94375000I-249999J0D01*
G01*
X216449999Y-94375000D01*
G75*
G02*
X216200000Y-94125001I0J249999D01*
G01*
X216200000Y-92874999D01*
G75*
G02*
X216449999Y-92625000I249999J0D01*
G01*
X217250001Y-92625000D01*
G75*
G02*
X217500000Y-92874999I0J-249999D01*
G01*
G37*
%TD*%
%TO.C,R51*%
G36*
G01*
X220400000Y-92874999D02*
X220400000Y-94125001D01*
G75*
G02*
X220150001Y-94375000I-249999J0D01*
G01*
X219349999Y-94375000D01*
G75*
G02*
X219100000Y-94125001I0J249999D01*
G01*
X219100000Y-92874999D01*
G75*
G02*
X219349999Y-92625000I249999J0D01*
G01*
X220150001Y-92625000D01*
G75*
G02*
X220400000Y-92874999I0J-249999D01*
G01*
G37*
G36*
G01*
X223500000Y-92874999D02*
X223500000Y-94125001D01*
G75*
G02*
X223250001Y-94375000I-249999J0D01*
G01*
X222449999Y-94375000D01*
G75*
G02*
X222200000Y-94125001I0J249999D01*
G01*
X222200000Y-92874999D01*
G75*
G02*
X222449999Y-92625000I249999J0D01*
G01*
X223250001Y-92625000D01*
G75*
G02*
X223500000Y-92874999I0J-249999D01*
G01*
G37*
%TD*%
%TO.C,R48*%
G36*
G01*
X196940001Y-102825000D02*
X195689999Y-102825000D01*
G75*
G02*
X195440000Y-102575001I0J249999D01*
G01*
X195440000Y-101774999D01*
G75*
G02*
X195689999Y-101525000I249999J0D01*
G01*
X196940001Y-101525000D01*
G75*
G02*
X197190000Y-101774999I0J-249999D01*
G01*
X197190000Y-102575001D01*
G75*
G02*
X196940001Y-102825000I-249999J0D01*
G01*
G37*
G36*
G01*
X196940001Y-105925000D02*
X195689999Y-105925000D01*
G75*
G02*
X195440000Y-105675001I0J249999D01*
G01*
X195440000Y-104874999D01*
G75*
G02*
X195689999Y-104625000I249999J0D01*
G01*
X196940001Y-104625000D01*
G75*
G02*
X197190000Y-104874999I0J-249999D01*
G01*
X197190000Y-105675001D01*
G75*
G02*
X196940001Y-105925000I-249999J0D01*
G01*
G37*
%TD*%
%TO.C,R47*%
G36*
G01*
X181690001Y-102825000D02*
X180439999Y-102825000D01*
G75*
G02*
X180190000Y-102575001I0J249999D01*
G01*
X180190000Y-101774999D01*
G75*
G02*
X180439999Y-101525000I249999J0D01*
G01*
X181690001Y-101525000D01*
G75*
G02*
X181940000Y-101774999I0J-249999D01*
G01*
X181940000Y-102575001D01*
G75*
G02*
X181690001Y-102825000I-249999J0D01*
G01*
G37*
G36*
G01*
X181690001Y-105925000D02*
X180439999Y-105925000D01*
G75*
G02*
X180190000Y-105675001I0J249999D01*
G01*
X180190000Y-104874999D01*
G75*
G02*
X180439999Y-104625000I249999J0D01*
G01*
X181690001Y-104625000D01*
G75*
G02*
X181940000Y-104874999I0J-249999D01*
G01*
X181940000Y-105675001D01*
G75*
G02*
X181690001Y-105925000I-249999J0D01*
G01*
G37*
%TD*%
%TO.C,R46*%
G36*
G01*
X46600000Y-101524999D02*
X46600000Y-102775001D01*
G75*
G02*
X46350001Y-103025000I-249999J0D01*
G01*
X45549999Y-103025000D01*
G75*
G02*
X45300000Y-102775001I0J249999D01*
G01*
X45300000Y-101524999D01*
G75*
G02*
X45549999Y-101275000I249999J0D01*
G01*
X46350001Y-101275000D01*
G75*
G02*
X46600000Y-101524999I0J-249999D01*
G01*
G37*
G36*
G01*
X49700000Y-101524999D02*
X49700000Y-102775001D01*
G75*
G02*
X49450001Y-103025000I-249999J0D01*
G01*
X48649999Y-103025000D01*
G75*
G02*
X48400000Y-102775001I0J249999D01*
G01*
X48400000Y-101524999D01*
G75*
G02*
X48649999Y-101275000I249999J0D01*
G01*
X49450001Y-101275000D01*
G75*
G02*
X49700000Y-101524999I0J-249999D01*
G01*
G37*
%TD*%
%TO.C,R45*%
G36*
G01*
X183965000Y-101549999D02*
X183965000Y-102800001D01*
G75*
G02*
X183715001Y-103050000I-249999J0D01*
G01*
X182914999Y-103050000D01*
G75*
G02*
X182665000Y-102800001I0J249999D01*
G01*
X182665000Y-101549999D01*
G75*
G02*
X182914999Y-101300000I249999J0D01*
G01*
X183715001Y-101300000D01*
G75*
G02*
X183965000Y-101549999I0J-249999D01*
G01*
G37*
G36*
G01*
X187065000Y-101549999D02*
X187065000Y-102800001D01*
G75*
G02*
X186815001Y-103050000I-249999J0D01*
G01*
X186014999Y-103050000D01*
G75*
G02*
X185765000Y-102800001I0J249999D01*
G01*
X185765000Y-101549999D01*
G75*
G02*
X186014999Y-101300000I249999J0D01*
G01*
X186815001Y-101300000D01*
G75*
G02*
X187065000Y-101549999I0J-249999D01*
G01*
G37*
%TD*%
%TO.C,R44*%
G36*
G01*
X194240001Y-94075000D02*
X192989999Y-94075000D01*
G75*
G02*
X192740000Y-93825001I0J249999D01*
G01*
X192740000Y-93024999D01*
G75*
G02*
X192989999Y-92775000I249999J0D01*
G01*
X194240001Y-92775000D01*
G75*
G02*
X194490000Y-93024999I0J-249999D01*
G01*
X194490000Y-93825001D01*
G75*
G02*
X194240001Y-94075000I-249999J0D01*
G01*
G37*
G36*
G01*
X194240001Y-97175000D02*
X192989999Y-97175000D01*
G75*
G02*
X192740000Y-96925001I0J249999D01*
G01*
X192740000Y-96124999D01*
G75*
G02*
X192989999Y-95875000I249999J0D01*
G01*
X194240001Y-95875000D01*
G75*
G02*
X194490000Y-96124999I0J-249999D01*
G01*
X194490000Y-96925001D01*
G75*
G02*
X194240001Y-97175000I-249999J0D01*
G01*
G37*
%TD*%
%TO.C,R43*%
G36*
G01*
X203215000Y-92899999D02*
X203215000Y-94150001D01*
G75*
G02*
X202965001Y-94400000I-249999J0D01*
G01*
X202164999Y-94400000D01*
G75*
G02*
X201915000Y-94150001I0J249999D01*
G01*
X201915000Y-92899999D01*
G75*
G02*
X202164999Y-92650000I249999J0D01*
G01*
X202965001Y-92650000D01*
G75*
G02*
X203215000Y-92899999I0J-249999D01*
G01*
G37*
G36*
G01*
X206315000Y-92899999D02*
X206315000Y-94150001D01*
G75*
G02*
X206065001Y-94400000I-249999J0D01*
G01*
X205264999Y-94400000D01*
G75*
G02*
X205015000Y-94150001I0J249999D01*
G01*
X205015000Y-92899999D01*
G75*
G02*
X205264999Y-92650000I249999J0D01*
G01*
X206065001Y-92650000D01*
G75*
G02*
X206315000Y-92899999I0J-249999D01*
G01*
G37*
%TD*%
%TO.C,R42*%
G36*
G01*
X179040001Y-94125000D02*
X177789999Y-94125000D01*
G75*
G02*
X177540000Y-93875001I0J249999D01*
G01*
X177540000Y-93074999D01*
G75*
G02*
X177789999Y-92825000I249999J0D01*
G01*
X179040001Y-92825000D01*
G75*
G02*
X179290000Y-93074999I0J-249999D01*
G01*
X179290000Y-93875001D01*
G75*
G02*
X179040001Y-94125000I-249999J0D01*
G01*
G37*
G36*
G01*
X179040001Y-97225000D02*
X177789999Y-97225000D01*
G75*
G02*
X177540000Y-96975001I0J249999D01*
G01*
X177540000Y-96174999D01*
G75*
G02*
X177789999Y-95925000I249999J0D01*
G01*
X179040001Y-95925000D01*
G75*
G02*
X179290000Y-96174999I0J-249999D01*
G01*
X179290000Y-96975001D01*
G75*
G02*
X179040001Y-97225000I-249999J0D01*
G01*
G37*
%TD*%
%TO.C,R41*%
G36*
G01*
X187965000Y-92899999D02*
X187965000Y-94150001D01*
G75*
G02*
X187715001Y-94400000I-249999J0D01*
G01*
X186914999Y-94400000D01*
G75*
G02*
X186665000Y-94150001I0J249999D01*
G01*
X186665000Y-92899999D01*
G75*
G02*
X186914999Y-92650000I249999J0D01*
G01*
X187715001Y-92650000D01*
G75*
G02*
X187965000Y-92899999I0J-249999D01*
G01*
G37*
G36*
G01*
X191065000Y-92899999D02*
X191065000Y-94150001D01*
G75*
G02*
X190815001Y-94400000I-249999J0D01*
G01*
X190014999Y-94400000D01*
G75*
G02*
X189765000Y-94150001I0J249999D01*
G01*
X189765000Y-92899999D01*
G75*
G02*
X190014999Y-92650000I249999J0D01*
G01*
X190815001Y-92650000D01*
G75*
G02*
X191065000Y-92899999I0J-249999D01*
G01*
G37*
%TD*%
%TO.C,R38*%
G36*
G01*
X166330001Y-102835000D02*
X165079999Y-102835000D01*
G75*
G02*
X164830000Y-102585001I0J249999D01*
G01*
X164830000Y-101784999D01*
G75*
G02*
X165079999Y-101535000I249999J0D01*
G01*
X166330001Y-101535000D01*
G75*
G02*
X166580000Y-101784999I0J-249999D01*
G01*
X166580000Y-102585001D01*
G75*
G02*
X166330001Y-102835000I-249999J0D01*
G01*
G37*
G36*
G01*
X166330001Y-105935000D02*
X165079999Y-105935000D01*
G75*
G02*
X164830000Y-105685001I0J249999D01*
G01*
X164830000Y-104884999D01*
G75*
G02*
X165079999Y-104635000I249999J0D01*
G01*
X166330001Y-104635000D01*
G75*
G02*
X166580000Y-104884999I0J-249999D01*
G01*
X166580000Y-105685001D01*
G75*
G02*
X166330001Y-105935000I-249999J0D01*
G01*
G37*
%TD*%
%TO.C,R37*%
G36*
G01*
X151080001Y-102835000D02*
X149829999Y-102835000D01*
G75*
G02*
X149580000Y-102585001I0J249999D01*
G01*
X149580000Y-101784999D01*
G75*
G02*
X149829999Y-101535000I249999J0D01*
G01*
X151080001Y-101535000D01*
G75*
G02*
X151330000Y-101784999I0J-249999D01*
G01*
X151330000Y-102585001D01*
G75*
G02*
X151080001Y-102835000I-249999J0D01*
G01*
G37*
G36*
G01*
X151080001Y-105935000D02*
X149829999Y-105935000D01*
G75*
G02*
X149580000Y-105685001I0J249999D01*
G01*
X149580000Y-104884999D01*
G75*
G02*
X149829999Y-104635000I249999J0D01*
G01*
X151080001Y-104635000D01*
G75*
G02*
X151330000Y-104884999I0J-249999D01*
G01*
X151330000Y-105685001D01*
G75*
G02*
X151080001Y-105935000I-249999J0D01*
G01*
G37*
%TD*%
%TO.C,R36*%
G36*
G01*
X77105000Y-101549999D02*
X77105000Y-102800001D01*
G75*
G02*
X76855001Y-103050000I-249999J0D01*
G01*
X76054999Y-103050000D01*
G75*
G02*
X75805000Y-102800001I0J249999D01*
G01*
X75805000Y-101549999D01*
G75*
G02*
X76054999Y-101300000I249999J0D01*
G01*
X76855001Y-101300000D01*
G75*
G02*
X77105000Y-101549999I0J-249999D01*
G01*
G37*
G36*
G01*
X80205000Y-101549999D02*
X80205000Y-102800001D01*
G75*
G02*
X79955001Y-103050000I-249999J0D01*
G01*
X79154999Y-103050000D01*
G75*
G02*
X78905000Y-102800001I0J249999D01*
G01*
X78905000Y-101549999D01*
G75*
G02*
X79154999Y-101300000I249999J0D01*
G01*
X79955001Y-101300000D01*
G75*
G02*
X80205000Y-101549999I0J-249999D01*
G01*
G37*
%TD*%
%TO.C,R35*%
G36*
G01*
X153355000Y-101559999D02*
X153355000Y-102810001D01*
G75*
G02*
X153105001Y-103060000I-249999J0D01*
G01*
X152304999Y-103060000D01*
G75*
G02*
X152055000Y-102810001I0J249999D01*
G01*
X152055000Y-101559999D01*
G75*
G02*
X152304999Y-101310000I249999J0D01*
G01*
X153105001Y-101310000D01*
G75*
G02*
X153355000Y-101559999I0J-249999D01*
G01*
G37*
G36*
G01*
X156455000Y-101559999D02*
X156455000Y-102810001D01*
G75*
G02*
X156205001Y-103060000I-249999J0D01*
G01*
X155404999Y-103060000D01*
G75*
G02*
X155155000Y-102810001I0J249999D01*
G01*
X155155000Y-101559999D01*
G75*
G02*
X155404999Y-101310000I249999J0D01*
G01*
X156205001Y-101310000D01*
G75*
G02*
X156455000Y-101559999I0J-249999D01*
G01*
G37*
%TD*%
%TO.C,R34*%
G36*
G01*
X163630001Y-94085000D02*
X162379999Y-94085000D01*
G75*
G02*
X162130000Y-93835001I0J249999D01*
G01*
X162130000Y-93034999D01*
G75*
G02*
X162379999Y-92785000I249999J0D01*
G01*
X163630001Y-92785000D01*
G75*
G02*
X163880000Y-93034999I0J-249999D01*
G01*
X163880000Y-93835001D01*
G75*
G02*
X163630001Y-94085000I-249999J0D01*
G01*
G37*
G36*
G01*
X163630001Y-97185000D02*
X162379999Y-97185000D01*
G75*
G02*
X162130000Y-96935001I0J249999D01*
G01*
X162130000Y-96134999D01*
G75*
G02*
X162379999Y-95885000I249999J0D01*
G01*
X163630001Y-95885000D01*
G75*
G02*
X163880000Y-96134999I0J-249999D01*
G01*
X163880000Y-96935001D01*
G75*
G02*
X163630001Y-97185000I-249999J0D01*
G01*
G37*
%TD*%
%TO.C,R33*%
G36*
G01*
X172605000Y-92909999D02*
X172605000Y-94160001D01*
G75*
G02*
X172355001Y-94410000I-249999J0D01*
G01*
X171554999Y-94410000D01*
G75*
G02*
X171305000Y-94160001I0J249999D01*
G01*
X171305000Y-92909999D01*
G75*
G02*
X171554999Y-92660000I249999J0D01*
G01*
X172355001Y-92660000D01*
G75*
G02*
X172605000Y-92909999I0J-249999D01*
G01*
G37*
G36*
G01*
X175705000Y-92909999D02*
X175705000Y-94160001D01*
G75*
G02*
X175455001Y-94410000I-249999J0D01*
G01*
X174654999Y-94410000D01*
G75*
G02*
X174405000Y-94160001I0J249999D01*
G01*
X174405000Y-92909999D01*
G75*
G02*
X174654999Y-92660000I249999J0D01*
G01*
X175455001Y-92660000D01*
G75*
G02*
X175705000Y-92909999I0J-249999D01*
G01*
G37*
%TD*%
%TO.C,R32*%
G36*
G01*
X148430001Y-94135000D02*
X147179999Y-94135000D01*
G75*
G02*
X146930000Y-93885001I0J249999D01*
G01*
X146930000Y-93084999D01*
G75*
G02*
X147179999Y-92835000I249999J0D01*
G01*
X148430001Y-92835000D01*
G75*
G02*
X148680000Y-93084999I0J-249999D01*
G01*
X148680000Y-93885001D01*
G75*
G02*
X148430001Y-94135000I-249999J0D01*
G01*
G37*
G36*
G01*
X148430001Y-97235000D02*
X147179999Y-97235000D01*
G75*
G02*
X146930000Y-96985001I0J249999D01*
G01*
X146930000Y-96184999D01*
G75*
G02*
X147179999Y-95935000I249999J0D01*
G01*
X148430001Y-95935000D01*
G75*
G02*
X148680000Y-96184999I0J-249999D01*
G01*
X148680000Y-96985001D01*
G75*
G02*
X148430001Y-97235000I-249999J0D01*
G01*
G37*
%TD*%
%TO.C,R31*%
G36*
G01*
X157355000Y-92909999D02*
X157355000Y-94160001D01*
G75*
G02*
X157105001Y-94410000I-249999J0D01*
G01*
X156304999Y-94410000D01*
G75*
G02*
X156055000Y-94160001I0J249999D01*
G01*
X156055000Y-92909999D01*
G75*
G02*
X156304999Y-92660000I249999J0D01*
G01*
X157105001Y-92660000D01*
G75*
G02*
X157355000Y-92909999I0J-249999D01*
G01*
G37*
G36*
G01*
X160455000Y-92909999D02*
X160455000Y-94160001D01*
G75*
G02*
X160205001Y-94410000I-249999J0D01*
G01*
X159404999Y-94410000D01*
G75*
G02*
X159155000Y-94160001I0J249999D01*
G01*
X159155000Y-92909999D01*
G75*
G02*
X159404999Y-92660000I249999J0D01*
G01*
X160205001Y-92660000D01*
G75*
G02*
X160455000Y-92909999I0J-249999D01*
G01*
G37*
%TD*%
%TO.C,R28*%
G36*
G01*
X135900001Y-102825000D02*
X134649999Y-102825000D01*
G75*
G02*
X134400000Y-102575001I0J249999D01*
G01*
X134400000Y-101774999D01*
G75*
G02*
X134649999Y-101525000I249999J0D01*
G01*
X135900001Y-101525000D01*
G75*
G02*
X136150000Y-101774999I0J-249999D01*
G01*
X136150000Y-102575001D01*
G75*
G02*
X135900001Y-102825000I-249999J0D01*
G01*
G37*
G36*
G01*
X135900001Y-105925000D02*
X134649999Y-105925000D01*
G75*
G02*
X134400000Y-105675001I0J249999D01*
G01*
X134400000Y-104874999D01*
G75*
G02*
X134649999Y-104625000I249999J0D01*
G01*
X135900001Y-104625000D01*
G75*
G02*
X136150000Y-104874999I0J-249999D01*
G01*
X136150000Y-105675001D01*
G75*
G02*
X135900001Y-105925000I-249999J0D01*
G01*
G37*
%TD*%
%TO.C,R27*%
G36*
G01*
X120650001Y-102825000D02*
X119399999Y-102825000D01*
G75*
G02*
X119150000Y-102575001I0J249999D01*
G01*
X119150000Y-101774999D01*
G75*
G02*
X119399999Y-101525000I249999J0D01*
G01*
X120650001Y-101525000D01*
G75*
G02*
X120900000Y-101774999I0J-249999D01*
G01*
X120900000Y-102575001D01*
G75*
G02*
X120650001Y-102825000I-249999J0D01*
G01*
G37*
G36*
G01*
X120650001Y-105925000D02*
X119399999Y-105925000D01*
G75*
G02*
X119150000Y-105675001I0J249999D01*
G01*
X119150000Y-104874999D01*
G75*
G02*
X119399999Y-104625000I249999J0D01*
G01*
X120650001Y-104625000D01*
G75*
G02*
X120900000Y-104874999I0J-249999D01*
G01*
X120900000Y-105675001D01*
G75*
G02*
X120650001Y-105925000I-249999J0D01*
G01*
G37*
%TD*%
%TO.C,R26*%
G36*
G01*
X107805000Y-101559999D02*
X107805000Y-102810001D01*
G75*
G02*
X107555001Y-103060000I-249999J0D01*
G01*
X106754999Y-103060000D01*
G75*
G02*
X106505000Y-102810001I0J249999D01*
G01*
X106505000Y-101559999D01*
G75*
G02*
X106754999Y-101310000I249999J0D01*
G01*
X107555001Y-101310000D01*
G75*
G02*
X107805000Y-101559999I0J-249999D01*
G01*
G37*
G36*
G01*
X110905000Y-101559999D02*
X110905000Y-102810001D01*
G75*
G02*
X110655001Y-103060000I-249999J0D01*
G01*
X109854999Y-103060000D01*
G75*
G02*
X109605000Y-102810001I0J249999D01*
G01*
X109605000Y-101559999D01*
G75*
G02*
X109854999Y-101310000I249999J0D01*
G01*
X110655001Y-101310000D01*
G75*
G02*
X110905000Y-101559999I0J-249999D01*
G01*
G37*
%TD*%
%TO.C,R25*%
G36*
G01*
X122925000Y-101549999D02*
X122925000Y-102800001D01*
G75*
G02*
X122675001Y-103050000I-249999J0D01*
G01*
X121874999Y-103050000D01*
G75*
G02*
X121625000Y-102800001I0J249999D01*
G01*
X121625000Y-101549999D01*
G75*
G02*
X121874999Y-101300000I249999J0D01*
G01*
X122675001Y-101300000D01*
G75*
G02*
X122925000Y-101549999I0J-249999D01*
G01*
G37*
G36*
G01*
X126025000Y-101549999D02*
X126025000Y-102800001D01*
G75*
G02*
X125775001Y-103050000I-249999J0D01*
G01*
X124974999Y-103050000D01*
G75*
G02*
X124725000Y-102800001I0J249999D01*
G01*
X124725000Y-101549999D01*
G75*
G02*
X124974999Y-101300000I249999J0D01*
G01*
X125775001Y-101300000D01*
G75*
G02*
X126025000Y-101549999I0J-249999D01*
G01*
G37*
%TD*%
%TO.C,R24*%
G36*
G01*
X133200001Y-94075000D02*
X131949999Y-94075000D01*
G75*
G02*
X131700000Y-93825001I0J249999D01*
G01*
X131700000Y-93024999D01*
G75*
G02*
X131949999Y-92775000I249999J0D01*
G01*
X133200001Y-92775000D01*
G75*
G02*
X133450000Y-93024999I0J-249999D01*
G01*
X133450000Y-93825001D01*
G75*
G02*
X133200001Y-94075000I-249999J0D01*
G01*
G37*
G36*
G01*
X133200001Y-97175000D02*
X131949999Y-97175000D01*
G75*
G02*
X131700000Y-96925001I0J249999D01*
G01*
X131700000Y-96124999D01*
G75*
G02*
X131949999Y-95875000I249999J0D01*
G01*
X133200001Y-95875000D01*
G75*
G02*
X133450000Y-96124999I0J-249999D01*
G01*
X133450000Y-96925001D01*
G75*
G02*
X133200001Y-97175000I-249999J0D01*
G01*
G37*
%TD*%
%TO.C,R23*%
G36*
G01*
X142175000Y-92899999D02*
X142175000Y-94150001D01*
G75*
G02*
X141925001Y-94400000I-249999J0D01*
G01*
X141124999Y-94400000D01*
G75*
G02*
X140875000Y-94150001I0J249999D01*
G01*
X140875000Y-92899999D01*
G75*
G02*
X141124999Y-92650000I249999J0D01*
G01*
X141925001Y-92650000D01*
G75*
G02*
X142175000Y-92899999I0J-249999D01*
G01*
G37*
G36*
G01*
X145275000Y-92899999D02*
X145275000Y-94150001D01*
G75*
G02*
X145025001Y-94400000I-249999J0D01*
G01*
X144224999Y-94400000D01*
G75*
G02*
X143975000Y-94150001I0J249999D01*
G01*
X143975000Y-92899999D01*
G75*
G02*
X144224999Y-92650000I249999J0D01*
G01*
X145025001Y-92650000D01*
G75*
G02*
X145275000Y-92899999I0J-249999D01*
G01*
G37*
%TD*%
%TO.C,R22*%
G36*
G01*
X118000001Y-94125000D02*
X116749999Y-94125000D01*
G75*
G02*
X116500000Y-93875001I0J249999D01*
G01*
X116500000Y-93074999D01*
G75*
G02*
X116749999Y-92825000I249999J0D01*
G01*
X118000001Y-92825000D01*
G75*
G02*
X118250000Y-93074999I0J-249999D01*
G01*
X118250000Y-93875001D01*
G75*
G02*
X118000001Y-94125000I-249999J0D01*
G01*
G37*
G36*
G01*
X118000001Y-97225000D02*
X116749999Y-97225000D01*
G75*
G02*
X116500000Y-96975001I0J249999D01*
G01*
X116500000Y-96174999D01*
G75*
G02*
X116749999Y-95925000I249999J0D01*
G01*
X118000001Y-95925000D01*
G75*
G02*
X118250000Y-96174999I0J-249999D01*
G01*
X118250000Y-96975001D01*
G75*
G02*
X118000001Y-97225000I-249999J0D01*
G01*
G37*
%TD*%
%TO.C,R21*%
G36*
G01*
X126925000Y-92899999D02*
X126925000Y-94150001D01*
G75*
G02*
X126675001Y-94400000I-249999J0D01*
G01*
X125874999Y-94400000D01*
G75*
G02*
X125625000Y-94150001I0J249999D01*
G01*
X125625000Y-92899999D01*
G75*
G02*
X125874999Y-92650000I249999J0D01*
G01*
X126675001Y-92650000D01*
G75*
G02*
X126925000Y-92899999I0J-249999D01*
G01*
G37*
G36*
G01*
X130025000Y-92899999D02*
X130025000Y-94150001D01*
G75*
G02*
X129775001Y-94400000I-249999J0D01*
G01*
X128974999Y-94400000D01*
G75*
G02*
X128725000Y-94150001I0J249999D01*
G01*
X128725000Y-92899999D01*
G75*
G02*
X128974999Y-92650000I249999J0D01*
G01*
X129775001Y-92650000D01*
G75*
G02*
X130025000Y-92899999I0J-249999D01*
G01*
G37*
%TD*%
%TO.C,R18*%
G36*
G01*
X105530001Y-102835000D02*
X104279999Y-102835000D01*
G75*
G02*
X104030000Y-102585001I0J249999D01*
G01*
X104030000Y-101784999D01*
G75*
G02*
X104279999Y-101535000I249999J0D01*
G01*
X105530001Y-101535000D01*
G75*
G02*
X105780000Y-101784999I0J-249999D01*
G01*
X105780000Y-102585001D01*
G75*
G02*
X105530001Y-102835000I-249999J0D01*
G01*
G37*
G36*
G01*
X105530001Y-105935000D02*
X104279999Y-105935000D01*
G75*
G02*
X104030000Y-105685001I0J249999D01*
G01*
X104030000Y-104884999D01*
G75*
G02*
X104279999Y-104635000I249999J0D01*
G01*
X105530001Y-104635000D01*
G75*
G02*
X105780000Y-104884999I0J-249999D01*
G01*
X105780000Y-105685001D01*
G75*
G02*
X105530001Y-105935000I-249999J0D01*
G01*
G37*
%TD*%
%TO.C,R17*%
G36*
G01*
X90280001Y-102835000D02*
X89029999Y-102835000D01*
G75*
G02*
X88780000Y-102585001I0J249999D01*
G01*
X88780000Y-101784999D01*
G75*
G02*
X89029999Y-101535000I249999J0D01*
G01*
X90280001Y-101535000D01*
G75*
G02*
X90530000Y-101784999I0J-249999D01*
G01*
X90530000Y-102585001D01*
G75*
G02*
X90280001Y-102835000I-249999J0D01*
G01*
G37*
G36*
G01*
X90280001Y-105935000D02*
X89029999Y-105935000D01*
G75*
G02*
X88780000Y-105685001I0J249999D01*
G01*
X88780000Y-104884999D01*
G75*
G02*
X89029999Y-104635000I249999J0D01*
G01*
X90280001Y-104635000D01*
G75*
G02*
X90530000Y-104884999I0J-249999D01*
G01*
X90530000Y-105685001D01*
G75*
G02*
X90280001Y-105935000I-249999J0D01*
G01*
G37*
%TD*%
%TO.C,R16*%
G36*
G01*
X199215000Y-101549999D02*
X199215000Y-102800001D01*
G75*
G02*
X198965001Y-103050000I-249999J0D01*
G01*
X198164999Y-103050000D01*
G75*
G02*
X197915000Y-102800001I0J249999D01*
G01*
X197915000Y-101549999D01*
G75*
G02*
X198164999Y-101300000I249999J0D01*
G01*
X198965001Y-101300000D01*
G75*
G02*
X199215000Y-101549999I0J-249999D01*
G01*
G37*
G36*
G01*
X202315000Y-101549999D02*
X202315000Y-102800001D01*
G75*
G02*
X202065001Y-103050000I-249999J0D01*
G01*
X201264999Y-103050000D01*
G75*
G02*
X201015000Y-102800001I0J249999D01*
G01*
X201015000Y-101549999D01*
G75*
G02*
X201264999Y-101300000I249999J0D01*
G01*
X202065001Y-101300000D01*
G75*
G02*
X202315000Y-101549999I0J-249999D01*
G01*
G37*
%TD*%
%TO.C,R15*%
G36*
G01*
X92555000Y-101559999D02*
X92555000Y-102810001D01*
G75*
G02*
X92305001Y-103060000I-249999J0D01*
G01*
X91504999Y-103060000D01*
G75*
G02*
X91255000Y-102810001I0J249999D01*
G01*
X91255000Y-101559999D01*
G75*
G02*
X91504999Y-101310000I249999J0D01*
G01*
X92305001Y-101310000D01*
G75*
G02*
X92555000Y-101559999I0J-249999D01*
G01*
G37*
G36*
G01*
X95655000Y-101559999D02*
X95655000Y-102810001D01*
G75*
G02*
X95405001Y-103060000I-249999J0D01*
G01*
X94604999Y-103060000D01*
G75*
G02*
X94355000Y-102810001I0J249999D01*
G01*
X94355000Y-101559999D01*
G75*
G02*
X94604999Y-101310000I249999J0D01*
G01*
X95405001Y-101310000D01*
G75*
G02*
X95655000Y-101559999I0J-249999D01*
G01*
G37*
%TD*%
%TO.C,R14*%
G36*
G01*
X102830001Y-94085000D02*
X101579999Y-94085000D01*
G75*
G02*
X101330000Y-93835001I0J249999D01*
G01*
X101330000Y-93034999D01*
G75*
G02*
X101579999Y-92785000I249999J0D01*
G01*
X102830001Y-92785000D01*
G75*
G02*
X103080000Y-93034999I0J-249999D01*
G01*
X103080000Y-93835001D01*
G75*
G02*
X102830001Y-94085000I-249999J0D01*
G01*
G37*
G36*
G01*
X102830001Y-97185000D02*
X101579999Y-97185000D01*
G75*
G02*
X101330000Y-96935001I0J249999D01*
G01*
X101330000Y-96134999D01*
G75*
G02*
X101579999Y-95885000I249999J0D01*
G01*
X102830001Y-95885000D01*
G75*
G02*
X103080000Y-96134999I0J-249999D01*
G01*
X103080000Y-96935001D01*
G75*
G02*
X102830001Y-97185000I-249999J0D01*
G01*
G37*
%TD*%
%TO.C,R13*%
G36*
G01*
X111805000Y-92909999D02*
X111805000Y-94160001D01*
G75*
G02*
X111555001Y-94410000I-249999J0D01*
G01*
X110754999Y-94410000D01*
G75*
G02*
X110505000Y-94160001I0J249999D01*
G01*
X110505000Y-92909999D01*
G75*
G02*
X110754999Y-92660000I249999J0D01*
G01*
X111555001Y-92660000D01*
G75*
G02*
X111805000Y-92909999I0J-249999D01*
G01*
G37*
G36*
G01*
X114905000Y-92909999D02*
X114905000Y-94160001D01*
G75*
G02*
X114655001Y-94410000I-249999J0D01*
G01*
X113854999Y-94410000D01*
G75*
G02*
X113605000Y-94160001I0J249999D01*
G01*
X113605000Y-92909999D01*
G75*
G02*
X113854999Y-92660000I249999J0D01*
G01*
X114655001Y-92660000D01*
G75*
G02*
X114905000Y-92909999I0J-249999D01*
G01*
G37*
%TD*%
%TO.C,R12*%
G36*
G01*
X87630001Y-94135000D02*
X86379999Y-94135000D01*
G75*
G02*
X86130000Y-93885001I0J249999D01*
G01*
X86130000Y-93084999D01*
G75*
G02*
X86379999Y-92835000I249999J0D01*
G01*
X87630001Y-92835000D01*
G75*
G02*
X87880000Y-93084999I0J-249999D01*
G01*
X87880000Y-93885001D01*
G75*
G02*
X87630001Y-94135000I-249999J0D01*
G01*
G37*
G36*
G01*
X87630001Y-97235000D02*
X86379999Y-97235000D01*
G75*
G02*
X86130000Y-96985001I0J249999D01*
G01*
X86130000Y-96184999D01*
G75*
G02*
X86379999Y-95935000I249999J0D01*
G01*
X87630001Y-95935000D01*
G75*
G02*
X87880000Y-96184999I0J-249999D01*
G01*
X87880000Y-96985001D01*
G75*
G02*
X87630001Y-97235000I-249999J0D01*
G01*
G37*
%TD*%
%TO.C,R11*%
G36*
G01*
X96555000Y-92909999D02*
X96555000Y-94160001D01*
G75*
G02*
X96305001Y-94410000I-249999J0D01*
G01*
X95504999Y-94410000D01*
G75*
G02*
X95255000Y-94160001I0J249999D01*
G01*
X95255000Y-92909999D01*
G75*
G02*
X95504999Y-92660000I249999J0D01*
G01*
X96305001Y-92660000D01*
G75*
G02*
X96555000Y-92909999I0J-249999D01*
G01*
G37*
G36*
G01*
X99655000Y-92909999D02*
X99655000Y-94160001D01*
G75*
G02*
X99405001Y-94410000I-249999J0D01*
G01*
X98604999Y-94410000D01*
G75*
G02*
X98355000Y-94160001I0J249999D01*
G01*
X98355000Y-92909999D01*
G75*
G02*
X98604999Y-92660000I249999J0D01*
G01*
X99405001Y-92660000D01*
G75*
G02*
X99655000Y-92909999I0J-249999D01*
G01*
G37*
%TD*%
%TO.C,R8*%
G36*
G01*
X74830001Y-102825000D02*
X73579999Y-102825000D01*
G75*
G02*
X73330000Y-102575001I0J249999D01*
G01*
X73330000Y-101774999D01*
G75*
G02*
X73579999Y-101525000I249999J0D01*
G01*
X74830001Y-101525000D01*
G75*
G02*
X75080000Y-101774999I0J-249999D01*
G01*
X75080000Y-102575001D01*
G75*
G02*
X74830001Y-102825000I-249999J0D01*
G01*
G37*
G36*
G01*
X74830001Y-105925000D02*
X73579999Y-105925000D01*
G75*
G02*
X73330000Y-105675001I0J249999D01*
G01*
X73330000Y-104874999D01*
G75*
G02*
X73579999Y-104625000I249999J0D01*
G01*
X74830001Y-104625000D01*
G75*
G02*
X75080000Y-104874999I0J-249999D01*
G01*
X75080000Y-105675001D01*
G75*
G02*
X74830001Y-105925000I-249999J0D01*
G01*
G37*
%TD*%
%TO.C,R7*%
G36*
G01*
X59580001Y-102825000D02*
X58329999Y-102825000D01*
G75*
G02*
X58080000Y-102575001I0J249999D01*
G01*
X58080000Y-101774999D01*
G75*
G02*
X58329999Y-101525000I249999J0D01*
G01*
X59580001Y-101525000D01*
G75*
G02*
X59830000Y-101774999I0J-249999D01*
G01*
X59830000Y-102575001D01*
G75*
G02*
X59580001Y-102825000I-249999J0D01*
G01*
G37*
G36*
G01*
X59580001Y-105925000D02*
X58329999Y-105925000D01*
G75*
G02*
X58080000Y-105675001I0J249999D01*
G01*
X58080000Y-104874999D01*
G75*
G02*
X58329999Y-104625000I249999J0D01*
G01*
X59580001Y-104625000D01*
G75*
G02*
X59830000Y-104874999I0J-249999D01*
G01*
X59830000Y-105675001D01*
G75*
G02*
X59580001Y-105925000I-249999J0D01*
G01*
G37*
%TD*%
%TO.C,R6*%
G36*
G01*
X138175000Y-101549999D02*
X138175000Y-102800001D01*
G75*
G02*
X137925001Y-103050000I-249999J0D01*
G01*
X137124999Y-103050000D01*
G75*
G02*
X136875000Y-102800001I0J249999D01*
G01*
X136875000Y-101549999D01*
G75*
G02*
X137124999Y-101300000I249999J0D01*
G01*
X137925001Y-101300000D01*
G75*
G02*
X138175000Y-101549999I0J-249999D01*
G01*
G37*
G36*
G01*
X141275000Y-101549999D02*
X141275000Y-102800001D01*
G75*
G02*
X141025001Y-103050000I-249999J0D01*
G01*
X140224999Y-103050000D01*
G75*
G02*
X139975000Y-102800001I0J249999D01*
G01*
X139975000Y-101549999D01*
G75*
G02*
X140224999Y-101300000I249999J0D01*
G01*
X141025001Y-101300000D01*
G75*
G02*
X141275000Y-101549999I0J-249999D01*
G01*
G37*
%TD*%
%TO.C,R5*%
G36*
G01*
X61855000Y-101549999D02*
X61855000Y-102800001D01*
G75*
G02*
X61605001Y-103050000I-249999J0D01*
G01*
X60804999Y-103050000D01*
G75*
G02*
X60555000Y-102800001I0J249999D01*
G01*
X60555000Y-101549999D01*
G75*
G02*
X60804999Y-101300000I249999J0D01*
G01*
X61605001Y-101300000D01*
G75*
G02*
X61855000Y-101549999I0J-249999D01*
G01*
G37*
G36*
G01*
X64955000Y-101549999D02*
X64955000Y-102800001D01*
G75*
G02*
X64705001Y-103050000I-249999J0D01*
G01*
X63904999Y-103050000D01*
G75*
G02*
X63655000Y-102800001I0J249999D01*
G01*
X63655000Y-101549999D01*
G75*
G02*
X63904999Y-101300000I249999J0D01*
G01*
X64705001Y-101300000D01*
G75*
G02*
X64955000Y-101549999I0J-249999D01*
G01*
G37*
%TD*%
%TO.C,R4*%
G36*
G01*
X72130001Y-94075000D02*
X70879999Y-94075000D01*
G75*
G02*
X70630000Y-93825001I0J249999D01*
G01*
X70630000Y-93024999D01*
G75*
G02*
X70879999Y-92775000I249999J0D01*
G01*
X72130001Y-92775000D01*
G75*
G02*
X72380000Y-93024999I0J-249999D01*
G01*
X72380000Y-93825001D01*
G75*
G02*
X72130001Y-94075000I-249999J0D01*
G01*
G37*
G36*
G01*
X72130001Y-97175000D02*
X70879999Y-97175000D01*
G75*
G02*
X70630000Y-96925001I0J249999D01*
G01*
X70630000Y-96124999D01*
G75*
G02*
X70879999Y-95875000I249999J0D01*
G01*
X72130001Y-95875000D01*
G75*
G02*
X72380000Y-96124999I0J-249999D01*
G01*
X72380000Y-96925001D01*
G75*
G02*
X72130001Y-97175000I-249999J0D01*
G01*
G37*
%TD*%
%TO.C,R3*%
G36*
G01*
X81105000Y-92899999D02*
X81105000Y-94150001D01*
G75*
G02*
X80855001Y-94400000I-249999J0D01*
G01*
X80054999Y-94400000D01*
G75*
G02*
X79805000Y-94150001I0J249999D01*
G01*
X79805000Y-92899999D01*
G75*
G02*
X80054999Y-92650000I249999J0D01*
G01*
X80855001Y-92650000D01*
G75*
G02*
X81105000Y-92899999I0J-249999D01*
G01*
G37*
G36*
G01*
X84205000Y-92899999D02*
X84205000Y-94150001D01*
G75*
G02*
X83955001Y-94400000I-249999J0D01*
G01*
X83154999Y-94400000D01*
G75*
G02*
X82905000Y-94150001I0J249999D01*
G01*
X82905000Y-92899999D01*
G75*
G02*
X83154999Y-92650000I249999J0D01*
G01*
X83955001Y-92650000D01*
G75*
G02*
X84205000Y-92899999I0J-249999D01*
G01*
G37*
%TD*%
%TO.C,R2*%
G36*
G01*
X56930001Y-94125000D02*
X55679999Y-94125000D01*
G75*
G02*
X55430000Y-93875001I0J249999D01*
G01*
X55430000Y-93074999D01*
G75*
G02*
X55679999Y-92825000I249999J0D01*
G01*
X56930001Y-92825000D01*
G75*
G02*
X57180000Y-93074999I0J-249999D01*
G01*
X57180000Y-93875001D01*
G75*
G02*
X56930001Y-94125000I-249999J0D01*
G01*
G37*
G36*
G01*
X56930001Y-97225000D02*
X55679999Y-97225000D01*
G75*
G02*
X55430000Y-96975001I0J249999D01*
G01*
X55430000Y-96174999D01*
G75*
G02*
X55679999Y-95925000I249999J0D01*
G01*
X56930001Y-95925000D01*
G75*
G02*
X57180000Y-96174999I0J-249999D01*
G01*
X57180000Y-96975001D01*
G75*
G02*
X56930001Y-97225000I-249999J0D01*
G01*
G37*
%TD*%
%TO.C,R1*%
G36*
G01*
X65855000Y-92899999D02*
X65855000Y-94150001D01*
G75*
G02*
X65605001Y-94400000I-249999J0D01*
G01*
X64804999Y-94400000D01*
G75*
G02*
X64555000Y-94150001I0J249999D01*
G01*
X64555000Y-92899999D01*
G75*
G02*
X64804999Y-92650000I249999J0D01*
G01*
X65605001Y-92650000D01*
G75*
G02*
X65855000Y-92899999I0J-249999D01*
G01*
G37*
G36*
G01*
X68955000Y-92899999D02*
X68955000Y-94150001D01*
G75*
G02*
X68705001Y-94400000I-249999J0D01*
G01*
X67904999Y-94400000D01*
G75*
G02*
X67655000Y-94150001I0J249999D01*
G01*
X67655000Y-92899999D01*
G75*
G02*
X67904999Y-92650000I249999J0D01*
G01*
X68705001Y-92650000D01*
G75*
G02*
X68955000Y-92899999I0J-249999D01*
G01*
G37*
%TD*%
D16*
%TO.C,IC2*%
X43850000Y-99020000D03*
X43850000Y-96480000D03*
X52950000Y-96480000D03*
X52950000Y-99020000D03*
%TD*%
%TO.C,IC1*%
X28600000Y-98990000D03*
X28600000Y-96450000D03*
X37700000Y-96450000D03*
X37700000Y-98990000D03*
%TD*%
%TO.C,IC22*%
X259640000Y-99050000D03*
X259640000Y-96510000D03*
X268740000Y-96510000D03*
X268740000Y-99050000D03*
%TD*%
%TO.C,IC21*%
X244240000Y-99050000D03*
X244240000Y-96510000D03*
X253340000Y-96510000D03*
X253340000Y-99050000D03*
%TD*%
%TO.C,IC20*%
X229150000Y-99070000D03*
X229150000Y-96530000D03*
X238250000Y-96530000D03*
X238250000Y-99070000D03*
%TD*%
%TO.C,IC19*%
X213750000Y-99070000D03*
X213750000Y-96530000D03*
X222850000Y-96530000D03*
X222850000Y-99070000D03*
%TD*%
%TO.C,IC18*%
X196465000Y-99045000D03*
X196465000Y-96505000D03*
X205565000Y-96505000D03*
X205565000Y-99045000D03*
%TD*%
%TO.C,IC17*%
X181215000Y-99015000D03*
X181215000Y-96475000D03*
X190315000Y-96475000D03*
X190315000Y-99015000D03*
%TD*%
%TO.C,IC8*%
X165855000Y-99055000D03*
X165855000Y-96515000D03*
X174955000Y-96515000D03*
X174955000Y-99055000D03*
%TD*%
%TO.C,IC7*%
X150605000Y-99025000D03*
X150605000Y-96485000D03*
X159705000Y-96485000D03*
X159705000Y-99025000D03*
%TD*%
%TO.C,IC6*%
X135425000Y-99045000D03*
X135425000Y-96505000D03*
X144525000Y-96505000D03*
X144525000Y-99045000D03*
%TD*%
%TO.C,IC5*%
X120175000Y-99015000D03*
X120175000Y-96475000D03*
X129275000Y-96475000D03*
X129275000Y-99015000D03*
%TD*%
%TO.C,IC4*%
X105055000Y-99055000D03*
X105055000Y-96515000D03*
X114155000Y-96515000D03*
X114155000Y-99055000D03*
%TD*%
%TO.C,IC3*%
X89805000Y-99025000D03*
X89805000Y-96485000D03*
X98905000Y-96485000D03*
X98905000Y-99025000D03*
%TD*%
%TO.C,IC10*%
X74355000Y-99045000D03*
X74355000Y-96505000D03*
X83455000Y-96505000D03*
X83455000Y-99045000D03*
%TD*%
%TO.C,IC9*%
X59105000Y-99015000D03*
X59105000Y-96475000D03*
X68205000Y-96475000D03*
X68205000Y-99015000D03*
%TD*%
D11*
%TO.C,D18*%
X43850000Y-84250000D03*
X43850000Y-82750000D03*
%TD*%
%TO.C,D17*%
X28450000Y-84250000D03*
X28450000Y-82750000D03*
%TD*%
%TO.C,D14*%
X259730000Y-84255000D03*
X259730000Y-82755000D03*
%TD*%
%TO.C,D13*%
X244490000Y-84255000D03*
X244490000Y-82755000D03*
%TD*%
%TO.C,D12*%
X229240000Y-84275000D03*
X229240000Y-82775000D03*
%TD*%
%TO.C,D11*%
X214000000Y-84275000D03*
X214000000Y-82775000D03*
%TD*%
%TO.C,D10*%
X196465000Y-84275000D03*
X196465000Y-82775000D03*
%TD*%
%TO.C,D9*%
X181065000Y-84275000D03*
X181065000Y-82775000D03*
%TD*%
%TO.C,D8*%
X165855000Y-84285000D03*
X165855000Y-82785000D03*
%TD*%
%TO.C,D7*%
X150455000Y-84285000D03*
X150455000Y-82785000D03*
%TD*%
%TO.C,D6*%
X135425000Y-84275000D03*
X135425000Y-82775000D03*
%TD*%
%TO.C,D5*%
X120025000Y-84275000D03*
X120025000Y-82775000D03*
%TD*%
%TO.C,D4*%
X105055000Y-84285000D03*
X105055000Y-82785000D03*
%TD*%
%TO.C,D2*%
X74355000Y-84275000D03*
X74355000Y-82775000D03*
%TD*%
%TO.C,D1*%
X58955000Y-84275000D03*
X58955000Y-82775000D03*
%TD*%
%TO.C,C34*%
G36*
G01*
X35900003Y-108850000D02*
X34599997Y-108850000D01*
G75*
G02*
X34350000Y-108600003I0J249997D01*
G01*
X34350000Y-107774997D01*
G75*
G02*
X34599997Y-107525000I249997J0D01*
G01*
X35900003Y-107525000D01*
G75*
G02*
X36150000Y-107774997I0J-249997D01*
G01*
X36150000Y-108600003D01*
G75*
G02*
X35900003Y-108850000I-249997J0D01*
G01*
G37*
G36*
G01*
X35900003Y-111975000D02*
X34599997Y-111975000D01*
G75*
G02*
X34350000Y-111725003I0J249997D01*
G01*
X34350000Y-110899997D01*
G75*
G02*
X34599997Y-110650000I249997J0D01*
G01*
X35900003Y-110650000D01*
G75*
G02*
X36150000Y-110899997I0J-249997D01*
G01*
X36150000Y-111725003D01*
G75*
G02*
X35900003Y-111975000I-249997J0D01*
G01*
G37*
%TD*%
%TO.C,C32*%
G36*
G01*
X172955003Y-108897500D02*
X171654997Y-108897500D01*
G75*
G02*
X171405000Y-108647503I0J249997D01*
G01*
X171405000Y-107822497D01*
G75*
G02*
X171654997Y-107572500I249997J0D01*
G01*
X172955003Y-107572500D01*
G75*
G02*
X173205000Y-107822497I0J-249997D01*
G01*
X173205000Y-108647503D01*
G75*
G02*
X172955003Y-108897500I-249997J0D01*
G01*
G37*
G36*
G01*
X172955003Y-112022500D02*
X171654997Y-112022500D01*
G75*
G02*
X171405000Y-111772503I0J249997D01*
G01*
X171405000Y-110947497D01*
G75*
G02*
X171654997Y-110697500I249997J0D01*
G01*
X172955003Y-110697500D01*
G75*
G02*
X173205000Y-110947497I0J-249997D01*
G01*
X173205000Y-111772503D01*
G75*
G02*
X172955003Y-112022500I-249997J0D01*
G01*
G37*
%TD*%
%TO.C,C31*%
G36*
G01*
X123550003Y-67800000D02*
X122249997Y-67800000D01*
G75*
G02*
X122000000Y-67550003I0J249997D01*
G01*
X122000000Y-66724997D01*
G75*
G02*
X122249997Y-66475000I249997J0D01*
G01*
X123550003Y-66475000D01*
G75*
G02*
X123800000Y-66724997I0J-249997D01*
G01*
X123800000Y-67550003D01*
G75*
G02*
X123550003Y-67800000I-249997J0D01*
G01*
G37*
G36*
G01*
X123550003Y-70925000D02*
X122249997Y-70925000D01*
G75*
G02*
X122000000Y-70675003I0J249997D01*
G01*
X122000000Y-69849997D01*
G75*
G02*
X122249997Y-69600000I249997J0D01*
G01*
X123550003Y-69600000D01*
G75*
G02*
X123800000Y-69849997I0J-249997D01*
G01*
X123800000Y-70675003D01*
G75*
G02*
X123550003Y-70925000I-249997J0D01*
G01*
G37*
%TD*%
%TO.C,C30*%
G36*
G01*
X37000000Y-59049997D02*
X37000000Y-60350003D01*
G75*
G02*
X36750003Y-60600000I-249997J0D01*
G01*
X35924997Y-60600000D01*
G75*
G02*
X35675000Y-60350003I0J249997D01*
G01*
X35675000Y-59049997D01*
G75*
G02*
X35924997Y-58800000I249997J0D01*
G01*
X36750003Y-58800000D01*
G75*
G02*
X37000000Y-59049997I0J-249997D01*
G01*
G37*
G36*
G01*
X40125000Y-59049997D02*
X40125000Y-60350003D01*
G75*
G02*
X39875003Y-60600000I-249997J0D01*
G01*
X39049997Y-60600000D01*
G75*
G02*
X38800000Y-60350003I0J249997D01*
G01*
X38800000Y-59049997D01*
G75*
G02*
X39049997Y-58800000I249997J0D01*
G01*
X39875003Y-58800000D01*
G75*
G02*
X40125000Y-59049997I0J-249997D01*
G01*
G37*
%TD*%
%TO.C,C29*%
G36*
G01*
X30937500Y-73049997D02*
X30937500Y-74350003D01*
G75*
G02*
X30687503Y-74600000I-249997J0D01*
G01*
X29862497Y-74600000D01*
G75*
G02*
X29612500Y-74350003I0J249997D01*
G01*
X29612500Y-73049997D01*
G75*
G02*
X29862497Y-72800000I249997J0D01*
G01*
X30687503Y-72800000D01*
G75*
G02*
X30937500Y-73049997I0J-249997D01*
G01*
G37*
G36*
G01*
X34062500Y-73049997D02*
X34062500Y-74350003D01*
G75*
G02*
X33812503Y-74600000I-249997J0D01*
G01*
X32987497Y-74600000D01*
G75*
G02*
X32737500Y-74350003I0J249997D01*
G01*
X32737500Y-73049997D01*
G75*
G02*
X32987497Y-72800000I249997J0D01*
G01*
X33812503Y-72800000D01*
G75*
G02*
X34062500Y-73049997I0J-249997D01*
G01*
G37*
%TD*%
%TO.C,C28*%
G36*
G01*
X37000000Y-73049997D02*
X37000000Y-74350003D01*
G75*
G02*
X36750003Y-74600000I-249997J0D01*
G01*
X35924997Y-74600000D01*
G75*
G02*
X35675000Y-74350003I0J249997D01*
G01*
X35675000Y-73049997D01*
G75*
G02*
X35924997Y-72800000I249997J0D01*
G01*
X36750003Y-72800000D01*
G75*
G02*
X37000000Y-73049997I0J-249997D01*
G01*
G37*
G36*
G01*
X40125000Y-73049997D02*
X40125000Y-74350003D01*
G75*
G02*
X39875003Y-74600000I-249997J0D01*
G01*
X39049997Y-74600000D01*
G75*
G02*
X38800000Y-74350003I0J249997D01*
G01*
X38800000Y-73049997D01*
G75*
G02*
X39049997Y-72800000I249997J0D01*
G01*
X39875003Y-72800000D01*
G75*
G02*
X40125000Y-73049997I0J-249997D01*
G01*
G37*
%TD*%
%TO.C,C27*%
G36*
G01*
X43000000Y-73049997D02*
X43000000Y-74350003D01*
G75*
G02*
X42750003Y-74600000I-249997J0D01*
G01*
X41924997Y-74600000D01*
G75*
G02*
X41675000Y-74350003I0J249997D01*
G01*
X41675000Y-73049997D01*
G75*
G02*
X41924997Y-72800000I249997J0D01*
G01*
X42750003Y-72800000D01*
G75*
G02*
X43000000Y-73049997I0J-249997D01*
G01*
G37*
G36*
G01*
X46125000Y-73049997D02*
X46125000Y-74350003D01*
G75*
G02*
X45875003Y-74600000I-249997J0D01*
G01*
X45049997Y-74600000D01*
G75*
G02*
X44800000Y-74350003I0J249997D01*
G01*
X44800000Y-73049997D01*
G75*
G02*
X45049997Y-72800000I249997J0D01*
G01*
X45875003Y-72800000D01*
G75*
G02*
X46125000Y-73049997I0J-249997D01*
G01*
G37*
%TD*%
%TO.C,C26*%
G36*
G01*
X82530000Y-59059997D02*
X82530000Y-60360003D01*
G75*
G02*
X82280003Y-60610000I-249997J0D01*
G01*
X81454997Y-60610000D01*
G75*
G02*
X81205000Y-60360003I0J249997D01*
G01*
X81205000Y-59059997D01*
G75*
G02*
X81454997Y-58810000I249997J0D01*
G01*
X82280003Y-58810000D01*
G75*
G02*
X82530000Y-59059997I0J-249997D01*
G01*
G37*
G36*
G01*
X85655000Y-59059997D02*
X85655000Y-60360003D01*
G75*
G02*
X85405003Y-60610000I-249997J0D01*
G01*
X84579997Y-60610000D01*
G75*
G02*
X84330000Y-60360003I0J249997D01*
G01*
X84330000Y-59059997D01*
G75*
G02*
X84579997Y-58810000I249997J0D01*
G01*
X85405003Y-58810000D01*
G75*
G02*
X85655000Y-59059997I0J-249997D01*
G01*
G37*
%TD*%
%TO.C,C25*%
G36*
G01*
X76467500Y-73059997D02*
X76467500Y-74360003D01*
G75*
G02*
X76217503Y-74610000I-249997J0D01*
G01*
X75392497Y-74610000D01*
G75*
G02*
X75142500Y-74360003I0J249997D01*
G01*
X75142500Y-73059997D01*
G75*
G02*
X75392497Y-72810000I249997J0D01*
G01*
X76217503Y-72810000D01*
G75*
G02*
X76467500Y-73059997I0J-249997D01*
G01*
G37*
G36*
G01*
X79592500Y-73059997D02*
X79592500Y-74360003D01*
G75*
G02*
X79342503Y-74610000I-249997J0D01*
G01*
X78517497Y-74610000D01*
G75*
G02*
X78267500Y-74360003I0J249997D01*
G01*
X78267500Y-73059997D01*
G75*
G02*
X78517497Y-72810000I249997J0D01*
G01*
X79342503Y-72810000D01*
G75*
G02*
X79592500Y-73059997I0J-249997D01*
G01*
G37*
%TD*%
%TO.C,C24*%
G36*
G01*
X82530000Y-73059997D02*
X82530000Y-74360003D01*
G75*
G02*
X82280003Y-74610000I-249997J0D01*
G01*
X81454997Y-74610000D01*
G75*
G02*
X81205000Y-74360003I0J249997D01*
G01*
X81205000Y-73059997D01*
G75*
G02*
X81454997Y-72810000I249997J0D01*
G01*
X82280003Y-72810000D01*
G75*
G02*
X82530000Y-73059997I0J-249997D01*
G01*
G37*
G36*
G01*
X85655000Y-73059997D02*
X85655000Y-74360003D01*
G75*
G02*
X85405003Y-74610000I-249997J0D01*
G01*
X84579997Y-74610000D01*
G75*
G02*
X84330000Y-74360003I0J249997D01*
G01*
X84330000Y-73059997D01*
G75*
G02*
X84579997Y-72810000I249997J0D01*
G01*
X85405003Y-72810000D01*
G75*
G02*
X85655000Y-73059997I0J-249997D01*
G01*
G37*
%TD*%
%TO.C,C23*%
G36*
G01*
X88530000Y-73059997D02*
X88530000Y-74360003D01*
G75*
G02*
X88280003Y-74610000I-249997J0D01*
G01*
X87454997Y-74610000D01*
G75*
G02*
X87205000Y-74360003I0J249997D01*
G01*
X87205000Y-73059997D01*
G75*
G02*
X87454997Y-72810000I249997J0D01*
G01*
X88280003Y-72810000D01*
G75*
G02*
X88530000Y-73059997I0J-249997D01*
G01*
G37*
G36*
G01*
X91655000Y-73059997D02*
X91655000Y-74360003D01*
G75*
G02*
X91405003Y-74610000I-249997J0D01*
G01*
X90579997Y-74610000D01*
G75*
G02*
X90330000Y-74360003I0J249997D01*
G01*
X90330000Y-73059997D01*
G75*
G02*
X90579997Y-72810000I249997J0D01*
G01*
X91405003Y-72810000D01*
G75*
G02*
X91655000Y-73059997I0J-249997D01*
G01*
G37*
%TD*%
%TO.C,C22*%
G36*
G01*
X263290000Y-104129997D02*
X263290000Y-105430003D01*
G75*
G02*
X263040003Y-105680000I-249997J0D01*
G01*
X262214997Y-105680000D01*
G75*
G02*
X261965000Y-105430003I0J249997D01*
G01*
X261965000Y-104129997D01*
G75*
G02*
X262214997Y-103880000I249997J0D01*
G01*
X263040003Y-103880000D01*
G75*
G02*
X263290000Y-104129997I0J-249997D01*
G01*
G37*
G36*
G01*
X266415000Y-104129997D02*
X266415000Y-105430003D01*
G75*
G02*
X266165003Y-105680000I-249997J0D01*
G01*
X265339997Y-105680000D01*
G75*
G02*
X265090000Y-105430003I0J249997D01*
G01*
X265090000Y-104129997D01*
G75*
G02*
X265339997Y-103880000I249997J0D01*
G01*
X266165003Y-103880000D01*
G75*
G02*
X266415000Y-104129997I0J-249997D01*
G01*
G37*
%TD*%
%TO.C,C21*%
G36*
G01*
X247890000Y-104129997D02*
X247890000Y-105430003D01*
G75*
G02*
X247640003Y-105680000I-249997J0D01*
G01*
X246814997Y-105680000D01*
G75*
G02*
X246565000Y-105430003I0J249997D01*
G01*
X246565000Y-104129997D01*
G75*
G02*
X246814997Y-103880000I249997J0D01*
G01*
X247640003Y-103880000D01*
G75*
G02*
X247890000Y-104129997I0J-249997D01*
G01*
G37*
G36*
G01*
X251015000Y-104129997D02*
X251015000Y-105430003D01*
G75*
G02*
X250765003Y-105680000I-249997J0D01*
G01*
X249939997Y-105680000D01*
G75*
G02*
X249690000Y-105430003I0J249997D01*
G01*
X249690000Y-104129997D01*
G75*
G02*
X249939997Y-103880000I249997J0D01*
G01*
X250765003Y-103880000D01*
G75*
G02*
X251015000Y-104129997I0J-249997D01*
G01*
G37*
%TD*%
%TO.C,C20*%
G36*
G01*
X232800000Y-104149997D02*
X232800000Y-105450003D01*
G75*
G02*
X232550003Y-105700000I-249997J0D01*
G01*
X231724997Y-105700000D01*
G75*
G02*
X231475000Y-105450003I0J249997D01*
G01*
X231475000Y-104149997D01*
G75*
G02*
X231724997Y-103900000I249997J0D01*
G01*
X232550003Y-103900000D01*
G75*
G02*
X232800000Y-104149997I0J-249997D01*
G01*
G37*
G36*
G01*
X235925000Y-104149997D02*
X235925000Y-105450003D01*
G75*
G02*
X235675003Y-105700000I-249997J0D01*
G01*
X234849997Y-105700000D01*
G75*
G02*
X234600000Y-105450003I0J249997D01*
G01*
X234600000Y-104149997D01*
G75*
G02*
X234849997Y-103900000I249997J0D01*
G01*
X235675003Y-103900000D01*
G75*
G02*
X235925000Y-104149997I0J-249997D01*
G01*
G37*
%TD*%
%TO.C,C19*%
G36*
G01*
X217400000Y-104149997D02*
X217400000Y-105450003D01*
G75*
G02*
X217150003Y-105700000I-249997J0D01*
G01*
X216324997Y-105700000D01*
G75*
G02*
X216075000Y-105450003I0J249997D01*
G01*
X216075000Y-104149997D01*
G75*
G02*
X216324997Y-103900000I249997J0D01*
G01*
X217150003Y-103900000D01*
G75*
G02*
X217400000Y-104149997I0J-249997D01*
G01*
G37*
G36*
G01*
X220525000Y-104149997D02*
X220525000Y-105450003D01*
G75*
G02*
X220275003Y-105700000I-249997J0D01*
G01*
X219449997Y-105700000D01*
G75*
G02*
X219200000Y-105450003I0J249997D01*
G01*
X219200000Y-104149997D01*
G75*
G02*
X219449997Y-103900000I249997J0D01*
G01*
X220275003Y-103900000D01*
G75*
G02*
X220525000Y-104149997I0J-249997D01*
G01*
G37*
%TD*%
%TO.C,C18*%
G36*
G01*
X50950003Y-108862500D02*
X49649997Y-108862500D01*
G75*
G02*
X49400000Y-108612503I0J249997D01*
G01*
X49400000Y-107787497D01*
G75*
G02*
X49649997Y-107537500I249997J0D01*
G01*
X50950003Y-107537500D01*
G75*
G02*
X51200000Y-107787497I0J-249997D01*
G01*
X51200000Y-108612503D01*
G75*
G02*
X50950003Y-108862500I-249997J0D01*
G01*
G37*
G36*
G01*
X50950003Y-111987500D02*
X49649997Y-111987500D01*
G75*
G02*
X49400000Y-111737503I0J249997D01*
G01*
X49400000Y-110912497D01*
G75*
G02*
X49649997Y-110662500I249997J0D01*
G01*
X50950003Y-110662500D01*
G75*
G02*
X51200000Y-110912497I0J-249997D01*
G01*
X51200000Y-111737503D01*
G75*
G02*
X50950003Y-111987500I-249997J0D01*
G01*
G37*
%TD*%
%TO.C,C17*%
G36*
G01*
X188515003Y-108875000D02*
X187214997Y-108875000D01*
G75*
G02*
X186965000Y-108625003I0J249997D01*
G01*
X186965000Y-107799997D01*
G75*
G02*
X187214997Y-107550000I249997J0D01*
G01*
X188515003Y-107550000D01*
G75*
G02*
X188765000Y-107799997I0J-249997D01*
G01*
X188765000Y-108625003D01*
G75*
G02*
X188515003Y-108875000I-249997J0D01*
G01*
G37*
G36*
G01*
X188515003Y-112000000D02*
X187214997Y-112000000D01*
G75*
G02*
X186965000Y-111750003I0J249997D01*
G01*
X186965000Y-110924997D01*
G75*
G02*
X187214997Y-110675000I249997J0D01*
G01*
X188515003Y-110675000D01*
G75*
G02*
X188765000Y-110924997I0J-249997D01*
G01*
X188765000Y-111750003D01*
G75*
G02*
X188515003Y-112000000I-249997J0D01*
G01*
G37*
%TD*%
%TO.C,C16*%
G36*
G01*
X81455003Y-108887500D02*
X80154997Y-108887500D01*
G75*
G02*
X79905000Y-108637503I0J249997D01*
G01*
X79905000Y-107812497D01*
G75*
G02*
X80154997Y-107562500I249997J0D01*
G01*
X81455003Y-107562500D01*
G75*
G02*
X81705000Y-107812497I0J-249997D01*
G01*
X81705000Y-108637503D01*
G75*
G02*
X81455003Y-108887500I-249997J0D01*
G01*
G37*
G36*
G01*
X81455003Y-112012500D02*
X80154997Y-112012500D01*
G75*
G02*
X79905000Y-111762503I0J249997D01*
G01*
X79905000Y-110937497D01*
G75*
G02*
X80154997Y-110687500I249997J0D01*
G01*
X81455003Y-110687500D01*
G75*
G02*
X81705000Y-110937497I0J-249997D01*
G01*
X81705000Y-111762503D01*
G75*
G02*
X81455003Y-112012500I-249997J0D01*
G01*
G37*
%TD*%
%TO.C,C15*%
G36*
G01*
X157905003Y-108885000D02*
X156604997Y-108885000D01*
G75*
G02*
X156355000Y-108635003I0J249997D01*
G01*
X156355000Y-107809997D01*
G75*
G02*
X156604997Y-107560000I249997J0D01*
G01*
X157905003Y-107560000D01*
G75*
G02*
X158155000Y-107809997I0J-249997D01*
G01*
X158155000Y-108635003D01*
G75*
G02*
X157905003Y-108885000I-249997J0D01*
G01*
G37*
G36*
G01*
X157905003Y-112010000D02*
X156604997Y-112010000D01*
G75*
G02*
X156355000Y-111760003I0J249997D01*
G01*
X156355000Y-110934997D01*
G75*
G02*
X156604997Y-110685000I249997J0D01*
G01*
X157905003Y-110685000D01*
G75*
G02*
X158155000Y-110934997I0J-249997D01*
G01*
X158155000Y-111760003D01*
G75*
G02*
X157905003Y-112010000I-249997J0D01*
G01*
G37*
%TD*%
%TO.C,C14*%
G36*
G01*
X112155003Y-108897500D02*
X110854997Y-108897500D01*
G75*
G02*
X110605000Y-108647503I0J249997D01*
G01*
X110605000Y-107822497D01*
G75*
G02*
X110854997Y-107572500I249997J0D01*
G01*
X112155003Y-107572500D01*
G75*
G02*
X112405000Y-107822497I0J-249997D01*
G01*
X112405000Y-108647503D01*
G75*
G02*
X112155003Y-108897500I-249997J0D01*
G01*
G37*
G36*
G01*
X112155003Y-112022500D02*
X110854997Y-112022500D01*
G75*
G02*
X110605000Y-111772503I0J249997D01*
G01*
X110605000Y-110947497D01*
G75*
G02*
X110854997Y-110697500I249997J0D01*
G01*
X112155003Y-110697500D01*
G75*
G02*
X112405000Y-110947497I0J-249997D01*
G01*
X112405000Y-111772503D01*
G75*
G02*
X112155003Y-112022500I-249997J0D01*
G01*
G37*
%TD*%
%TO.C,C13*%
G36*
G01*
X127475003Y-108875000D02*
X126174997Y-108875000D01*
G75*
G02*
X125925000Y-108625003I0J249997D01*
G01*
X125925000Y-107799997D01*
G75*
G02*
X126174997Y-107550000I249997J0D01*
G01*
X127475003Y-107550000D01*
G75*
G02*
X127725000Y-107799997I0J-249997D01*
G01*
X127725000Y-108625003D01*
G75*
G02*
X127475003Y-108875000I-249997J0D01*
G01*
G37*
G36*
G01*
X127475003Y-112000000D02*
X126174997Y-112000000D01*
G75*
G02*
X125925000Y-111750003I0J249997D01*
G01*
X125925000Y-110924997D01*
G75*
G02*
X126174997Y-110675000I249997J0D01*
G01*
X127475003Y-110675000D01*
G75*
G02*
X127725000Y-110924997I0J-249997D01*
G01*
X127725000Y-111750003D01*
G75*
G02*
X127475003Y-112000000I-249997J0D01*
G01*
G37*
%TD*%
%TO.C,C12*%
G36*
G01*
X203565003Y-108887500D02*
X202264997Y-108887500D01*
G75*
G02*
X202015000Y-108637503I0J249997D01*
G01*
X202015000Y-107812497D01*
G75*
G02*
X202264997Y-107562500I249997J0D01*
G01*
X203565003Y-107562500D01*
G75*
G02*
X203815000Y-107812497I0J-249997D01*
G01*
X203815000Y-108637503D01*
G75*
G02*
X203565003Y-108887500I-249997J0D01*
G01*
G37*
G36*
G01*
X203565003Y-112012500D02*
X202264997Y-112012500D01*
G75*
G02*
X202015000Y-111762503I0J249997D01*
G01*
X202015000Y-110937497D01*
G75*
G02*
X202264997Y-110687500I249997J0D01*
G01*
X203565003Y-110687500D01*
G75*
G02*
X203815000Y-110937497I0J-249997D01*
G01*
X203815000Y-111762503D01*
G75*
G02*
X203565003Y-112012500I-249997J0D01*
G01*
G37*
%TD*%
%TO.C,C11*%
G36*
G01*
X97105003Y-108885000D02*
X95804997Y-108885000D01*
G75*
G02*
X95555000Y-108635003I0J249997D01*
G01*
X95555000Y-107809997D01*
G75*
G02*
X95804997Y-107560000I249997J0D01*
G01*
X97105003Y-107560000D01*
G75*
G02*
X97355000Y-107809997I0J-249997D01*
G01*
X97355000Y-108635003D01*
G75*
G02*
X97105003Y-108885000I-249997J0D01*
G01*
G37*
G36*
G01*
X97105003Y-112010000D02*
X95804997Y-112010000D01*
G75*
G02*
X95555000Y-111760003I0J249997D01*
G01*
X95555000Y-110934997D01*
G75*
G02*
X95804997Y-110685000I249997J0D01*
G01*
X97105003Y-110685000D01*
G75*
G02*
X97355000Y-110934997I0J-249997D01*
G01*
X97355000Y-111760003D01*
G75*
G02*
X97105003Y-112010000I-249997J0D01*
G01*
G37*
%TD*%
%TO.C,C10*%
G36*
G01*
X142525003Y-108887500D02*
X141224997Y-108887500D01*
G75*
G02*
X140975000Y-108637503I0J249997D01*
G01*
X140975000Y-107812497D01*
G75*
G02*
X141224997Y-107562500I249997J0D01*
G01*
X142525003Y-107562500D01*
G75*
G02*
X142775000Y-107812497I0J-249997D01*
G01*
X142775000Y-108637503D01*
G75*
G02*
X142525003Y-108887500I-249997J0D01*
G01*
G37*
G36*
G01*
X142525003Y-112012500D02*
X141224997Y-112012500D01*
G75*
G02*
X140975000Y-111762503I0J249997D01*
G01*
X140975000Y-110937497D01*
G75*
G02*
X141224997Y-110687500I249997J0D01*
G01*
X142525003Y-110687500D01*
G75*
G02*
X142775000Y-110937497I0J-249997D01*
G01*
X142775000Y-111762503D01*
G75*
G02*
X142525003Y-112012500I-249997J0D01*
G01*
G37*
%TD*%
%TO.C,C9*%
G36*
G01*
X66405003Y-108875000D02*
X65104997Y-108875000D01*
G75*
G02*
X64855000Y-108625003I0J249997D01*
G01*
X64855000Y-107799997D01*
G75*
G02*
X65104997Y-107550000I249997J0D01*
G01*
X66405003Y-107550000D01*
G75*
G02*
X66655000Y-107799997I0J-249997D01*
G01*
X66655000Y-108625003D01*
G75*
G02*
X66405003Y-108875000I-249997J0D01*
G01*
G37*
G36*
G01*
X66405003Y-112000000D02*
X65104997Y-112000000D01*
G75*
G02*
X64855000Y-111750003I0J249997D01*
G01*
X64855000Y-110924997D01*
G75*
G02*
X65104997Y-110675000I249997J0D01*
G01*
X66405003Y-110675000D01*
G75*
G02*
X66655000Y-110924997I0J-249997D01*
G01*
X66655000Y-111750003D01*
G75*
G02*
X66405003Y-112000000I-249997J0D01*
G01*
G37*
%TD*%
%TO.C,C8*%
G36*
G01*
X183430000Y-58999997D02*
X183430000Y-60300003D01*
G75*
G02*
X183180003Y-60550000I-249997J0D01*
G01*
X182354997Y-60550000D01*
G75*
G02*
X182105000Y-60300003I0J249997D01*
G01*
X182105000Y-58999997D01*
G75*
G02*
X182354997Y-58750000I249997J0D01*
G01*
X183180003Y-58750000D01*
G75*
G02*
X183430000Y-58999997I0J-249997D01*
G01*
G37*
G36*
G01*
X186555000Y-58999997D02*
X186555000Y-60300003D01*
G75*
G02*
X186305003Y-60550000I-249997J0D01*
G01*
X185479997Y-60550000D01*
G75*
G02*
X185230000Y-60300003I0J249997D01*
G01*
X185230000Y-58999997D01*
G75*
G02*
X185479997Y-58750000I249997J0D01*
G01*
X186305003Y-58750000D01*
G75*
G02*
X186555000Y-58999997I0J-249997D01*
G01*
G37*
%TD*%
%TO.C,C7*%
G36*
G01*
X177367500Y-72999997D02*
X177367500Y-74300003D01*
G75*
G02*
X177117503Y-74550000I-249997J0D01*
G01*
X176292497Y-74550000D01*
G75*
G02*
X176042500Y-74300003I0J249997D01*
G01*
X176042500Y-72999997D01*
G75*
G02*
X176292497Y-72750000I249997J0D01*
G01*
X177117503Y-72750000D01*
G75*
G02*
X177367500Y-72999997I0J-249997D01*
G01*
G37*
G36*
G01*
X180492500Y-72999997D02*
X180492500Y-74300003D01*
G75*
G02*
X180242503Y-74550000I-249997J0D01*
G01*
X179417497Y-74550000D01*
G75*
G02*
X179167500Y-74300003I0J249997D01*
G01*
X179167500Y-72999997D01*
G75*
G02*
X179417497Y-72750000I249997J0D01*
G01*
X180242503Y-72750000D01*
G75*
G02*
X180492500Y-72999997I0J-249997D01*
G01*
G37*
%TD*%
%TO.C,C6*%
G36*
G01*
X183430000Y-72999997D02*
X183430000Y-74300003D01*
G75*
G02*
X183180003Y-74550000I-249997J0D01*
G01*
X182354997Y-74550000D01*
G75*
G02*
X182105000Y-74300003I0J249997D01*
G01*
X182105000Y-72999997D01*
G75*
G02*
X182354997Y-72750000I249997J0D01*
G01*
X183180003Y-72750000D01*
G75*
G02*
X183430000Y-72999997I0J-249997D01*
G01*
G37*
G36*
G01*
X186555000Y-72999997D02*
X186555000Y-74300003D01*
G75*
G02*
X186305003Y-74550000I-249997J0D01*
G01*
X185479997Y-74550000D01*
G75*
G02*
X185230000Y-74300003I0J249997D01*
G01*
X185230000Y-72999997D01*
G75*
G02*
X185479997Y-72750000I249997J0D01*
G01*
X186305003Y-72750000D01*
G75*
G02*
X186555000Y-72999997I0J-249997D01*
G01*
G37*
%TD*%
%TO.C,C5*%
G36*
G01*
X189430000Y-72999997D02*
X189430000Y-74300003D01*
G75*
G02*
X189180003Y-74550000I-249997J0D01*
G01*
X188354997Y-74550000D01*
G75*
G02*
X188105000Y-74300003I0J249997D01*
G01*
X188105000Y-72999997D01*
G75*
G02*
X188354997Y-72750000I249997J0D01*
G01*
X189180003Y-72750000D01*
G75*
G02*
X189430000Y-72999997I0J-249997D01*
G01*
G37*
G36*
G01*
X192555000Y-72999997D02*
X192555000Y-74300003D01*
G75*
G02*
X192305003Y-74550000I-249997J0D01*
G01*
X191479997Y-74550000D01*
G75*
G02*
X191230000Y-74300003I0J249997D01*
G01*
X191230000Y-72999997D01*
G75*
G02*
X191479997Y-72750000I249997J0D01*
G01*
X192305003Y-72750000D01*
G75*
G02*
X192555000Y-72999997I0J-249997D01*
G01*
G37*
%TD*%
%TO.C,C4*%
G36*
G01*
X146560000Y-59049997D02*
X146560000Y-60350003D01*
G75*
G02*
X146310003Y-60600000I-249997J0D01*
G01*
X145484997Y-60600000D01*
G75*
G02*
X145235000Y-60350003I0J249997D01*
G01*
X145235000Y-59049997D01*
G75*
G02*
X145484997Y-58800000I249997J0D01*
G01*
X146310003Y-58800000D01*
G75*
G02*
X146560000Y-59049997I0J-249997D01*
G01*
G37*
G36*
G01*
X149685000Y-59049997D02*
X149685000Y-60350003D01*
G75*
G02*
X149435003Y-60600000I-249997J0D01*
G01*
X148609997Y-60600000D01*
G75*
G02*
X148360000Y-60350003I0J249997D01*
G01*
X148360000Y-59049997D01*
G75*
G02*
X148609997Y-58800000I249997J0D01*
G01*
X149435003Y-58800000D01*
G75*
G02*
X149685000Y-59049997I0J-249997D01*
G01*
G37*
%TD*%
%TO.C,C3*%
G36*
G01*
X140497500Y-73049997D02*
X140497500Y-74350003D01*
G75*
G02*
X140247503Y-74600000I-249997J0D01*
G01*
X139422497Y-74600000D01*
G75*
G02*
X139172500Y-74350003I0J249997D01*
G01*
X139172500Y-73049997D01*
G75*
G02*
X139422497Y-72800000I249997J0D01*
G01*
X140247503Y-72800000D01*
G75*
G02*
X140497500Y-73049997I0J-249997D01*
G01*
G37*
G36*
G01*
X143622500Y-73049997D02*
X143622500Y-74350003D01*
G75*
G02*
X143372503Y-74600000I-249997J0D01*
G01*
X142547497Y-74600000D01*
G75*
G02*
X142297500Y-74350003I0J249997D01*
G01*
X142297500Y-73049997D01*
G75*
G02*
X142547497Y-72800000I249997J0D01*
G01*
X143372503Y-72800000D01*
G75*
G02*
X143622500Y-73049997I0J-249997D01*
G01*
G37*
%TD*%
%TO.C,C2*%
G36*
G01*
X146560000Y-73049997D02*
X146560000Y-74350003D01*
G75*
G02*
X146310003Y-74600000I-249997J0D01*
G01*
X145484997Y-74600000D01*
G75*
G02*
X145235000Y-74350003I0J249997D01*
G01*
X145235000Y-73049997D01*
G75*
G02*
X145484997Y-72800000I249997J0D01*
G01*
X146310003Y-72800000D01*
G75*
G02*
X146560000Y-73049997I0J-249997D01*
G01*
G37*
G36*
G01*
X149685000Y-73049997D02*
X149685000Y-74350003D01*
G75*
G02*
X149435003Y-74600000I-249997J0D01*
G01*
X148609997Y-74600000D01*
G75*
G02*
X148360000Y-74350003I0J249997D01*
G01*
X148360000Y-73049997D01*
G75*
G02*
X148609997Y-72800000I249997J0D01*
G01*
X149435003Y-72800000D01*
G75*
G02*
X149685000Y-73049997I0J-249997D01*
G01*
G37*
%TD*%
%TO.C,C1*%
G36*
G01*
X152560000Y-73049997D02*
X152560000Y-74350003D01*
G75*
G02*
X152310003Y-74600000I-249997J0D01*
G01*
X151484997Y-74600000D01*
G75*
G02*
X151235000Y-74350003I0J249997D01*
G01*
X151235000Y-73049997D01*
G75*
G02*
X151484997Y-72800000I249997J0D01*
G01*
X152310003Y-72800000D01*
G75*
G02*
X152560000Y-73049997I0J-249997D01*
G01*
G37*
G36*
G01*
X155685000Y-73049997D02*
X155685000Y-74350003D01*
G75*
G02*
X155435003Y-74600000I-249997J0D01*
G01*
X154609997Y-74600000D01*
G75*
G02*
X154360000Y-74350003I0J249997D01*
G01*
X154360000Y-73049997D01*
G75*
G02*
X154609997Y-72800000I249997J0D01*
G01*
X155435003Y-72800000D01*
G75*
G02*
X155685000Y-73049997I0J-249997D01*
G01*
G37*
%TD*%
M02*
